<svg width="93" height="93" viewBox="0 0 93 93" fill="none" xmlns="http://www.w3.org/2000/svg">
<path d="M0 68.362V24.218C0.01794 17.801 2.57482 11.652 7.11205 7.11417C11.6493 2.57638 17.798 0.018735 24.215 0H68.359C74.7766 0.0179425 80.9262 2.57521 85.4643 7.11305C90.0023 11.6509 92.5598 17.8004 92.578 24.218V68.362C92.559 74.7789 90.0013 80.9275 85.4636 85.4647C80.9258 90.0018 74.7769 92.5588 68.36 92.577H53.521L45.749 90.684L39.056 92.577H24.215C17.7986 92.5583 11.6502 90.001 7.1131 85.4639C2.57596 80.9268 0.0187312 74.7785 0 68.362Z" fill="#473BDA"/>
<path d="M63.493 61.192L65.545 47.809H52.712V39.13C52.712 35.467 54.504 31.899 60.256 31.899H66.094V20.509C62.6668 19.9548 59.2035 19.6524 55.732 19.604C45.158 19.604 38.247 26.015 38.247 37.614V47.809H26.488V61.191H38.243V92.577H52.712V61.192H63.493Z" fill="white"/>
</svg>
