<svg width="833" height="170" viewBox="0 0 833 170" fill="none" xmlns="http://www.w3.org/2000/svg">
<g filter="url(#filter0_i_56_404)">
<path d="M100.688 21.375L96.1875 106.125L63.4375 109.125L45.9375 63.75L43.1875 110H15.0625L17.3125 21.375L48.5625 19.875L70.1875 64.875L71.1875 22.375L100.688 21.375ZM182.312 63.125C182.312 66.9167 181.875 70.5833 181 74.125C180.125 77.625 178.854 80.9167 177.188 84C175.562 87.0833 173.562 89.9167 171.188 92.5C168.854 95.0417 166.208 97.2292 163.25 99.0625C160.333 100.896 157.146 102.333 153.688 103.375C150.229 104.375 146.562 104.875 142.688 104.875C138.938 104.875 135.354 104.396 131.938 103.438C128.562 102.479 125.396 101.146 122.438 99.4375C119.479 97.6875 116.792 95.6042 114.375 93.1875C112 90.7292 109.958 88.0208 108.25 85.0625C106.583 82.0625 105.271 78.8542 104.312 75.4375C103.396 72.0208 102.938 68.4583 102.938 64.75C102.938 61.125 103.375 57.5833 104.25 54.125C105.125 50.625 106.375 47.3333 108 44.25C109.667 41.1667 111.667 38.3333 114 35.75C116.333 33.1667 118.938 30.9375 121.812 29.0625C124.729 27.1875 127.875 25.7292 131.25 24.6875C134.625 23.6458 138.188 23.125 141.938 23.125C147.979 23.125 153.479 24.0625 158.438 25.9375C163.438 27.8125 167.688 30.5 171.188 34C174.729 37.4583 177.458 41.6667 179.375 46.625C181.333 51.5417 182.312 57.0417 182.312 63.125ZM154.562 64.75C154.562 62.9583 154.292 61.2292 153.75 59.5625C153.25 57.8542 152.5 56.3542 151.5 55.0625C150.5 53.7292 149.25 52.6667 147.75 51.875C146.292 51.0417 144.604 50.625 142.688 50.625C140.729 50.625 138.979 50.9792 137.438 51.6875C135.896 52.3958 134.562 53.375 133.438 54.625C132.354 55.8333 131.521 57.2708 130.938 58.9375C130.354 60.5625 130.062 62.2917 130.062 64.125C130.062 65.875 130.312 67.625 130.812 69.375C131.312 71.125 132.062 72.7083 133.062 74.125C134.062 75.5417 135.292 76.6875 136.75 77.5625C138.25 78.4375 139.979 78.875 141.938 78.875C143.896 78.875 145.646 78.5 147.188 77.75C148.771 76.9583 150.104 75.9167 151.188 74.625C152.271 73.2917 153.104 71.7708 153.688 70.0625C154.271 68.3542 154.562 66.5833 154.562 64.75ZM250.75 79C250.75 84.7083 249.75 89.6458 247.75 93.8125C245.792 97.9375 243.083 101.354 239.625 104.062C236.208 106.729 232.188 108.708 227.562 110C222.979 111.25 218.042 111.875 212.75 111.875C210.708 111.875 208.458 111.604 206 111.062C203.583 110.521 201.125 109.854 198.625 109.062C196.125 108.229 193.708 107.354 191.375 106.438C189.083 105.479 187.042 104.583 185.25 103.75L188 79.25C191.542 81.375 195.458 83 199.75 84.125C204.083 85.2083 208.333 85.75 212.5 85.75C213.292 85.75 214.25 85.7292 215.375 85.6875C216.5 85.6042 217.562 85.4167 218.562 85.125C219.604 84.7917 220.479 84.3125 221.188 83.6875C221.896 83.0625 222.25 82.1667 222.25 81C222.25 80.2083 222 79.5417 221.5 79C221 78.4167 220.354 77.9583 219.562 77.625C218.771 77.25 217.875 76.9792 216.875 76.8125C215.875 76.6042 214.896 76.4583 213.938 76.375C212.979 76.2917 212.083 76.25 211.25 76.25C210.417 76.25 209.75 76.25 209.25 76.25C205.667 76.25 202.396 75.6875 199.438 74.5625C196.521 73.4375 194 71.8542 191.875 69.8125C189.792 67.7292 188.167 65.2292 187 62.3125C185.833 59.3542 185.25 56.0833 185.25 52.5C185.25 47.5833 186.229 43.1875 188.188 39.3125C190.188 35.3958 192.833 32.0833 196.125 29.375C199.458 26.625 203.271 24.5208 207.562 23.0625C211.854 21.6042 216.292 20.875 220.875 20.875C222.917 20.875 225.021 20.9583 227.188 21.125C229.354 21.25 231.5 21.5 233.625 21.875C235.792 22.25 237.896 22.7292 239.938 23.3125C241.979 23.8958 243.917 24.625 245.75 25.5L243.375 50.875C240.542 49.9167 237.562 49.125 234.438 48.5C231.354 47.8333 228.333 47.5 225.375 47.5C224.833 47.5 224.125 47.5208 223.25 47.5625C222.417 47.5625 221.521 47.625 220.562 47.75C219.646 47.8333 218.708 47.9792 217.75 48.1875C216.792 48.3958 215.938 48.6875 215.188 49.0625C214.438 49.3958 213.833 49.8542 213.375 50.4375C212.917 51.0208 212.708 51.7083 212.75 52.5C212.792 53.4167 213.125 54.125 213.75 54.625C214.417 55.125 215.25 55.5 216.25 55.75C217.292 55.9583 218.417 56.0625 219.625 56.0625C220.875 56.0625 222.104 56.0417 223.312 56C224.521 55.9167 225.646 55.8542 226.688 55.8125C227.729 55.7292 228.583 55.7083 229.25 55.75C232.583 55.9583 235.583 56.6667 238.25 57.875C240.917 59.0833 243.167 60.6875 245 62.6875C246.875 64.6875 248.292 67.0833 249.25 69.875C250.25 72.625 250.75 75.6667 250.75 79ZM318.25 79C318.25 84.7083 317.25 89.6458 315.25 93.8125C313.292 97.9375 310.583 101.354 307.125 104.062C303.708 106.729 299.688 108.708 295.062 110C290.479 111.25 285.542 111.875 280.25 111.875C278.208 111.875 275.958 111.604 273.5 111.062C271.083 110.521 268.625 109.854 266.125 109.062C263.625 108.229 261.208 107.354 258.875 106.438C256.583 105.479 254.542 104.583 252.75 103.75L255.5 79.25C259.042 81.375 262.958 83 267.25 84.125C271.583 85.2083 275.833 85.75 280 85.75C280.792 85.75 281.75 85.7292 282.875 85.6875C284 85.6042 285.062 85.4167 286.062 85.125C287.104 84.7917 287.979 84.3125 288.688 83.6875C289.396 83.0625 289.75 82.1667 289.75 81C289.75 80.2083 289.5 79.5417 289 79C288.5 78.4167 287.854 77.9583 287.062 77.625C286.271 77.25 285.375 76.9792 284.375 76.8125C283.375 76.6042 282.396 76.4583 281.438 76.375C280.479 76.2917 279.583 76.25 278.75 76.25C277.917 76.25 277.25 76.25 276.75 76.25C273.167 76.25 269.896 75.6875 266.938 74.5625C264.021 73.4375 261.5 71.8542 259.375 69.8125C257.292 67.7292 255.667 65.2292 254.5 62.3125C253.333 59.3542 252.75 56.0833 252.75 52.5C252.75 47.5833 253.729 43.1875 255.688 39.3125C257.688 35.3958 260.333 32.0833 263.625 29.375C266.958 26.625 270.771 24.5208 275.062 23.0625C279.354 21.6042 283.792 20.875 288.375 20.875C290.417 20.875 292.521 20.9583 294.688 21.125C296.854 21.25 299 21.5 301.125 21.875C303.292 22.25 305.396 22.7292 307.438 23.3125C309.479 23.8958 311.417 24.625 313.25 25.5L310.875 50.875C308.042 49.9167 305.062 49.125 301.938 48.5C298.854 47.8333 295.833 47.5 292.875 47.5C292.333 47.5 291.625 47.5208 290.75 47.5625C289.917 47.5625 289.021 47.625 288.062 47.75C287.146 47.8333 286.208 47.9792 285.25 48.1875C284.292 48.3958 283.438 48.6875 282.688 49.0625C281.938 49.3958 281.333 49.8542 280.875 50.4375C280.417 51.0208 280.208 51.7083 280.25 52.5C280.292 53.4167 280.625 54.125 281.25 54.625C281.917 55.125 282.75 55.5 283.75 55.75C284.792 55.9583 285.917 56.0625 287.125 56.0625C288.375 56.0625 289.604 56.0417 290.812 56C292.021 55.9167 293.146 55.8542 294.188 55.8125C295.229 55.7292 296.083 55.7083 296.75 55.75C300.083 55.9583 303.083 56.6667 305.75 57.875C308.417 59.0833 310.667 60.6875 312.5 62.6875C314.375 64.6875 315.792 67.0833 316.75 69.875C317.75 72.625 318.25 75.6667 318.25 79ZM399.562 63.125C399.562 66.9167 399.125 70.5833 398.25 74.125C397.375 77.625 396.104 80.9167 394.438 84C392.812 87.0833 390.812 89.9167 388.438 92.5C386.104 95.0417 383.458 97.2292 380.5 99.0625C377.583 100.896 374.396 102.333 370.938 103.375C367.479 104.375 363.812 104.875 359.938 104.875C356.188 104.875 352.604 104.396 349.188 103.438C345.812 102.479 342.646 101.146 339.688 99.4375C336.729 97.6875 334.042 95.6042 331.625 93.1875C329.25 90.7292 327.208 88.0208 325.5 85.0625C323.833 82.0625 322.521 78.8542 321.562 75.4375C320.646 72.0208 320.188 68.4583 320.188 64.75C320.188 61.125 320.625 57.5833 321.5 54.125C322.375 50.625 323.625 47.3333 325.25 44.25C326.917 41.1667 328.917 38.3333 331.25 35.75C333.583 33.1667 336.188 30.9375 339.062 29.0625C341.979 27.1875 345.125 25.7292 348.5 24.6875C351.875 23.6458 355.438 23.125 359.188 23.125C365.229 23.125 370.729 24.0625 375.688 25.9375C380.688 27.8125 384.938 30.5 388.438 34C391.979 37.4583 394.708 41.6667 396.625 46.625C398.583 51.5417 399.562 57.0417 399.562 63.125ZM371.812 64.75C371.812 62.9583 371.542 61.2292 371 59.5625C370.5 57.8542 369.75 56.3542 368.75 55.0625C367.75 53.7292 366.5 52.6667 365 51.875C363.542 51.0417 361.854 50.625 359.938 50.625C357.979 50.625 356.229 50.9792 354.688 51.6875C353.146 52.3958 351.812 53.375 350.688 54.625C349.604 55.8333 348.771 57.2708 348.188 58.9375C347.604 60.5625 347.312 62.2917 347.312 64.125C347.312 65.875 347.562 67.625 348.062 69.375C348.562 71.125 349.312 72.7083 350.312 74.125C351.312 75.5417 352.542 76.6875 354 77.5625C355.5 78.4375 357.229 78.875 359.188 78.875C361.146 78.875 362.896 78.5 364.438 77.75C366.021 76.9583 367.354 75.9167 368.438 74.625C369.521 73.2917 370.354 71.7708 370.938 70.0625C371.521 68.3542 371.812 66.5833 371.812 64.75ZM525.562 19.875L519.812 111.625L491.312 112.875L491.562 64.5L478.688 103.5H467.688L457.812 68.625L457.688 109.125L428.812 110L430.062 23.625L462.188 22.375L474.938 63.75L491.938 19.875H525.562ZM599.312 60.5C599.312 64.125 599.062 67.75 598.562 71.375C591.438 71.8333 584.354 72.5833 577.312 73.625C570.271 74.625 563.229 75.625 556.188 76.625C557.271 79.625 558.958 82.0208 561.25 83.8125C563.583 85.6042 566.354 86.5 569.562 86.5C571.229 86.5 573.042 86.1875 575 85.5625C577 84.9375 578.979 84.1667 580.938 83.25C582.896 82.2917 584.771 81.2708 586.562 80.1875C588.354 79.1042 589.896 78.125 591.188 77.25L588.188 105.625C586.562 106.875 584.792 107.938 582.875 108.812C581 109.688 579.042 110.396 577 110.938C574.958 111.479 572.896 111.875 570.812 112.125C568.729 112.375 566.688 112.5 564.688 112.5C560.562 112.5 556.792 111.938 553.375 110.812C549.958 109.688 546.854 108.125 544.062 106.125C541.312 104.083 538.896 101.688 536.812 98.9375C534.729 96.1875 533 93.1875 531.625 89.9375C530.25 86.6875 529.208 83.25 528.5 79.625C527.792 76 527.438 72.3333 527.438 68.625C527.438 64.75 527.792 60.875 528.5 57C529.208 53.125 530.271 49.3958 531.688 45.8125C533.146 42.2292 534.958 38.9167 537.125 35.875C539.333 32.7917 541.896 30.1042 544.812 27.8125C547.729 25.5208 551.021 23.7292 554.688 22.4375C558.396 21.1458 562.479 20.5 566.938 20.5C570.646 20.5 574.021 21.0208 577.062 22.0625C580.146 23.0625 582.875 24.4792 585.25 26.3125C587.667 28.1042 589.75 30.25 591.5 32.75C593.292 35.25 594.75 38 595.875 41C597.042 43.9583 597.896 47.1042 598.438 50.4375C599.021 53.7292 599.312 57.0833 599.312 60.5ZM574.312 57.25C574.312 56.0833 574.188 54.8958 573.938 53.6875C573.688 52.4375 573.271 51.3125 572.688 50.3125C572.146 49.3125 571.417 48.5 570.5 47.875C569.583 47.2083 568.438 46.875 567.062 46.875C565.396 46.875 563.917 47.3333 562.625 48.25C561.375 49.125 560.292 50.25 559.375 51.625C558.458 52.9583 557.708 54.4167 557.125 56C556.542 57.5833 556.104 59.0417 555.812 60.375L574.312 58.625V57.25ZM681 79.375C681 84.0833 680.938 88.75 680.812 93.375C680.729 97.9583 680.583 102.583 680.375 107.25L644.375 106.625C645.625 99.25 646.708 91.8958 647.625 84.5625C648.542 77.1875 649 69.75 649 62.25C649 61.7083 648.979 60.8333 648.938 59.625C648.896 58.4167 648.812 57.0625 648.688 55.5625C648.562 54.0208 648.375 52.4583 648.125 50.875C647.917 49.25 647.604 47.7708 647.188 46.4375C646.812 45.1042 646.333 44.0208 645.75 43.1875C645.208 42.3125 644.542 41.875 643.75 41.875C642.333 41.875 641.125 42.2917 640.125 43.125C639.167 43.9583 638.354 45.0417 637.688 46.375C637.062 47.6667 636.562 49.125 636.188 50.75C635.812 52.375 635.521 54 635.312 55.625C635.146 57.25 635.021 58.7917 634.938 60.25C634.896 61.6667 634.875 62.8333 634.875 63.75C634.667 71.125 634.5 78.4583 634.375 85.75C634.25 93 634.083 100.333 633.875 107.75L602 109.125C602.833 94.4167 603.625 79.7917 604.375 65.25C605.167 50.7083 605.792 36.0833 606.25 21.375L635.75 19.875L635.5 29.875C636.667 28.4583 637.917 27.125 639.25 25.875C640.625 24.625 642.083 23.5625 643.625 22.6875C645.167 21.7708 646.792 21.0625 648.5 20.5625C650.25 20.0208 652.083 19.75 654 19.75C657.542 19.75 660.646 20.3333 663.312 21.5C665.979 22.6667 668.271 24.25 670.188 26.25C672.104 28.25 673.708 30.625 675 33.375C676.292 36.0833 677.333 38.9792 678.125 42.0625C678.917 45.1458 679.521 48.375 679.938 51.75C680.354 55.0833 680.625 58.375 680.75 61.625C680.917 64.875 681 68.0208 681 71.0625C681 74.1042 681 76.875 681 79.375ZM761.438 23C759.562 37.6667 757.958 52.2708 756.625 66.8125C755.292 81.3125 754.021 95.9167 752.812 110.625L727.188 112.5L728.312 102.875C727.479 103.833 726.5 104.667 725.375 105.375C724.292 106.083 723.125 106.667 721.875 107.125C720.625 107.542 719.333 107.854 718 108.062C716.667 108.229 715.396 108.292 714.188 108.25C711.354 108.208 708.688 107.667 706.188 106.625C703.688 105.542 701.396 104.125 699.312 102.375C697.229 100.583 695.354 98.5208 693.688 96.1875C692.021 93.8125 690.604 91.3333 689.438 88.75C688.312 86.125 687.438 83.4583 686.812 80.75C686.229 78.0417 685.938 75.4167 685.938 72.875C685.938 69.125 686 65.25 686.125 61.25C686.292 57.2083 686.562 53.1667 686.938 49.125C687.312 45.0833 687.792 41.0833 688.375 37.125C689 33.1667 689.771 29.375 690.688 25.75C695.771 26 700.875 26.2292 706 26.4375C711.125 26.6458 716.229 26.7083 721.312 26.625C720.354 30.25 719.396 33.8958 718.438 37.5625C717.521 41.1875 716.688 44.8542 715.938 48.5625C715.188 52.2292 714.583 55.9167 714.125 59.625C713.667 63.3333 713.438 67.0833 713.438 70.875C713.438 71.75 713.479 73 713.562 74.625C713.646 76.25 713.854 77.8542 714.188 79.4375C714.562 81.0208 715.104 82.4167 715.812 83.625C716.562 84.7917 717.604 85.375 718.938 85.375C720.521 85.375 721.938 84.7083 723.188 83.375C724.438 82 725.542 80.1667 726.5 77.875C727.458 75.5833 728.271 72.9375 728.938 69.9375C729.646 66.9375 730.229 63.8125 730.688 60.5625C731.188 57.2708 731.583 53.9583 731.875 50.625C732.167 47.2917 732.375 44.1667 732.5 41.25C732.667 38.2917 732.771 35.6458 732.812 33.3125C732.896 30.9792 732.938 29.1667 732.938 27.875C732.938 27.0417 732.917 26.2292 732.875 25.4375C732.833 24.6458 732.771 23.8333 732.688 23C735.396 23.0833 738.083 23.1458 740.75 23.1875C743.417 23.2292 746.104 23.25 748.812 23.25C750.896 23.25 752.979 23.25 755.062 23.25C757.188 23.2083 759.312 23.125 761.438 23Z" fill="#E79D0F"/>
</g>
<defs>
<filter id="filter0_i_56_404" x="15.0625" y="19.75" width="746.375" height="97.125" filterUnits="userSpaceOnUse" color-interpolation-filters="sRGB">
<feFlood flood-opacity="0" result="BackgroundImageFix"/>
<feBlend mode="normal" in="SourceGraphic" in2="BackgroundImageFix" result="shape"/>
<feColorMatrix in="SourceAlpha" type="matrix" values="0 0 0 0 0 0 0 0 0 0 0 0 0 0 0 0 0 0 127 0" result="hardAlpha"/>
<feOffset dy="4"/>
<feGaussianBlur stdDeviation="2"/>
<feComposite in2="hardAlpha" operator="arithmetic" k2="-1" k3="1"/>
<feColorMatrix type="matrix" values="0 0 0 0 0 0 0 0 0 0 0 0 0 0 0 0 0 0 0.25 0"/>
<feBlend mode="normal" in2="shape" result="effect1_innerShadow_56_404"/>
</filter>
</defs>
</svg>
