<svg width="514" height="123" viewBox="0 0 514 123" fill="none" xmlns="http://www.w3.org/2000/svg">
<g filter="url(#filter0_i_669_412)">
<path d="M94.9394 45.3961C94.9561 48.8027 94.5791 52.0988 93.8085 55.2846C93.0377 58.4329 91.9104 61.3958 90.4265 64.1733C88.9801 66.9505 87.1957 69.5048 85.0732 71.8362C82.988 74.1299 80.6205 76.1068 77.9707 77.7669C75.3584 79.4268 72.5009 80.7323 69.3984 81.6833C66.2958 82.5969 63.0037 83.0622 59.5223 83.0792C56.1532 83.0956 52.9317 82.6808 49.8579 81.8348C46.8215 80.9886 43.9707 79.8046 41.3053 78.2827C38.6398 76.7235 36.2162 74.8635 34.0344 72.7029C31.8898 70.5047 30.0437 68.0804 28.4959 65.4301C26.9853 62.7421 25.7921 59.8654 24.9161 56.8C24.0776 53.7344 23.6502 50.5357 23.6339 47.2041C23.618 43.9473 23.9956 40.7634 24.7665 37.6525C25.5373 34.5042 26.6459 31.5414 28.0923 28.7641C29.5762 25.9867 31.3606 23.4323 33.4456 21.1012C35.5306 18.77 37.8605 16.7559 40.4353 15.0587C43.0475 13.3614 45.8674 12.0374 48.895 11.0867C51.9226 10.136 55.121 9.6525 58.4901 9.63606C63.9181 9.60957 68.8635 10.4277 73.3265 12.0905C77.8268 13.7532 81.6569 16.1491 84.8168 19.2782C88.0138 22.3698 90.4843 26.1387 92.228 30.585C94.0089 34.9936 94.9128 39.9307 94.9394 45.3961ZM70.0152 46.9777C70.0074 45.368 69.7565 43.8157 69.2625 42.3207C68.8058 40.7881 68.1254 39.4437 67.2213 38.2876C66.317 37.0941 65.1894 36.145 63.8382 35.4403C62.5244 34.6981 61.0065 34.3311 59.2845 34.3395C57.5251 34.3481 55.9544 34.674 54.5724 35.3171C53.1904 35.9602 51.9968 36.8458 50.9916 37.9738C50.0236 39.0641 49.2812 40.3593 48.7644 41.8592C48.2474 43.3217 47.993 44.8765 48.001 46.5236C48.0087 48.0959 48.241 49.667 48.6979 51.2371C49.1547 52.8071 49.8355 54.2263 50.7401 55.4947C51.6448 56.7631 52.7541 57.7872 54.0682 58.5669C55.4196 59.3465 56.9751 59.7319 58.7345 59.7234C60.4939 59.7148 62.0645 59.3702 63.4463 58.6896C64.8654 57.9714 66.0587 57.0297 67.0263 55.8645C67.9938 54.6618 68.7358 53.2918 69.2524 51.7545C69.769 50.2171 70.0233 48.6248 70.0152 46.9777ZM151.793 4.91314C151.586 8.43307 151.397 11.9155 151.227 15.3604C151.056 18.8052 150.83 22.2878 150.548 25.8081L126.745 27.1597L126.78 34.2348L147.444 34.1339L146.406 51.5464L126.755 52.2038L127.019 83.199L98.6088 83.8992L100.022 5.16577L151.793 4.91314ZM216.536 39.0752C216.552 42.332 216.343 45.5899 215.91 48.8488C209.511 49.2919 203.15 49.9967 196.828 50.9635C190.506 51.8928 184.184 52.8221 177.862 53.7514C178.849 56.4419 180.375 58.587 182.442 60.1866C184.546 61.7861 187.039 62.5788 189.922 62.5647C191.419 62.5574 193.046 62.2687 194.803 61.6986C196.597 61.1283 198.372 60.4271 200.127 59.5949C201.882 58.7254 203.562 57.8 205.167 56.8188C206.772 55.8377 208.153 54.9512 209.31 54.1594L206.739 79.6654C205.284 80.7956 203.698 81.7579 201.98 82.5525C200.299 83.3468 198.543 83.9918 196.711 84.4874C194.879 84.983 193.028 85.3477 191.157 85.5814C189.287 85.8151 187.453 85.9364 185.656 85.9452C181.95 85.9632 178.56 85.4744 175.485 84.4787C172.411 83.4829 169.615 82.0927 167.098 80.3081C164.618 78.4859 162.437 76.344 160.553 73.8824C158.669 71.4209 157.102 68.7332 155.853 65.8193C154.603 62.9055 153.652 59.8217 153 56.568C152.348 53.3143 152.013 50.0217 151.997 46.69C151.98 43.2086 152.281 39.7256 152.901 36.2411C153.52 32.7566 154.458 29.4016 155.716 26.176C157.01 22.9502 158.624 19.9663 160.557 17.224C162.528 14.4442 164.818 12.0184 167.428 9.94677C170.039 7.87509 172.988 6.25097 176.277 5.07443C179.603 3.89771 183.269 3.29957 187.274 3.28003C190.606 3.26377 193.64 3.7169 196.378 4.63943C199.152 5.52434 201.61 6.78514 203.752 8.42185C205.931 10.0209 207.812 11.9397 209.395 14.1781C211.016 16.4163 212.338 18.8806 213.362 21.5709C214.423 24.2236 215.205 27.0462 215.706 30.0386C216.244 32.9933 216.521 36.0055 216.536 39.0752ZM194.061 36.2649C194.056 35.2167 193.938 34.1504 193.709 33.0659C193.478 31.9439 193.099 30.935 192.571 30.0392C192.08 29.1431 191.421 28.4163 190.595 27.8588C189.768 27.2639 188.737 26.9695 187.502 26.9755C186.005 26.9828 184.678 27.4011 183.521 28.2303C182.402 29.0219 181.434 30.0374 180.616 31.2767C179.798 32.4786 179.131 33.7921 178.614 35.2172C178.097 36.6423 177.71 37.9544 177.454 39.1536L194.067 37.5002L194.061 36.2649ZM286.009 29.9763C286.023 32.8962 285.774 35.5553 285.262 37.9537C284.787 40.3144 284.011 42.4894 282.935 44.4788C281.859 46.4681 280.464 48.3092 278.751 50.0022C277.037 51.6951 274.967 53.3149 272.541 54.8616L286.022 78.6047L260.778 83.6694L252.014 59.791L245.052 60.0495L244.155 83.4136L220.01 83.5314C220.155 74.9954 220.282 66.497 220.391 58.0361C220.537 49.575 220.701 41.0763 220.884 32.5402C220.938 28.2349 220.992 23.967 221.046 19.7365C221.1 15.5061 221.229 11.2378 221.433 6.93174C224.049 5.94566 226.628 5.12822 229.17 4.47941C231.713 3.8306 234.256 3.33153 236.8 2.9822C239.381 2.59525 241.981 2.33923 244.601 2.21414C247.258 2.05144 249.972 1.96332 252.742 1.94981C257.01 1.92898 261.13 2.50784 265.104 3.68638C269.115 4.8273 272.661 6.56946 275.743 8.91285C278.824 11.2562 281.29 14.1829 283.141 17.6928C285.03 21.2025 285.986 25.297 286.009 29.9763ZM260.862 31.8959C260.854 30.3236 260.623 28.8835 260.167 27.5755C259.749 26.2673 259.107 25.1474 258.241 24.2157C257.413 23.2464 256.361 22.5029 255.086 21.985C253.848 21.4295 252.387 21.1559 250.702 21.1641C249.953 21.1677 249.224 21.2275 248.513 21.3432C247.802 21.4216 247.11 21.556 246.437 21.7464L245.641 42.6392L246.988 42.6327C248.598 42.6248 250.225 42.411 251.87 41.9912C253.553 41.5712 255.047 40.9275 256.353 40.0601C257.697 39.1925 258.777 38.0829 259.594 36.7312C260.448 35.3794 260.871 33.7676 260.862 31.8959ZM349.282 4.62329L348.837 28.4343L332.107 29.1898L330.34 81.3084L306.65 82.6594L304.262 30.5611L287.533 31.5411L288.077 5.03426L349.282 4.62329ZM416.353 78.6426L388.519 82.3722L385.088 69.6984L372.286 69.7608L369.54 82.4648L340.889 79.797L362.872 4.89389L394.085 3.1693L416.353 78.6426ZM382.983 52.5258L378.62 33.0059L374.56 52.5669L382.983 52.5258ZM474.971 54.4354C474.996 59.5639 474.119 64.0043 472.341 67.7565C470.599 71.4711 468.181 74.5526 465.086 77.001C462.028 79.4117 458.424 81.2075 454.275 82.3883C450.162 83.5314 445.729 84.1145 440.975 84.1377C439.141 84.1467 437.118 83.9132 434.907 83.4374C432.733 82.9613 430.522 82.3731 428.272 81.6728C426.023 80.9351 423.848 80.1596 421.747 79.3463C419.684 78.4953 417.846 77.6994 416.233 76.9586L418.596 54.9351C421.787 56.8287 425.313 58.2715 429.174 59.2634C433.072 60.2177 436.892 60.6857 440.636 60.6674C441.347 60.664 442.208 60.641 443.218 60.5987C444.229 60.5189 445.183 60.3458 446.08 60.0793C447.014 59.7753 447.798 59.341 448.432 58.7763C449.065 58.2117 449.38 57.4053 449.375 56.3572C449.371 55.6459 449.144 55.0481 448.692 54.5636C448.24 54.0417 447.658 53.6328 446.945 53.3368C446.232 53.0033 445.426 52.7639 444.527 52.6186C443.628 52.4358 442.747 52.3091 441.886 52.2384C441.025 52.1677 440.22 52.1342 439.471 52.1379C438.722 52.1415 438.123 52.1444 437.674 52.1466C434.455 52.1623 431.514 51.6713 428.851 50.6736C426.226 49.6756 423.954 48.2642 422.036 46.4392C420.155 44.5766 418.684 42.3377 417.623 39.7224C416.562 37.0696 416.024 34.1336 416.008 30.9142C415.986 26.4969 416.847 22.5433 418.589 19.0533C420.369 15.5257 422.731 12.5381 425.677 10.0904C428.66 7.60513 432.076 5.69798 435.925 4.36896C439.774 3.03993 443.758 2.36538 447.876 2.34528C449.71 2.33633 451.601 2.40198 453.548 2.54222C455.495 2.64502 457.424 2.86022 459.335 3.18781C461.283 3.51523 463.176 3.9365 465.013 4.45163C466.849 4.96676 468.593 5.61337 470.244 6.39145L468.222 29.1994C465.672 28.3509 462.992 27.6527 460.182 27.1049C457.409 26.5194 454.693 26.2332 452.035 26.2462C451.549 26.2485 450.912 26.2704 450.126 26.3116C449.378 26.3153 448.573 26.3754 447.713 26.4919C446.89 26.5708 446.048 26.7059 445.188 26.8973C444.328 27.0886 443.562 27.3544 442.889 27.6946C442.217 27.9974 441.676 28.4118 441.267 28.9379C440.858 29.464 440.674 30.0826 440.715 30.7937C440.756 31.617 441.059 32.252 441.622 32.6984C442.223 33.1447 442.974 33.478 443.873 33.6982C444.81 33.8808 445.821 33.9695 446.907 33.9642C448.03 33.9587 449.134 33.9346 450.22 33.8918C451.305 33.8117 452.315 33.7506 453.251 33.7086C454.186 33.6292 454.954 33.6067 455.553 33.6412C458.549 33.8138 461.247 34.437 463.648 35.5109C466.049 36.5848 468.078 38.0162 469.734 39.805C471.427 41.5936 472.71 43.7399 473.583 46.2438C474.494 48.7101 474.956 51.4406 474.971 54.4354Z" fill="#E79D0F"/>
</g>
<defs>
<filter id="filter0_i_669_412" x="23.4186" y="0.866699" width="451.699" height="89.8682" filterUnits="userSpaceOnUse" color-interpolation-filters="sRGB">
<feFlood flood-opacity="0" result="BackgroundImageFix"/>
<feBlend mode="normal" in="SourceGraphic" in2="BackgroundImageFix" result="shape"/>
<feColorMatrix in="SourceAlpha" type="matrix" values="0 0 0 0 0 0 0 0 0 0 0 0 0 0 0 0 0 0 127 0" result="hardAlpha"/>
<feOffset dy="4"/>
<feGaussianBlur stdDeviation="2"/>
<feComposite in2="hardAlpha" operator="arithmetic" k2="-1" k3="1"/>
<feColorMatrix type="matrix" values="0 0 0 0 0 0 0 0 0 0 0 0 0 0 0 0 0 0 0.25 0"/>
<feBlend mode="normal" in2="shape" result="effect1_innerShadow_669_412"/>
</filter>
</defs>
</svg>
