<svg width="93" height="93" viewBox="0 0 93 93" fill="none" xmlns="http://www.w3.org/2000/svg">
<path d="M92.179 84.53V7.649C92.179 3.42457 88.7544 0 84.53 0L7.64896 0C3.42453 0 -4.57764e-05 3.42457 -4.57764e-05 7.649V84.53C-4.57764e-05 88.7544 3.42453 92.179 7.64896 92.179H84.53C88.7544 92.179 92.179 88.7544 92.179 84.53Z" fill="url(#paint0_linear_118_416)"/>
<path d="M21.187 72.17L25.03 57.834C21.9353 52.2443 20.9605 45.7259 22.2846 39.4754C23.6087 33.2249 27.1428 27.6617 32.2382 23.8069C37.3336 19.9522 43.6484 18.0646 50.0234 18.4906C56.3984 18.9167 62.4059 21.6278 66.943 26.1263C71.4802 30.6248 74.2426 36.6088 74.7231 42.9799C75.2037 49.3511 73.3702 55.6818 69.5592 60.81C65.7482 65.9382 60.2154 69.5197 53.9764 70.8973C47.7375 72.2748 41.211 71.3558 35.595 68.309L21.187 72.17ZM36.314 62.937L37.222 63.479C41.7411 66.1724 47.0896 67.1189 52.2586 66.1401C57.4276 65.1613 62.0597 62.3249 65.2813 58.1658C68.5028 54.0067 70.0911 48.8125 69.7464 43.5629C69.4017 38.3134 67.148 33.3714 63.4103 29.6692C59.6726 25.9671 54.7094 23.7606 49.4568 23.466C44.2042 23.1715 39.0254 24.8092 34.8972 28.0703C30.7691 31.3314 27.9769 35.9904 27.0475 41.1685C26.1181 46.3466 27.1157 51.6858 29.852 56.179L30.41 57.093L28.267 65.093L36.314 62.937Z" fill="white"/>
<path fill-rule="evenodd" clip-rule="evenodd" d="M58.033 48.727C56.942 48.074 55.524 47.346 54.241 47.873C53.254 48.273 52.6269 49.815 51.9869 50.603C51.8509 50.7883 51.6518 50.9175 51.4271 50.9663C51.2024 51.0151 50.9677 50.9802 50.767 50.868C47.1648 49.456 44.1448 46.8694 42.1959 43.527C42.0315 43.3157 41.954 43.0496 41.9793 42.783C42.0046 42.5165 42.1307 42.2696 42.332 42.093C43.0616 41.4003 43.5973 40.5288 43.886 39.565C43.9414 38.5225 43.7008 37.4856 43.192 36.574C42.675 35.461 42.098 33.874 40.982 33.245C40.4459 32.9973 39.8491 32.9117 39.2649 32.9986C38.6808 33.0854 38.1348 33.341 37.6939 33.734C36.9378 34.3861 36.3377 35.1995 35.9377 36.1144C35.5377 37.0292 35.3482 38.0222 35.383 39.02C35.3886 39.5851 35.4584 40.1477 35.591 40.697C35.9438 42.0053 36.4855 43.2551 37.199 44.407C37.714 45.2867 38.2748 46.1389 38.879 46.96C40.8481 49.6639 43.3219 51.9611 46.164 53.725C47.5917 54.6164 49.1166 55.3418 50.7089 55.887C52.4899 56.473 54.076 57.087 55.998 56.722C57.0268 56.5615 58.001 56.1526 58.8363 55.531C59.6716 54.9093 60.3428 54.0934 60.792 53.154C61.0489 52.5832 61.1269 51.948 61.016 51.332C60.744 50.079 59.045 49.332 58.033 48.727Z" fill="white"/>
<defs>
<linearGradient id="paint0_linear_118_416" x1="726.555" y1="470.666" x2="648.571" y2="548.649" gradientUnits="userSpaceOnUse">
<stop stop-color="#60FC7C"/>
<stop offset="1" stop-color="#4AB161"/>
</linearGradient>
</defs>
</svg>
