<svg width="518" height="95" viewBox="0 0 518 95" fill="none" xmlns="http://www.w3.org/2000/svg">
<g filter="url(#filter0_i_56_404)">
<path d="M43.8125 78.9062C39.1875 78.9062 34.9792 77.9271 31.1875 75.9688C27.3542 74.0312 24.2917 71.1146 22 67.2188C19.7292 63.3229 18.5938 58.5312 18.5938 52.8438C18.5938 48.0938 19.4583 43.7708 21.1875 39.875C22.9167 36.0208 25.4479 32.9688 28.7812 30.7188C32.1354 28.4479 36.1875 27.3125 40.9375 27.3125C43.3542 27.3125 45.5208 27.8854 47.4375 29.0312C49.375 30.1562 50.7708 31.5833 51.625 33.3125L52.9062 28.2812H62.625V48.6875H52.6562V47.6562C52.6562 45.0104 52.0417 42.8438 50.8125 41.1562C49.6042 39.4688 47.8021 38.625 45.4062 38.625C43.8021 38.625 42.3229 39.2396 40.9688 40.4688C39.6354 41.7188 38.5833 43.3542 37.8125 45.375C37.0417 47.375 36.6562 49.4375 36.6562 51.5625C36.6562 55.75 37.6979 59.0312 39.7812 61.4062C41.8646 63.7604 44.7188 64.9375 48.3438 64.9375C50.9062 64.9375 53.2812 64.5104 55.4688 63.6562C57.6771 62.8021 59.4896 61.8854 60.9062 60.9062L61.5938 61.5V74.8125C58.9479 76.3333 56.1562 77.3958 53.2188 78C50.2812 78.6042 47.1458 78.9062 43.8125 78.9062ZM87.875 67V78H65.9375V67H70.875L79.4375 39.2812H72.9062V28.2812H103.875L114.969 67H119.875V78H91.9062V67H95.9688L94.625 61.6875H83.3438L81.9375 67H87.875ZM93.125 54.125L89.5 38.9062L84.9375 54.125H93.125ZM155.281 66.75V78H127.438V66.75H132.562V39.2812H128.156L126.812 47.8438H118.031V28.2812H164.812V47.8438H156.062L154.719 39.2812H150.156V66.75H155.281ZM212.156 56.8125V78H170.188V67H176.219V39.2812H170.188V28.2812H212.156V48.0625H204.156L201.156 39.2812H192.219V47.4062H200.219V55.5938H192.219V67H201.156L204.156 56.8125H212.156ZM242.25 78.9062C237.146 78.9062 232.51 77.9583 228.344 76.0625C224.135 74.1875 220.771 71.2708 218.25 67.3125C215.729 63.3542 214.469 58.3646 214.469 52.3438C214.469 47.5521 215.458 43.2604 217.438 39.4688C219.417 35.6771 222.292 32.7083 226.062 30.5625C229.854 28.3958 234.312 27.3125 239.438 27.3125C241.604 27.3125 243.708 27.6771 245.75 28.4062C247.812 29.1354 249.438 30.1979 250.625 31.5938L251.656 28.2812H262.469V46.625H252.812C252.167 44 250.927 42.0104 249.094 40.6562C247.26 39.3021 245.344 38.625 243.344 38.625C240.01 38.625 237.375 39.8438 235.438 42.2812C233.5 44.7188 232.531 48.0729 232.531 52.3438C232.531 56.6562 233.49 60.0417 235.406 62.5C237.323 64.9375 240.031 66.1562 243.531 66.1562C244.365 66.1562 245.26 66.0729 246.219 65.9062C246.927 65.7812 247.594 65.6146 248.219 65.4062C248.844 65.1771 249.26 65.0417 249.469 65V60.5938H243.469V51.3125H263.5V73.6562C260.292 75.3646 256.854 76.6667 253.188 77.5625C249.521 78.4583 245.875 78.9062 242.25 78.9062ZM293.312 78.9062C288.125 78.9062 283.635 77.7917 279.844 75.5625C276.073 73.3333 273.198 70.2708 271.219 66.375C269.26 62.4792 268.281 58.0312 268.281 53.0312C268.281 47.8438 269.26 43.3229 271.219 39.4688C273.177 35.5938 276.031 32.6042 279.781 30.5C283.552 28.375 288.062 27.3125 293.312 27.3125C298.542 27.3125 303.042 28.3646 306.812 30.4688C310.562 32.5938 313.417 35.5938 315.375 39.4688C317.354 43.3438 318.344 47.8646 318.344 53.0312C318.344 58.0312 317.365 62.4792 315.406 66.375C313.448 70.2708 310.573 73.3333 306.781 75.5625C303.01 77.7917 298.521 78.9062 293.312 78.9062ZM293.312 67.8125C295.562 67.8125 297.281 66.4479 298.469 63.7188C299.677 60.9896 300.281 57.3438 300.281 52.7812C300.281 48.3438 299.698 44.8333 298.531 42.25C297.385 39.6667 295.646 38.375 293.312 38.375C290.958 38.375 289.208 39.6667 288.062 42.25C286.917 44.8333 286.344 48.3438 286.344 52.7812C286.344 57.3438 286.938 60.9896 288.125 63.7188C289.312 66.4479 291.042 67.8125 293.312 67.8125ZM351.938 78H325.969V67H330.969V39.2812H325.969V28.2812H357.906C363.073 28.2812 366.865 29.3229 369.281 31.4062C371.719 33.4896 372.938 36.9479 372.938 41.7812C372.938 45.0104 372.031 47.5 370.219 49.25C368.406 51 365.833 52.1771 362.5 52.7812C365.5 53.2604 367.656 54.3854 368.969 56.1562C370.302 57.9271 370.969 60.1354 370.969 62.7812V66.8125H377.938V78H367.875C365.729 78 364 77.9271 362.688 77.7812C361.375 77.6146 360.333 77.2396 359.562 76.6562C358.812 76.0521 358.188 75.1146 357.688 73.8438C356.938 71.9271 356.562 68.7292 356.562 64.25C356.562 61.6875 356.146 59.7917 355.312 58.5625C354.479 57.3125 352.958 56.6875 350.75 56.6875H346.969V67H351.938V78ZM346.969 39.2812V49.5938H351.25C353.521 49.5938 355.208 49.1875 356.312 48.375C357.417 47.5625 357.969 46.1354 357.969 44.0938C357.969 42.5938 357.396 41.4167 356.25 40.5625C355.125 39.7083 353.667 39.2812 351.875 39.2812H346.969ZM407.562 67V78H381.594V67H386.594V39.2812H381.594V28.2812H407.562V39.2812H402.594V67H407.562ZM432.625 67V78H410.688V67H415.625L424.188 39.2812H417.656V28.2812H448.625L459.719 67H464.625V78H436.656V67H440.719L439.375 61.6875H428.094L426.688 67H432.625ZM437.875 54.125L434.25 38.9062L429.688 54.125H437.875ZM490.469 78.9062C488.76 78.9062 487.302 78.7812 486.094 78.5312C484.885 78.2812 483.76 77.875 482.719 77.3125C481.698 76.75 480.604 76.0208 479.438 75.125L478.344 78H468.25V62.7812H478.281C478.927 64.5312 479.917 65.7708 481.25 66.5C482.604 67.2083 484.26 67.5625 486.219 67.5625C487.427 67.5625 488.458 67.3229 489.312 66.8438C490.167 66.3438 490.594 65.6875 490.594 64.875C490.594 63.8542 490.156 63.0938 489.281 62.5938C488.406 62.0729 487.177 61.5938 485.594 61.1562C483.573 60.6146 481.74 60.0417 480.094 59.4375C478.469 58.8333 477.01 58.2083 475.719 57.5625C473.135 56.2708 471.052 54.4375 469.469 52.0625C467.885 49.6875 467.094 46.5312 467.094 42.5938C467.094 39.5729 467.75 36.9062 469.062 34.5938C470.354 32.3021 472.208 30.5208 474.625 29.25C477.062 27.9583 479.927 27.3125 483.219 27.3125C487.24 27.3125 490.417 28.5938 492.75 31.1562L494.344 28.2188H503.312V43.125H493.719C492.823 41.25 491.833 39.9479 490.75 39.2188C489.667 38.4896 488.177 38.125 486.281 38.125C484.844 38.125 483.729 38.3854 482.938 38.9062C482.146 39.4062 481.75 40.1042 481.75 41C481.75 42 482.323 42.7604 483.469 43.2812C484.594 43.8229 486.198 44.3229 488.281 44.7812C491.927 45.6146 495.073 46.6667 497.719 47.9375C500.302 49.2083 502.365 51.0104 503.906 53.3438C505.469 55.6562 506.25 58.6458 506.25 62.3125C506.25 65.4167 505.604 68.2292 504.312 70.75C503 73.2708 501.135 75.2604 498.719 76.7188C496.323 78.1771 493.573 78.9062 490.469 78.9062Z" fill="#E79D0F"/>
</g>
<path d="M31.1875 75.9688L32.5642 73.3033L32.5525 73.2972L32.5408 73.2913L31.1875 75.9688ZM22 67.2188L19.4081 68.7295L19.4142 68.7398L22 67.2188ZM21.1875 39.875L18.4503 38.647L18.4455 38.6579L21.1875 39.875ZM28.7812 30.7188L30.4597 33.2053L30.4631 33.203L28.7812 30.7188ZM47.4375 29.0312L45.8981 31.6062L45.9146 31.616L45.9311 31.6256L47.4375 29.0312ZM51.625 33.3125L48.9353 34.6412L52.5295 41.9172L54.5322 34.0528L51.625 33.3125ZM52.9062 28.2812V25.2812H50.5745L49.999 27.5409L52.9062 28.2812ZM62.625 28.2812H65.625V25.2812H62.625V28.2812ZM62.625 48.6875V51.6875H65.625V48.6875H62.625ZM52.6562 48.6875H49.6562V51.6875H52.6562V48.6875ZM50.8125 41.1562L48.3733 42.9028L48.3804 42.9127L48.3876 42.9225L50.8125 41.1562ZM40.9688 40.4688L38.9524 38.2474L38.9345 38.2636L38.9169 38.2801L40.9688 40.4688ZM37.8125 45.375L40.6118 46.4539L40.6155 46.4442L37.8125 45.375ZM39.7812 61.4062L37.526 63.3846L37.5346 63.3944L39.7812 61.4062ZM55.4688 63.6562L54.3865 60.8582L54.3776 60.8617L55.4688 63.6562ZM60.9062 60.9062L62.8671 58.6358L61.1102 57.1184L59.2005 58.4384L60.9062 60.9062ZM61.5938 61.5H64.5938V60.127L63.5546 59.2295L61.5938 61.5ZM61.5938 74.8125L63.0888 77.4134L64.5938 76.5484V74.8125H61.5938ZM43.8125 75.9062C39.6255 75.9062 35.8952 75.0237 32.5642 73.3033L29.8108 78.6342C34.0631 80.8305 38.7495 81.9062 43.8125 81.9062V75.9062ZM32.5408 73.2913C29.2481 71.6271 26.602 69.1251 24.5858 65.6977L19.4142 68.7398C21.9814 73.104 25.4602 76.4354 29.8342 78.6462L32.5408 73.2913ZM24.5918 65.708C22.6497 62.376 21.5938 58.1372 21.5938 52.8438H15.5938C15.5938 58.9253 16.8087 64.2698 19.4082 68.7295L24.5918 65.708ZM21.5938 52.8438C21.5938 48.4648 22.389 44.563 23.9295 41.0921L18.4455 38.6579C16.5277 42.9787 15.5938 47.7227 15.5938 52.8438H21.5938ZM23.9246 41.103C25.4371 37.7319 27.6134 35.1265 30.4597 33.2053L27.1028 28.2322C23.2824 30.811 20.3962 34.3098 18.4504 38.647L23.9246 41.103ZM30.4631 33.203C33.2397 31.3231 36.6811 30.3125 40.9375 30.3125V24.3125C35.6939 24.3125 31.0311 25.5727 27.0994 28.2345L30.4631 33.203ZM40.9375 30.3125C42.8582 30.3125 44.4848 30.7613 45.8981 31.6062L48.9769 26.4563C46.5568 25.0095 43.8501 24.3125 40.9375 24.3125V30.3125ZM45.9311 31.6256C47.4428 32.5034 48.3826 33.5224 48.9353 34.6412L54.3147 31.9838C53.159 29.6442 51.3072 27.8091 48.9439 26.4369L45.9311 31.6256ZM54.5322 34.0528L55.8135 29.0216L49.999 27.5409L48.7178 32.5722L54.5322 34.0528ZM52.9062 31.2812H62.625V25.2812H52.9062V31.2812ZM59.625 28.2812V48.6875H65.625V28.2812H59.625ZM62.625 45.6875H52.6562V51.6875H62.625V45.6875ZM55.6562 48.6875V47.6562H49.6562V48.6875H55.6562ZM55.6562 47.6562C55.6562 44.5465 54.9297 41.7133 53.2374 39.39L48.3876 42.9225C49.1536 43.9742 49.6562 45.4743 49.6562 47.6562H55.6562ZM53.2517 39.4097C51.3871 36.8058 48.5983 35.625 45.4062 35.625V41.625C47.0058 41.625 47.8212 42.1317 48.3733 42.9028L53.2517 39.4097ZM45.4062 35.625C42.9518 35.625 40.7758 36.5924 38.9524 38.2474L42.9851 42.6901C43.8701 41.8868 44.6524 41.625 45.4062 41.625V35.625ZM38.9169 38.2801C37.196 39.8935 35.913 41.9371 35.0095 44.3058L40.6155 46.4442C41.2536 44.7713 42.0749 43.544 43.0206 42.6574L38.9169 38.2801ZM35.0132 44.2961C34.1109 46.6373 33.6562 49.0653 33.6562 51.5625H39.6562C39.6562 49.8097 39.9724 48.1127 40.6118 46.4539L35.0132 44.2961ZM33.6562 51.5625C33.6562 56.2374 34.8247 60.3051 37.526 63.3846L42.0365 59.4279C40.5712 57.7574 39.6562 55.2626 39.6562 51.5625H33.6562ZM37.5346 63.3944C40.2772 66.4934 44.005 67.9375 48.3438 67.9375V61.9375C45.4325 61.9375 43.452 61.0274 42.0279 59.4181L37.5346 63.3944ZM48.3438 67.9375C51.2454 67.9375 53.9942 67.4526 56.5599 66.4508L54.3776 60.8617C52.5683 61.5682 50.5671 61.9375 48.3438 61.9375V67.9375ZM56.551 66.4542C58.9037 65.5442 60.9442 64.5269 62.612 63.3741L59.2005 58.4384C58.035 59.2439 56.4505 60.0599 54.3865 60.8583L56.551 66.4542ZM58.9454 63.1767L59.6329 63.7705L63.5546 59.2295L62.8671 58.6358L58.9454 63.1767ZM58.5938 61.5V74.8125H64.5938V61.5H58.5938ZM60.0987 72.2116C57.725 73.576 55.2334 74.5229 52.6144 75.0615L53.8231 80.9385C57.0791 80.2688 60.1709 79.0907 63.0888 77.4134L60.0987 72.2116ZM52.6144 75.0615C49.8963 75.6205 46.965 75.9062 43.8125 75.9062V81.9062C47.3267 81.9062 50.6662 81.5878 53.8231 80.9385L52.6144 75.0615ZM87.875 67H90.875V64H87.875V67ZM87.875 78V81H90.875V78H87.875ZM65.9375 78H62.9375V81H65.9375V78ZM65.9375 67V64H62.9375V67H65.9375ZM70.875 67V70H73.0882L73.7414 67.8854L70.875 67ZM79.4375 39.2812L82.3039 40.1667L83.5041 36.2812H79.4375V39.2812ZM72.9062 39.2812H69.9062V42.2812H72.9062V39.2812ZM72.9062 28.2812V25.2812H69.9062V28.2812H72.9062ZM103.875 28.2812L106.759 27.4549L106.136 25.2812H103.875V28.2812ZM114.969 67L112.085 67.8263L112.708 70H114.969V67ZM119.875 67H122.875V64H119.875V67ZM119.875 78V81H122.875V78H119.875ZM91.9062 78H88.9062V81H91.9062V78ZM91.9062 67V64H88.9062V67H91.9062ZM95.9688 67V70H99.8221L98.8772 66.2643L95.9688 67ZM94.625 61.6875L97.5334 60.9518L96.9607 58.6875H94.625V61.6875ZM83.3438 61.6875V58.6875H81.0345L80.4436 60.9198L83.3438 61.6875ZM81.9375 67L79.0374 66.2323L78.0401 70H81.9375V67ZM93.125 54.125V57.125H96.9235L96.0434 53.4299L93.125 54.125ZM89.5 38.9062L92.4184 38.2111L89.8319 27.3524L86.6264 38.0447L89.5 38.9062ZM84.9375 54.125L82.0639 53.2635L80.9062 57.125H84.9375V54.125ZM84.875 67V78H90.875V67H84.875ZM87.875 75H65.9375V81H87.875V75ZM68.9375 78V67H62.9375V78H68.9375ZM65.9375 70H70.875V64H65.9375V70ZM73.7414 67.8854L82.3039 40.1667L76.5711 38.3958L68.0086 66.1146L73.7414 67.8854ZM79.4375 36.2812H72.9062V42.2812H79.4375V36.2812ZM75.9062 39.2812V28.2812H69.9062V39.2812H75.9062ZM72.9062 31.2812H103.875V25.2812H72.9062V31.2812ZM100.991 29.1076L112.085 67.8263L117.853 66.1737L106.759 27.4549L100.991 29.1076ZM114.969 70H119.875V64H114.969V70ZM116.875 67V78H122.875V67H116.875ZM119.875 75H91.9062V81H119.875V75ZM94.9062 78V67H88.9062V78H94.9062ZM91.9062 70H95.9688V64H91.9062V70ZM98.8772 66.2643L97.5334 60.9518L91.7166 62.4232L93.0603 67.7357L98.8772 66.2643ZM94.625 58.6875H83.3438V64.6875H94.625V58.6875ZM80.4436 60.9198L79.0374 66.2323L84.8376 67.7677L86.2439 62.4552L80.4436 60.9198ZM81.9375 70H87.875V64H81.9375V70ZM96.0434 53.4299L92.4184 38.2111L86.5816 39.6014L90.2066 54.8201L96.0434 53.4299ZM86.6264 38.0447L82.0639 53.2635L87.8111 54.9865L92.3736 39.7678L86.6264 38.0447ZM84.9375 57.125H93.125V51.125H84.9375V57.125ZM155.281 66.75H158.281V63.75H155.281V66.75ZM155.281 78V81H158.281V78H155.281ZM127.438 78H124.438V81H127.438V78ZM127.438 66.75V63.75H124.438V66.75H127.438ZM132.562 66.75V69.75H135.562V66.75H132.562ZM132.562 39.2812H135.562V36.2812H132.562V39.2812ZM128.156 39.2812V36.2812H125.59L125.193 38.8161L128.156 39.2812ZM126.812 47.8438V50.8438H129.378L129.776 48.3089L126.812 47.8438ZM118.031 47.8438H115.031V50.8438H118.031V47.8438ZM118.031 28.2812V25.2812H115.031V28.2812H118.031ZM164.812 28.2812H167.812V25.2812H164.812V28.2812ZM164.812 47.8438V50.8438H167.812V47.8438H164.812ZM156.062 47.8438L153.099 48.3089L153.497 50.8438H156.062V47.8438ZM154.719 39.2812L157.682 38.8161L157.285 36.2812H154.719V39.2812ZM150.156 39.2812V36.2812H147.156V39.2812H150.156ZM150.156 66.75H147.156V69.75H150.156V66.75ZM152.281 66.75V78H158.281V66.75H152.281ZM155.281 75H127.438V81H155.281V75ZM130.438 78V66.75H124.438V78H130.438ZM127.438 69.75H132.562V63.75H127.438V69.75ZM135.562 66.75V39.2812H129.562V66.75H135.562ZM132.562 36.2812H128.156V42.2812H132.562V36.2812ZM125.193 38.8161L123.849 47.3786L129.776 48.3089L131.12 39.7464L125.193 38.8161ZM126.812 44.8438H118.031V50.8438H126.812V44.8438ZM121.031 47.8438V28.2812H115.031V47.8438H121.031ZM118.031 31.2812H164.812V25.2812H118.031V31.2812ZM161.812 28.2812V47.8438H167.812V28.2812H161.812ZM164.812 44.8438H156.062V50.8438H164.812V44.8438ZM159.026 47.3786L157.682 38.8161L151.755 39.7464L153.099 48.3089L159.026 47.3786ZM154.719 36.2812H150.156V42.2812H154.719V36.2812ZM147.156 39.2812V66.75H153.156V39.2812H147.156ZM150.156 69.75H155.281V63.75H150.156V69.75ZM212.156 56.8125H215.156V53.8125H212.156V56.8125ZM212.156 78V81H215.156V78H212.156ZM170.188 78H167.188V81H170.188V78ZM170.188 67V64H167.188V67H170.188ZM176.219 67V70H179.219V67H176.219ZM176.219 39.2812H179.219V36.2812H176.219V39.2812ZM170.188 39.2812H167.188V42.2812H170.188V39.2812ZM170.188 28.2812V25.2812H167.188V28.2812H170.188ZM212.156 28.2812H215.156V25.2812H212.156V28.2812ZM212.156 48.0625V51.0625H215.156V48.0625H212.156ZM204.156 48.0625L201.317 49.0324L202.011 51.0625H204.156V48.0625ZM201.156 39.2812L203.995 38.3114L203.302 36.2812H201.156V39.2812ZM192.219 39.2812V36.2812H189.219V39.2812H192.219ZM192.219 47.4062H189.219V50.4062H192.219V47.4062ZM200.219 47.4062H203.219V44.4062H200.219V47.4062ZM200.219 55.5938V58.5938H203.219V55.5938H200.219ZM192.219 55.5938V52.5938H189.219V55.5938H192.219ZM192.219 67H189.219V70H192.219V67ZM201.156 67V70H203.4L204.034 67.8475L201.156 67ZM204.156 56.8125V53.8125H201.912L201.278 55.965L204.156 56.8125ZM209.156 56.8125V78H215.156V56.8125H209.156ZM212.156 75H170.188V81H212.156V75ZM173.188 78V67H167.188V78H173.188ZM170.188 70H176.219V64H170.188V70ZM179.219 67V39.2812H173.219V67H179.219ZM176.219 36.2812H170.188V42.2812H176.219V36.2812ZM173.188 39.2812V28.2812H167.188V39.2812H173.188ZM170.188 31.2812H212.156V25.2812H170.188V31.2812ZM209.156 28.2812V48.0625H215.156V28.2812H209.156ZM212.156 45.0625H204.156V51.0625H212.156V45.0625ZM206.995 47.0926L203.995 38.3114L198.317 40.2511L201.317 49.0324L206.995 47.0926ZM201.156 36.2812H192.219V42.2812H201.156V36.2812ZM189.219 39.2812V47.4062H195.219V39.2812H189.219ZM192.219 50.4062H200.219V44.4062H192.219V50.4062ZM197.219 47.4062V55.5938H203.219V47.4062H197.219ZM200.219 52.5938H192.219V58.5938H200.219V52.5938ZM189.219 55.5938V67H195.219V55.5938H189.219ZM192.219 70H201.156V64H192.219V70ZM204.034 67.8475L207.034 57.66L201.278 55.965L198.278 66.1525L204.034 67.8475ZM204.156 59.8125H212.156V53.8125H204.156V59.8125ZM228.344 76.0625L229.586 73.3319L229.575 73.327L229.565 73.3222L228.344 76.0625ZM218.25 67.3125L215.72 68.924L218.25 67.3125ZM217.438 39.4688L214.778 38.0806L217.438 39.4688ZM226.062 30.5625L227.546 33.1699L227.551 33.1672L226.062 30.5625ZM245.75 28.4062L244.741 31.2315L244.75 31.2347L245.75 28.4062ZM250.625 31.5938L248.34 33.5377L251.87 37.687L253.489 32.4855L250.625 31.5938ZM251.656 28.2812V25.2812H249.448L248.792 27.3895L251.656 28.2812ZM262.469 28.2812H265.469V25.2812H262.469V28.2812ZM262.469 46.625V49.625H265.469V46.625H262.469ZM252.812 46.625L249.899 47.3417L250.461 49.625H252.812V46.625ZM235.406 62.5L233.04 64.3446L233.048 64.3544L235.406 62.5ZM246.219 65.9062L246.733 68.8619L246.74 68.8606L246.219 65.9062ZM248.219 65.4062L249.167 68.2523L249.21 68.2382L249.252 68.2229L248.219 65.4062ZM249.469 65L250.057 67.9417L252.469 67.4594V65H249.469ZM249.469 60.5938H252.469V57.5938H249.469V60.5938ZM243.469 60.5938H240.469V63.5938H243.469V60.5938ZM243.469 51.3125V48.3125H240.469V51.3125H243.469ZM263.5 51.3125H266.5V48.3125H263.5V51.3125ZM263.5 73.6562L264.91 76.3043L266.5 75.4576V73.6562H263.5ZM242.25 75.9062C237.525 75.9062 233.32 75.0307 229.586 73.3319L227.101 78.7931C231.701 80.8859 236.767 81.9062 242.25 81.9062V75.9062ZM229.565 73.3222C225.905 71.6915 222.991 69.1725 220.78 65.701L215.72 68.924C218.55 73.3691 222.366 76.6835 227.123 78.8028L229.565 73.3222ZM220.78 65.701C218.642 62.3432 217.469 57.9534 217.469 52.3438H211.469C211.469 58.7758 212.816 64.3651 215.72 68.924L220.78 65.701ZM217.469 52.3438C217.469 47.9766 218.367 44.1707 220.097 40.8569L214.778 38.0806C212.549 42.3501 211.469 47.1276 211.469 52.3438H217.469ZM220.097 40.8569C221.805 37.5839 224.269 35.035 227.546 33.1699L224.579 27.9551C220.315 30.3816 217.028 33.7703 214.778 38.0806L220.097 40.8569ZM227.551 33.1672C230.816 31.3014 234.743 30.3125 239.438 30.3125V24.3125C233.882 24.3125 228.892 25.4903 224.574 27.9578L227.551 33.1672ZM239.438 30.3125C241.26 30.3125 243.023 30.6179 244.741 31.2315L246.759 25.581C244.394 24.7363 241.948 24.3125 239.438 24.3125V30.3125ZM244.75 31.2347C246.411 31.8218 247.556 32.6165 248.34 33.5377L252.91 29.6498C251.319 27.7793 249.214 26.4491 246.75 25.5778L244.75 31.2347ZM253.489 32.4855L254.521 29.173L248.792 27.3895L247.761 30.702L253.489 32.4855ZM251.656 31.2812H262.469V25.2812H251.656V31.2812ZM259.469 28.2812V46.625H265.469V28.2812H259.469ZM262.469 43.625H252.812V49.625H262.469V43.625ZM255.726 45.9083C254.945 42.7355 253.374 40.0878 250.876 38.2432L247.311 43.0693C248.481 43.933 249.388 45.2645 249.899 47.3417L255.726 45.9083ZM250.876 38.2432C248.602 36.5633 246.073 35.625 243.344 35.625V41.625C244.615 41.625 245.919 42.0409 247.311 43.0693L250.876 38.2432ZM243.344 35.625C239.17 35.625 235.64 37.2048 233.089 40.4145L237.786 44.148C239.11 42.4827 240.851 41.625 243.344 41.625V35.625ZM233.089 40.4145C230.597 43.5497 229.531 47.6444 229.531 52.3438H235.531C235.531 48.5014 236.403 45.8878 237.786 44.148L233.089 40.4145ZM229.531 52.3438C229.531 57.0722 230.581 61.1898 233.04 64.3446L237.772 60.6554C236.398 58.8935 235.531 56.2403 235.531 52.3438H229.531ZM233.048 64.3544C235.612 67.6148 239.246 69.1562 243.531 69.1562V63.1562C240.817 63.1562 239.034 62.2602 237.765 60.6456L233.048 64.3544ZM243.531 69.1562C244.563 69.1562 245.632 69.0533 246.733 68.8619L245.705 62.9506C244.889 63.0925 244.167 63.1562 243.531 63.1562V69.1562ZM246.74 68.8606C247.58 68.7123 248.391 68.5112 249.167 68.2523L247.27 62.5602C246.797 62.718 246.274 62.8502 245.697 62.9519L246.74 68.8606ZM249.252 68.2229C249.545 68.1153 249.767 68.0379 249.927 67.9859C250.007 67.9601 250.06 67.9441 250.091 67.9352C250.129 67.9246 250.111 67.9309 250.057 67.9417L248.88 62.0583C248.405 62.1534 247.767 62.3765 247.186 62.5896L249.252 68.2229ZM252.469 65V60.5938H246.469V65H252.469ZM249.469 57.5938H243.469V63.5938H249.469V57.5938ZM246.469 60.5938V51.3125H240.469V60.5938H246.469ZM243.469 54.3125H263.5V48.3125H243.469V54.3125ZM260.5 51.3125V73.6562H266.5V51.3125H260.5ZM262.09 71.0082C259.111 72.5946 255.909 73.8094 252.475 74.6482L253.9 80.4768C257.8 79.5239 261.473 78.1345 264.91 76.3043L262.09 71.0082ZM252.475 74.6482C249.032 75.4895 245.625 75.9062 242.25 75.9062V81.9062C246.125 81.9062 250.009 81.4272 253.9 80.4768L252.475 74.6482ZM279.844 75.5625L278.317 78.145L278.323 78.1487L279.844 75.5625ZM271.219 66.375L268.538 67.7224L268.544 67.7338L271.219 66.375ZM271.219 39.4688L273.893 40.8277L273.896 40.8219L271.219 39.4688ZM279.781 30.5L281.249 33.1163L281.254 33.1136L279.781 30.5ZM306.812 30.4688L308.292 27.8587L308.283 27.8538L308.274 27.849L306.812 30.4688ZM315.375 39.4688L312.697 40.8219L312.703 40.8333L315.375 39.4688ZM306.781 75.5625L305.261 72.9763L305.255 72.98L306.781 75.5625ZM298.469 63.7188L295.726 62.5042L295.722 62.513L295.718 62.5218L298.469 63.7188ZM298.531 42.25L295.789 43.4664L295.793 43.4756L295.797 43.4848L298.531 42.25ZM288.125 63.7188L285.374 64.9157L288.125 63.7188ZM293.312 75.9062C288.563 75.9062 284.618 74.8894 281.364 72.9763L278.323 78.1487C282.653 80.6939 287.687 81.9062 293.312 81.9062V75.9062ZM281.37 72.98C278.09 71.0405 275.613 68.4019 273.893 65.0162L268.544 67.7338C270.782 72.1397 274.056 75.6262 278.317 78.145L281.37 72.98ZM273.899 65.0276C272.18 61.6073 271.281 57.6323 271.281 53.0312H265.281C265.281 58.4302 266.341 63.351 268.538 67.7224L273.899 65.0276ZM271.281 53.0312C271.281 48.2225 272.188 44.1847 273.893 40.8277L268.544 38.1098C266.333 42.4612 265.281 47.465 265.281 53.0312H271.281ZM273.896 40.8219C275.589 37.4732 278.024 34.9259 281.249 33.1163L278.313 27.8837C274.038 30.2825 270.766 33.7143 268.541 38.1156L273.896 40.8219ZM281.254 33.1136C284.489 31.2907 288.469 30.3125 293.312 30.3125V24.3125C287.656 24.3125 282.615 25.4593 278.308 27.8864L281.254 33.1136ZM293.312 30.3125C298.137 30.3125 302.112 31.2813 305.351 33.0885L308.274 27.849C303.971 25.4479 298.946 24.3125 293.312 24.3125V30.3125ZM305.333 33.0788C308.565 34.9099 311.004 37.4708 312.698 40.8219L318.052 38.1156C315.829 33.7167 312.56 30.2776 308.292 27.8587L305.333 33.0788ZM312.703 40.8333C314.43 44.2135 315.344 48.2506 315.344 53.0312H321.344C321.344 47.4786 320.279 42.474 318.047 38.1042L312.703 40.8333ZM315.344 53.0312C315.344 57.6323 314.445 61.6073 312.726 65.0276L318.087 67.7224C320.284 63.351 321.344 58.4302 321.344 53.0312H315.344ZM312.726 65.0276C311.029 68.4027 308.559 71.0371 305.261 72.9763L308.302 78.1487C312.587 75.6295 315.867 72.1389 318.087 67.7224L312.726 65.0276ZM305.255 72.98C302.027 74.8882 298.086 75.9062 293.312 75.9062V81.9062C298.956 81.9062 303.994 80.6951 308.308 78.145L305.255 72.98ZM293.312 70.8125C295.096 70.8125 296.75 70.2535 298.154 69.1386C299.512 68.0611 300.496 66.5779 301.22 64.9157L295.718 62.5218C295.254 63.5888 294.785 64.1524 294.424 64.4395C294.109 64.6892 293.779 64.8125 293.312 64.8125V70.8125ZM301.212 64.9333C302.655 61.6737 303.281 57.5626 303.281 52.7812H297.281C297.281 57.1249 296.699 60.3054 295.726 62.5042L301.212 64.9333ZM303.281 52.7812C303.281 48.1333 302.678 44.144 301.265 41.0152L295.797 43.4848C296.717 45.5227 297.281 48.5542 297.281 52.7812H303.281ZM301.274 41.0336C300.553 39.4089 299.549 37.9694 298.156 36.9351C296.728 35.8751 295.071 35.375 293.312 35.375V41.375C293.888 41.375 294.267 41.5207 294.579 41.7524C294.925 42.0097 295.364 42.5078 295.789 43.4664L301.274 41.0336ZM293.312 35.375C291.55 35.375 289.887 35.8715 288.453 36.93C287.052 37.964 286.043 39.405 285.32 41.0336L290.805 43.4664C291.228 42.5117 291.667 42.0152 292.016 41.7575C292.332 41.5243 292.721 41.375 293.312 41.375V35.375ZM285.32 41.0336C283.935 44.156 283.344 48.138 283.344 52.7812H289.344C289.344 48.5495 289.898 45.5107 290.805 43.4664L285.32 41.0336ZM283.344 52.7812C283.344 57.5581 283.958 61.6622 285.374 64.9157L290.876 62.5218C289.917 60.317 289.344 57.1294 289.344 52.7812H283.344ZM285.374 64.9157C286.099 66.5816 287.089 68.0666 288.454 69.1441C289.865 70.2579 291.525 70.8125 293.312 70.8125V64.8125C292.829 64.8125 292.489 64.6848 292.171 64.4341C291.807 64.1469 291.339 63.5851 290.876 62.5218L285.374 64.9157ZM351.938 78V81H354.938V78H351.938ZM325.969 78H322.969V81H325.969V78ZM325.969 67V64H322.969V67H325.969ZM330.969 67V70H333.969V67H330.969ZM330.969 39.2812H333.969V36.2812H330.969V39.2812ZM325.969 39.2812H322.969V42.2812H325.969V39.2812ZM325.969 28.2812V25.2812H322.969V28.2812H325.969ZM369.281 31.4062L367.322 33.6785L367.332 33.6868L369.281 31.4062ZM362.5 52.7812L361.965 49.8293L362.027 55.7437L362.5 52.7812ZM368.969 56.1562L366.559 57.9426L366.565 57.9517L366.572 57.9608L368.969 56.1562ZM370.969 66.8125H367.969V69.8125H370.969V66.8125ZM377.938 66.8125H380.938V63.8125H377.938V66.8125ZM377.938 78V81H380.938V78H377.938ZM362.688 77.7812L362.31 80.7574L362.333 80.7603L362.356 80.7629L362.688 77.7812ZM359.562 76.6562L357.681 78.9925L357.716 79.021L357.752 79.0485L359.562 76.6562ZM357.688 73.8438L354.894 74.937L354.896 74.9421L357.688 73.8438ZM355.312 58.5625L352.816 60.2266L352.823 60.2363L352.829 60.246L355.312 58.5625ZM346.969 56.6875V53.6875H343.969V56.6875H346.969ZM346.969 67H343.969V70H346.969V67ZM351.938 67H354.938V64H351.938V67ZM346.969 39.2812V36.2812H343.969V39.2812H346.969ZM346.969 49.5938H343.969V52.5938H346.969V49.5938ZM356.25 40.5625L354.436 42.9518L354.446 42.9598L354.457 42.9677L356.25 40.5625ZM351.938 75H325.969V81H351.938V75ZM328.969 78V67H322.969V78H328.969ZM325.969 70H330.969V64H325.969V70ZM333.969 67V39.2812H327.969V67H333.969ZM330.969 36.2812H325.969V42.2812H330.969V36.2812ZM328.969 39.2812V28.2812H322.969V39.2812H328.969ZM325.969 31.2812H357.906V25.2812H325.969V31.2812ZM357.906 31.2812C362.771 31.2812 365.7 32.2797 367.322 33.6785L371.24 29.134C368.029 26.3661 363.375 25.2812 357.906 25.2812V31.2812ZM367.332 33.6868C368.823 34.9613 369.938 37.375 369.938 41.7812H375.938C375.938 36.5208 374.614 32.0179 371.23 29.1257L367.332 33.6868ZM369.938 41.7812C369.938 44.438 369.208 46.0554 368.135 47.0918L372.303 51.4082C374.854 48.9446 375.938 45.5828 375.938 41.7812H369.938ZM368.135 47.0918C366.873 48.3103 364.911 49.2953 361.965 49.8293L363.035 55.7332C366.755 55.0589 369.94 53.6897 372.303 51.4082L368.135 47.0918ZM362.027 55.7437C364.55 56.1468 365.866 57.0088 366.559 57.9426L371.379 54.3699C369.446 51.762 366.45 50.3741 362.973 49.8188L362.027 55.7437ZM366.572 57.9608C367.442 59.1165 367.969 60.6565 367.969 62.7812H373.969C373.969 59.6143 373.162 56.7377 371.365 54.3517L366.572 57.9608ZM367.969 62.7812V66.8125H373.969V62.7812H367.969ZM370.969 69.8125H377.938V63.8125H370.969V69.8125ZM374.938 66.8125V78H380.938V66.8125H374.938ZM377.938 75H367.875V81H377.938V75ZM367.875 75C365.781 75 364.175 74.9281 363.019 74.7996L362.356 80.7629C363.825 80.9261 365.678 81 367.875 81V75ZM363.065 74.8051C362.09 74.6812 361.599 74.4353 361.373 74.264L357.752 79.0485C359.068 80.0439 360.66 80.5479 362.31 80.7574L363.065 74.8051ZM361.444 74.32C361.235 74.151 360.864 73.723 360.479 72.7454L354.896 74.9421C355.511 76.5062 356.39 77.9532 357.681 78.9925L361.444 74.32ZM360.481 72.7505C359.952 71.3976 359.562 68.6913 359.562 64.25H353.562C353.562 68.767 353.923 72.4566 354.894 74.937L360.481 72.7505ZM359.562 64.25C359.562 61.4734 359.132 58.8496 357.796 56.879L352.829 60.246C353.16 60.7337 353.562 61.9016 353.562 64.25H359.562ZM357.809 56.8984C356.188 54.4677 353.458 53.6875 350.75 53.6875V59.6875C352.458 59.6875 352.77 60.1573 352.816 60.2266L357.809 56.8984ZM350.75 53.6875H346.969V59.6875H350.75V53.6875ZM343.969 56.6875V67H349.969V56.6875H343.969ZM346.969 70H351.938V64H346.969V70ZM348.938 67V78H354.938V67H348.938ZM343.969 39.2812V49.5938H349.969V39.2812H343.969ZM346.969 52.5938H351.25V46.5938H346.969V52.5938ZM351.25 52.5938C353.778 52.5938 356.231 52.1599 358.091 50.7913L354.534 45.9587C354.186 46.2151 353.263 46.5938 351.25 46.5938V52.5938ZM358.091 50.7913C360.285 49.1764 360.969 46.6025 360.969 44.0938H354.969C354.969 45.6684 354.548 45.9486 354.534 45.9587L358.091 50.7913ZM360.969 44.0938C360.969 41.7014 359.991 39.6097 358.043 38.1573L354.457 42.9677C354.8 43.2236 354.969 43.4861 354.969 44.0938H360.969ZM358.064 38.1732C356.291 36.8272 354.144 36.2812 351.875 36.2812V42.2812C353.189 42.2812 353.959 42.5894 354.436 42.9518L358.064 38.1732ZM351.875 36.2812H346.969V42.2812H351.875V36.2812ZM407.562 67H410.562V64H407.562V67ZM407.562 78V81H410.562V78H407.562ZM381.594 78H378.594V81H381.594V78ZM381.594 67V64H378.594V67H381.594ZM386.594 67V70H389.594V67H386.594ZM386.594 39.2812H389.594V36.2812H386.594V39.2812ZM381.594 39.2812H378.594V42.2812H381.594V39.2812ZM381.594 28.2812V25.2812H378.594V28.2812H381.594ZM407.562 28.2812H410.562V25.2812H407.562V28.2812ZM407.562 39.2812V42.2812H410.562V39.2812H407.562ZM402.594 39.2812V36.2812H399.594V39.2812H402.594ZM402.594 67H399.594V70H402.594V67ZM404.562 67V78H410.562V67H404.562ZM407.562 75H381.594V81H407.562V75ZM384.594 78V67H378.594V78H384.594ZM381.594 70H386.594V64H381.594V70ZM389.594 67V39.2812H383.594V67H389.594ZM386.594 36.2812H381.594V42.2812H386.594V36.2812ZM384.594 39.2812V28.2812H378.594V39.2812H384.594ZM381.594 31.2812H407.562V25.2812H381.594V31.2812ZM404.562 28.2812V39.2812H410.562V28.2812H404.562ZM407.562 36.2812H402.594V42.2812H407.562V36.2812ZM399.594 39.2812V67H405.594V39.2812H399.594ZM402.594 70H407.562V64H402.594V70ZM432.625 67H435.625V64H432.625V67ZM432.625 78V81H435.625V78H432.625ZM410.688 78H407.688V81H410.688V78ZM410.688 67V64H407.688V67H410.688ZM415.625 67V70H417.838L418.491 67.8854L415.625 67ZM424.188 39.2812L427.054 40.1667L428.254 36.2812H424.188V39.2812ZM417.656 39.2812H414.656V42.2812H417.656V39.2812ZM417.656 28.2812V25.2812H414.656V28.2812H417.656ZM448.625 28.2812L451.509 27.4549L450.886 25.2812H448.625V28.2812ZM459.719 67L456.835 67.8263L457.458 70H459.719V67ZM464.625 67H467.625V64H464.625V67ZM464.625 78V81H467.625V78H464.625ZM436.656 78H433.656V81H436.656V78ZM436.656 67V64H433.656V67H436.656ZM440.719 67V70H444.572L443.627 66.2643L440.719 67ZM439.375 61.6875L442.283 60.9518L441.711 58.6875H439.375V61.6875ZM428.094 61.6875V58.6875H425.785L425.194 60.9198L428.094 61.6875ZM426.688 67L423.787 66.2323L422.79 70H426.688V67ZM437.875 54.125V57.125H441.674L440.793 53.4299L437.875 54.125ZM434.25 38.9062L437.168 38.2111L434.582 27.3524L431.376 38.0447L434.25 38.9062ZM429.688 54.125L426.814 53.2635L425.656 57.125H429.688V54.125ZM429.625 67V78H435.625V67H429.625ZM432.625 75H410.688V81H432.625V75ZM413.688 78V67H407.688V78H413.688ZM410.688 70H415.625V64H410.688V70ZM418.491 67.8854L427.054 40.1667L421.321 38.3958L412.759 66.1146L418.491 67.8854ZM424.188 36.2812H417.656V42.2812H424.188V36.2812ZM420.656 39.2812V28.2812H414.656V39.2812H420.656ZM417.656 31.2812H448.625V25.2812H417.656V31.2812ZM445.741 29.1076L456.835 67.8263L462.603 66.1737L451.509 27.4549L445.741 29.1076ZM459.719 70H464.625V64H459.719V70ZM461.625 67V78H467.625V67H461.625ZM464.625 75H436.656V81H464.625V75ZM439.656 78V67H433.656V78H439.656ZM436.656 70H440.719V64H436.656V70ZM443.627 66.2643L442.283 60.9518L436.467 62.4232L437.81 67.7357L443.627 66.2643ZM439.375 58.6875H428.094V64.6875H439.375V58.6875ZM425.194 60.9198L423.787 66.2323L429.588 67.7677L430.994 62.4552L425.194 60.9198ZM426.688 70H432.625V64H426.688V70ZM440.793 53.4299L437.168 38.2111L431.332 39.6014L434.957 54.8201L440.793 53.4299ZM431.376 38.0447L426.814 53.2635L432.561 54.9865L437.124 39.7678L431.376 38.0447ZM429.688 57.125H437.875V51.125H429.688V57.125ZM482.719 77.3125L481.271 79.94L481.282 79.9462L481.293 79.9522L482.719 77.3125ZM479.438 75.125L481.265 72.7456L478.067 70.2903L476.634 74.0583L479.438 75.125ZM478.344 78V81H480.412L481.148 79.0667L478.344 78ZM468.25 78H465.25V81H468.25V78ZM468.25 62.7812V59.7812H465.25V62.7812H468.25ZM478.281 62.7812L481.096 61.7426L480.372 59.7812H478.281V62.7812ZM481.25 66.5L479.811 69.1321L479.835 69.1454L479.859 69.1583L481.25 66.5ZM489.312 66.8438L490.78 69.4602L490.804 69.4467L490.828 69.4328L489.312 66.8438ZM489.281 62.5938L487.747 65.1716L487.77 65.1853L487.793 65.1985L489.281 62.5938ZM485.594 61.1562L486.393 58.2646L486.382 58.2615L486.37 58.2585L485.594 61.1562ZM480.094 59.4375L479.048 62.2495L479.06 62.2537L480.094 59.4375ZM475.719 57.5625L474.377 60.2458L475.719 57.5625ZM469.062 34.5938L471.672 36.0746L471.676 36.0668L469.062 34.5938ZM474.625 29.25L476.021 31.9053L476.03 31.9008L474.625 29.25ZM492.75 31.1562L490.532 33.1761L493.374 36.2972L495.387 32.5869L492.75 31.1562ZM494.344 28.2188V25.2188H492.558L491.707 26.7881L494.344 28.2188ZM503.312 28.2188H506.312V25.2188H503.312V28.2188ZM503.312 43.125V46.125H506.312V43.125H503.312ZM493.719 43.125L491.012 44.4183L491.827 46.125H493.719V43.125ZM482.938 38.9062L484.539 41.4427L484.563 41.4278L484.586 41.4125L482.938 38.9062ZM483.469 43.2812L484.77 40.5782L484.74 40.5639L484.71 40.5502L483.469 43.2812ZM488.281 44.7812L488.95 41.8567L488.938 41.8539L488.926 41.8513L488.281 44.7812ZM497.719 47.9375L499.043 45.2456L499.03 45.2394L499.018 45.2333L497.719 47.9375ZM503.906 53.3438L501.403 54.9975L501.412 55.0105L501.42 55.0233L503.906 53.3438ZM504.312 70.75L506.973 72.1354L506.978 72.1268L506.982 72.1181L504.312 70.75ZM498.719 76.7188L497.169 74.1502L497.159 74.1562L498.719 76.7188ZM490.469 75.9062C488.893 75.9062 487.65 75.7897 486.702 75.5935L485.486 81.469C486.954 81.7728 488.628 81.9062 490.469 81.9062V75.9062ZM486.702 75.5935C485.767 75.4 484.919 75.0909 484.144 74.6728L481.293 79.9522C482.602 80.6591 484.004 81.1625 485.486 81.469L486.702 75.5935ZM484.167 74.685C483.307 74.2115 482.341 73.5719 481.265 72.7456L477.61 77.5044C478.868 78.4697 480.089 79.2885 481.271 79.94L484.167 74.685ZM476.634 74.0583L475.54 76.9333L481.148 79.0667L482.241 76.1917L476.634 74.0583ZM478.344 75H468.25V81H478.344V75ZM471.25 78V62.7812H465.25V78H471.25ZM468.25 65.7812H478.281V59.7812H468.25V65.7812ZM475.467 63.8199C476.304 66.0887 477.706 67.9809 479.811 69.1321L482.689 63.8679C482.128 63.5607 481.55 62.9738 481.096 61.7426L475.467 63.8199ZM479.859 69.1583C481.747 70.1454 483.909 70.5625 486.219 70.5625V64.5625C484.612 64.5625 483.462 64.2713 482.641 63.8417L479.859 69.1583ZM486.219 70.5625C487.822 70.5625 489.384 70.2432 490.78 69.4602L487.845 64.2273C487.532 64.4026 487.032 64.5625 486.219 64.5625V70.5625ZM490.828 69.4328C492.367 68.5322 493.594 66.9997 493.594 64.875H487.594C487.594 64.8123 487.602 64.7225 487.633 64.6174C487.664 64.5115 487.709 64.417 487.759 64.3402C487.858 64.188 487.925 64.1797 487.797 64.2547L490.828 69.4328ZM493.594 64.875C493.594 62.7949 492.594 61.0317 490.77 59.989L487.793 65.1985C487.82 65.2142 487.809 65.2116 487.778 65.1814C487.744 65.1496 487.703 65.1003 487.665 65.0351C487.628 64.9702 487.608 64.9122 487.598 64.8738C487.589 64.8376 487.594 64.8341 487.594 64.875H493.594ZM490.816 60.0159C489.614 59.3006 488.097 58.7355 486.393 58.2646L484.795 64.0479C486.257 64.452 487.198 64.8452 487.747 65.1716L490.816 60.0159ZM486.37 58.2585C484.421 57.7359 482.675 57.1892 481.128 56.6213L479.06 62.2537C480.804 62.8941 482.725 63.4933 484.817 64.054L486.37 58.2585ZM481.139 56.6256C479.596 56.0518 478.239 55.4685 477.06 54.8792L474.377 60.2458C475.782 60.9482 477.342 61.6149 479.048 62.2494L481.139 56.6256ZM477.06 54.8792C474.938 53.8181 473.255 52.3336 471.965 50.3984L466.973 53.7266C468.849 56.5414 471.333 58.7235 474.377 60.2458L477.06 54.8792ZM471.965 50.3984C470.813 48.6705 470.094 46.1566 470.094 42.5938H464.094C464.094 46.9059 464.958 50.7045 466.973 53.7266L471.965 50.3984ZM470.094 42.5938C470.094 40.0202 470.649 37.877 471.672 36.0746L466.453 33.1129C464.851 35.9355 464.094 39.1256 464.094 42.5938H470.094ZM471.676 36.0668C472.673 34.2979 474.095 32.9181 476.021 31.9053L473.229 26.5947C470.321 28.1236 468.035 30.3063 466.449 33.1207L471.676 36.0668ZM476.03 31.9008C477.958 30.8788 480.323 30.3125 483.219 30.3125V24.3125C479.532 24.3125 476.167 25.0378 473.22 26.5992L476.03 31.9008ZM483.219 30.3125C486.544 30.3125 488.86 31.3399 490.532 33.1761L494.968 29.1364C491.974 25.8476 487.935 24.3125 483.219 24.3125V30.3125ZM495.387 32.5869L496.981 29.6494L491.707 26.7881L490.113 29.7256L495.387 32.5869ZM494.344 31.2188H503.312V25.2188H494.344V31.2188ZM500.312 28.2188V43.125H506.312V28.2188H500.312ZM503.312 40.125H493.719V46.125H503.312V40.125ZM496.426 41.8317C495.423 39.7321 494.142 37.8858 492.425 36.73L489.075 41.7075C489.524 42.01 490.223 42.7679 491.012 44.4183L496.426 41.8317ZM492.425 36.73C490.67 35.5485 488.517 35.125 486.281 35.125V41.125C487.837 41.125 488.664 41.4306 489.075 41.7075L492.425 36.73ZM486.281 35.125C484.54 35.125 482.762 35.4306 481.289 36.4L484.586 41.4125C484.696 41.3402 485.147 41.125 486.281 41.125V35.125ZM481.336 36.3698C479.721 37.3894 478.75 39.0198 478.75 41H484.75C484.75 40.9979 484.75 41.0307 484.736 41.0884C484.721 41.1478 484.695 41.2163 484.656 41.2847C484.573 41.4321 484.491 41.4731 484.539 41.4427L481.336 36.3698ZM478.75 41C478.75 42.1163 479.085 43.1978 479.784 44.1256C480.453 45.0142 481.34 45.609 482.227 46.0123L484.71 40.5502C484.452 40.4327 484.479 40.3868 484.576 40.5151C484.626 40.5823 484.676 40.6722 484.71 40.7767C484.744 40.8796 484.75 40.96 484.75 41H478.75ZM482.167 45.9843C483.598 46.6731 485.462 47.2327 487.637 47.7112L488.926 41.8513C486.934 41.4131 485.59 40.9728 484.77 40.5782L482.167 45.9843ZM487.613 47.7058C491.097 48.5022 494.021 49.4897 496.42 50.6417L499.018 45.2333C496.124 43.8436 492.757 42.7269 488.95 41.8567L487.613 47.7058ZM496.395 50.6294C498.514 51.6723 500.164 53.1223 501.403 54.9975L506.409 51.69C504.565 48.8985 502.09 46.7444 499.043 45.2456L496.395 50.6294ZM501.42 55.0233C502.557 56.7058 503.25 59.0591 503.25 62.3125H509.25C509.25 58.2325 508.38 54.6067 506.392 51.6642L501.42 55.0233ZM503.25 62.3125C503.25 64.9874 502.697 67.324 501.643 69.3819L506.982 72.1181C508.511 69.1343 509.25 65.8459 509.25 62.3125H503.25ZM501.652 69.3646C500.592 71.4 499.11 72.9787 497.169 74.1502L500.269 79.2873C503.161 77.5421 505.408 75.1417 506.973 72.1354L501.652 69.3646ZM497.159 74.1562C495.282 75.2985 493.083 75.9062 490.469 75.9062V81.9062C494.063 81.9062 497.364 81.0557 500.279 79.2813L497.159 74.1562Z" fill="#841416"/>
<defs>
<filter id="filter0_i_56_404" x="18.5938" y="27.3125" width="487.656" height="55.5938" filterUnits="userSpaceOnUse" color-interpolation-filters="sRGB">
<feFlood flood-opacity="0" result="BackgroundImageFix"/>
<feBlend mode="normal" in="SourceGraphic" in2="BackgroundImageFix" result="shape"/>
<feColorMatrix in="SourceAlpha" type="matrix" values="0 0 0 0 0 0 0 0 0 0 0 0 0 0 0 0 0 0 127 0" result="hardAlpha"/>
<feOffset dy="4"/>
<feGaussianBlur stdDeviation="2"/>
<feComposite in2="hardAlpha" operator="arithmetic" k2="-1" k3="1"/>
<feColorMatrix type="matrix" values="0 0 0 0 0 0 0 0 0 0 0 0 0 0 0 0 0 0 0.25 0"/>
<feBlend mode="normal" in2="shape" result="effect1_innerShadow_56_404"/>
</filter>
</defs>
</svg>
