<svg width="435" height="184" viewBox="0 0 435 184" fill="none" xmlns="http://www.w3.org/2000/svg">
<g filter="url(#filter0_i_66_406)">
<path d="M37.5781 86.4375L35.9375 86.2031H35.625C34.3229 86.2031 32.9688 85.6823 31.5625 84.6406C30.2083 83.599 29.5312 81.75 29.5312 79.0938C29.5312 76.4375 30.9635 73.4167 33.8281 70.0312C36.7448 66.6458 40.6771 63.5469 45.625 60.7344C50.5729 57.8698 56.7188 55.526 64.0625 53.7031C71.4583 51.8802 79.2448 50.9688 87.4219 50.9688C104.141 50.9688 117.188 54.276 126.562 60.8906C135.99 67.4531 140.703 75.9948 140.703 86.5156C140.703 93.0781 139.245 99.6406 136.328 106.203C133.411 112.766 129.505 118.833 124.609 124.406C119.714 129.927 113.958 135.109 107.344 139.953C100.729 144.745 93.8021 148.833 86.5625 152.219C70.9375 159.406 55.9896 163 41.7188 163C34.6875 163 30.2604 162.427 28.4375 161.281C27.7604 160.917 27.0833 160.37 26.4062 159.641C25.7812 158.859 25.2865 158.339 24.9219 158.078C23.9323 157.453 23.4375 156.125 23.4375 154.094C23.4375 152.01 23.6458 150.135 24.0625 148.469C25.625 142.896 32.6302 130.812 45.0781 112.219C57.5781 93.5729 68.0208 78.5469 76.4062 67.1406C76.9792 66.3594 79.9219 65.7865 85.2344 65.4219C87.4219 65.4219 88.9323 65.5781 89.7656 65.8906C90.599 66.2031 91.0156 66.776 91.0156 67.6094C91.0156 68.3906 89.6615 70.6823 86.9531 74.4844C84.2448 78.2344 75.5469 91.4375 60.8594 114.094C46.1719 136.698 38.8281 148.312 38.8281 148.938C38.8281 149.562 41.1198 149.875 45.7031 149.875C50.3385 149.875 56.0156 148.911 62.7344 146.984C69.5052 145.005 75.8594 142.427 81.7969 139.25C87.7344 136.073 93.4115 132.401 98.8281 128.234C104.245 124.016 108.88 119.719 112.734 115.344C121.172 105.76 125.391 97.2448 125.391 89.7969C125.391 82.349 121.979 76.0208 115.156 70.8125C108.385 65.6042 99.0885 63 87.2656 63C79.2969 63 71.7708 64.3281 64.6875 66.9844C57.6042 69.6406 52.7344 72.0104 50.0781 74.0938C47.4219 76.1771 46.0938 77.5833 46.0938 78.3125C46.0938 78.7292 46.4062 78.9375 47.0312 78.9375L50.3906 78.3125C50.8594 78.3125 51.0938 78.4167 51.0938 78.625C51.0938 78.8333 50.651 79.1979 49.7656 79.7188C48.8802 80.2396 48.151 80.8125 47.5781 81.4375C47.0573 82.0104 45.7031 82.974 43.5156 84.3281C41.3281 85.6302 39.349 86.3333 37.5781 86.4375ZM196.641 138.469C197.63 138.469 198.229 139.224 198.438 140.734C198.646 142.245 198.75 143.807 198.75 145.422C198.75 147.036 198.594 148.156 198.281 148.781C196.771 151.698 193.464 155.266 188.359 159.484C183.255 163.651 178.411 165.734 173.828 165.734C171.016 165.734 168.411 164.875 166.016 163.156C163.62 161.49 162.422 158.547 162.422 154.328C162.422 150.109 163.542 145.969 165.781 141.906C152.865 158.104 142.734 166.203 135.391 166.203C132.474 166.203 130.104 165.161 128.281 163.078C126.51 160.995 125.625 158.859 125.625 156.672C125.625 154.432 125.938 152.141 126.562 149.797C127.188 147.401 127.839 145.266 128.516 143.391C129.245 141.516 130.286 139.198 131.641 136.438C133.047 133.677 134.089 131.672 134.766 130.422C135.443 129.172 136.51 127.297 137.969 124.797C139.479 122.245 141.432 118.833 143.828 114.562C146.276 110.292 148.281 107.141 149.844 105.109C151.458 103.026 153.021 101.984 154.531 101.984C156.042 101.932 157.37 102.531 158.516 103.781C159.661 105.031 160.234 106.047 160.234 106.828C160.234 107.609 158.49 111.125 155 117.375C144.688 136.021 139.531 146.88 139.531 149.953C139.531 150.734 139.818 151.125 140.391 151.125C142.891 151.125 149.115 145.708 159.062 134.875C169.01 124.042 174.766 117.115 176.328 114.094C177.891 111.021 179.401 108.443 180.859 106.359C182.37 104.276 183.49 103 184.219 102.531C186.458 101.073 189.349 100.292 192.891 100.188C193.464 100.188 193.906 100.214 194.219 100.266C194.531 100.318 194.896 100.76 195.312 101.594C195.729 102.427 195.938 103.078 195.938 103.547C195.469 105.005 193.385 108.885 189.688 115.188C186.042 121.49 184.01 125.057 183.594 125.891C177.448 138.599 174.375 146.88 174.375 150.734C174.375 152.922 175.208 154.016 176.875 154.016C179.896 153.599 183.542 151.177 187.812 146.75C189.375 145.135 190.911 143.495 192.422 141.828C193.984 140.161 194.948 139.198 195.312 138.938C195.677 138.625 196.12 138.469 196.641 138.469ZM291.875 45.8906C292.865 45.8906 293.646 46.2031 294.219 46.8281C294.792 47.4531 295.078 48.1042 295.078 48.7812C295.078 49.4062 294.557 50.6042 293.516 52.375C292.526 54.0938 290.208 57.8958 286.562 63.7812C282.917 69.6146 280.078 74.1979 278.047 77.5312C266.224 96.75 256.953 113 250.234 126.281C243.516 139.562 240.156 147.583 240.156 150.344V150.969C240.156 153.104 240.938 154.172 242.5 154.172C244.062 154.172 245.938 153.443 248.125 151.984C250.365 150.526 252.318 148.964 253.984 147.297C255.651 145.63 257.318 143.911 258.984 142.141C260.703 140.318 261.745 139.25 262.109 138.938C262.474 138.625 262.943 138.469 263.516 138.469C264.401 138.469 264.974 139.042 265.234 140.188C265.495 141.281 265.625 142.844 265.625 144.875C265.625 146.854 265.469 148.156 265.156 148.781C263.646 151.698 260.312 155.266 255.156 159.484C250.052 163.651 245.208 165.734 240.625 165.734C232.812 165.734 228.906 162.427 228.906 155.812C228.906 151.698 230.469 146.307 233.594 139.641C229.375 145.109 225.078 149.771 220.703 153.625C212.578 160.708 205.521 164.25 199.531 164.25C196.198 164.25 193.724 163.078 192.109 160.734C190.547 158.391 189.766 155.031 189.766 150.656C189.766 146.229 191.484 140.943 194.922 134.797C198.359 128.651 202.63 123.13 207.734 118.234C212.891 113.286 218.594 109.172 224.844 105.891C231.094 102.557 236.849 100.891 242.109 100.891C243.776 100.891 245.729 101.906 247.969 103.938C249.479 101.542 252.266 96.75 256.328 89.5625C269.089 68.0521 277.526 54.9271 281.641 50.1875C283.828 47.3229 287.24 45.8906 291.875 45.8906ZM243.203 111.281C235.703 112.948 228.724 116.438 222.266 121.75C215.807 127.062 210.964 132.635 207.734 138.469C204.505 144.25 202.891 148 202.891 149.719C202.891 151.438 203.255 152.297 203.984 152.297C207.109 152.297 214.844 145.318 227.188 131.359C233.333 124.484 238.672 117.792 243.203 111.281ZM319.297 103.625C323.255 103.625 325.234 104.979 325.234 107.688C325.234 109.146 324.896 110.214 324.219 110.891C323.542 111.568 322.083 113.833 319.844 117.688C317.656 121.49 315.208 126.385 312.5 132.375C309.844 138.312 308.125 143.391 307.344 147.609C307.188 148.13 307.109 148.859 307.109 149.797C307.109 152.661 307.891 154.094 309.453 154.094C311.016 154.094 312.865 153.365 315 151.906C317.135 150.396 319.036 148.807 320.703 147.141C322.37 145.422 323.984 143.677 325.547 141.906C327.161 140.135 328.125 139.12 328.438 138.859C328.75 138.599 329.219 138.469 329.844 138.469C330.833 138.469 331.432 139.224 331.641 140.734C331.849 142.245 331.953 143.807 331.953 145.422C331.953 147.036 331.797 148.156 331.484 148.781C329.974 151.75 326.641 155.318 321.484 159.484C316.38 163.651 311.719 165.734 307.5 165.734C303.333 165.734 300.26 164.458 298.281 161.906C296.302 159.354 295.312 156.542 295.312 153.469C295.312 150.344 295.833 147.609 296.875 145.266C292.552 150.891 287.578 155.656 281.953 159.562C276.38 163.469 271.823 165.422 268.281 165.422C264.74 165.422 261.849 164.354 259.609 162.219C256.745 159.562 255.312 155.891 255.312 151.203C255.312 146.464 256.354 141.724 258.438 136.984C260.573 132.193 263.359 127.844 266.797 123.938C270.234 119.979 274.01 116.385 278.125 113.156C286.771 106.385 294.74 103 302.031 103C304.844 103 307.135 103.469 308.906 104.406C310.677 105.344 311.797 106.516 312.266 107.922C313.516 106.047 314.557 104.875 315.391 104.406C316.276 103.885 317.578 103.625 319.297 103.625ZM308.906 112.297C300 112.297 290.781 117.245 281.25 127.141C277.865 130.682 274.74 134.927 271.875 139.875C269.062 144.823 267.656 148.208 267.656 150.031C267.656 151.854 268.177 152.766 269.219 152.766C270.677 152.766 274.74 149.901 281.406 144.172C288.073 138.391 292.5 134.146 294.688 131.438C297.083 128.417 301.823 122.036 308.906 112.297ZM369.375 58.4688C372.135 58.4688 374.141 59.224 375.391 60.7344C376.693 62.2448 377.344 64.224 377.344 66.6719C377.344 69.1198 376.458 71.5156 374.688 73.8594C372.969 76.2031 370.365 78.6771 366.875 81.2812C363.438 83.8333 360.885 85.1094 359.219 85.1094C357.552 85.1094 356.38 84.7969 355.703 84.1719C355.078 83.5469 354.583 83.1823 354.219 83.0781C353.854 82.974 353.672 82.5312 353.672 81.75C353.672 80.9167 353.88 80.3438 354.297 80.0312C354.714 79.7188 355.755 78.3646 357.422 75.9688C359.141 73.5208 360.156 71.9062 360.469 71.125C359.635 70.3438 359.219 69.0938 359.219 67.375C359.219 65.6042 360.208 63.6771 362.188 61.5938C364.219 59.5104 366.615 58.4688 369.375 58.4688ZM357.344 147.375L357.266 148.625C357.266 149.927 357.76 151.047 358.75 151.984C359.74 152.922 360.651 153.391 361.484 153.391C367.734 153.391 373.255 152.453 378.047 150.578C382.891 148.703 385.312 146.828 385.312 144.953C385.312 144.068 384.427 143.312 382.656 142.688C380.938 142.01 377.995 141.203 373.828 140.266C369.714 139.276 366.719 138.521 364.844 138C362.969 137.427 361.484 136.906 360.391 136.438C359.297 135.969 358.177 135.318 357.031 134.484C354.583 132.766 353.359 130.214 353.359 126.828C353.359 123.391 354.609 120.005 357.109 116.672C359.661 113.286 362.839 110.396 366.641 108C370.443 105.604 374.531 103.495 378.906 101.672C387.552 98.0781 394.818 96.2812 400.703 96.2812C406.484 96.2812 410.052 97.5312 411.406 100.031C411.823 100.917 412.031 101.906 412.031 103V103.547C412.031 106.307 411.432 108.469 410.234 110.031C409.089 111.594 407.24 113 404.688 114.25C402.188 115.5 400.182 116.125 398.672 116.125C397.214 116.125 396.276 116.021 395.859 115.812C395.495 115.604 395.182 115.344 394.922 115.031C394.661 114.667 394.323 114.406 393.906 114.25C393.542 114.094 393.359 113.703 393.359 113.078C393.359 112.453 393.62 111.828 394.141 111.203C394.661 110.526 395.026 109.823 395.234 109.094C391.797 109.25 388.203 110.057 384.453 111.516C380.703 112.922 377.474 114.51 374.766 116.281C372.109 118.052 369.896 119.745 368.125 121.359C366.354 122.974 365.469 124.172 365.469 124.953C365.469 125.682 366.667 126.281 369.062 126.75C379.844 128.885 386.927 130.734 390.312 132.297C393.698 133.859 396.042 135.63 397.344 137.609C398.646 139.589 399.297 141.385 399.297 143C399.297 146.333 397.969 149.484 395.312 152.453C392.656 155.422 389.375 157.844 385.469 159.719C377.083 163.833 369.766 165.891 363.516 165.891C357.318 165.891 353.021 164.927 350.625 163C348.281 161.125 347.109 158.885 347.109 156.281C347.109 153.677 347.76 151.281 349.062 149.094C350.417 146.854 352.135 145.734 354.219 145.734C356.302 145.734 357.344 146.281 357.344 147.375Z" fill="#E79D0F"/>
</g>
<path d="M37.5781 86.4375L37.2953 88.4174L37.4946 88.4459L37.6956 88.434L37.5781 86.4375ZM35.9375 86.2031L36.2203 84.2232L36.0796 84.2031H35.9375V86.2031ZM31.5625 84.6406L30.3431 86.2259L30.3575 86.2369L30.372 86.2477L31.5625 84.6406ZM33.8281 70.0312L32.3129 68.7258L32.3071 68.7326L32.3014 68.7394L33.8281 70.0312ZM45.625 60.7344L46.6133 62.4731L46.6202 62.4692L46.6271 62.4652L45.625 60.7344ZM64.0625 53.7031L63.5839 51.7612L63.5807 51.762L64.0625 53.7031ZM126.562 60.8906L125.409 62.5248L125.42 62.5321L126.562 60.8906ZM124.609 124.406L126.106 125.733L126.112 125.726L124.609 124.406ZM107.344 139.953L108.517 141.573L108.525 141.567L107.344 139.953ZM86.5625 152.219L87.3983 154.036L87.4097 154.03L86.5625 152.219ZM28.4375 161.281L29.5018 159.588L29.4449 159.552L29.3857 159.52L28.4375 161.281ZM26.4062 159.641L24.8445 160.89L24.8905 160.948L24.9407 161.002L26.4062 159.641ZM24.9219 158.078L26.0844 156.451L26.038 156.418L25.9899 156.387L24.9219 158.078ZM24.0625 148.469L22.1368 147.929L22.1291 147.956L22.1222 147.984L24.0625 148.469ZM45.0781 112.219L43.4169 111.105L43.4162 111.106L45.0781 112.219ZM76.4062 67.1406L78.0177 68.3253L78.0191 68.3234L76.4062 67.1406ZM85.2344 65.4219V63.4219H85.1658L85.0974 63.4266L85.2344 65.4219ZM86.9531 74.4844L88.5745 75.6554L88.5821 75.6447L86.9531 74.4844ZM60.8594 114.094L62.5364 115.183L62.5376 115.182L60.8594 114.094ZM62.7344 146.984L63.2858 148.907L63.2955 148.904L62.7344 146.984ZM98.8281 128.234L100.048 129.82L100.057 129.812L98.8281 128.234ZM112.734 115.344L114.235 116.666L114.235 116.665L112.734 115.344ZM115.156 70.8125L113.937 72.3978L113.943 72.4022L115.156 70.8125ZM47.0312 78.9375V80.9375H47.2157L47.3971 80.9038L47.0312 78.9375ZM50.3906 78.3125V76.3125H50.2062L50.0248 76.3462L50.3906 78.3125ZM47.5781 81.4375L46.1038 80.086L46.0982 80.0922L47.5781 81.4375ZM43.5156 84.3281L44.5386 86.0467L44.5535 86.0378L44.5683 86.0287L43.5156 84.3281ZM37.861 84.4576L36.2203 84.2232L35.6547 88.183L37.2953 88.4174L37.861 84.4576ZM35.9375 84.2031H35.625V88.2031H35.9375V84.2031ZM35.625 84.2031C34.8775 84.2031 33.9319 83.9068 32.753 83.0335L30.372 86.2477C32.0056 87.4578 33.7684 88.2031 35.625 88.2031V84.2031ZM32.7819 83.0554C32.1433 82.5641 31.5312 81.4793 31.5312 79.0938H27.5312C27.5312 82.0207 28.2734 84.6338 30.3431 86.2259L32.7819 83.0554ZM31.5312 79.0938C31.5312 77.1378 32.607 74.5706 35.3549 71.3231L32.3014 68.7394C29.32 72.2627 27.5312 75.7372 27.5312 79.0938H31.5312ZM35.3433 71.3367C38.0759 68.1649 41.8126 65.2019 46.6133 62.4731L44.6367 58.9956C39.5416 61.8918 35.4137 65.1267 32.3129 68.7258L35.3433 71.3367ZM46.6271 62.4652C51.3696 59.7196 57.3279 57.4355 64.5443 55.6442L63.5807 51.762C56.1096 53.6165 49.7763 56.02 44.6229 59.0035L46.6271 62.4652ZM64.5411 55.645C71.7693 53.8634 79.3943 52.9688 87.4219 52.9688V48.9688C79.0953 48.9688 71.1473 49.897 63.5839 51.7612L64.5411 55.645ZM87.4219 52.9688C103.908 52.9688 116.494 56.2345 125.409 62.5248L127.716 59.2564C117.881 52.3176 104.373 48.9688 87.4219 48.9688V52.9688ZM125.42 62.5321C134.368 68.7609 138.703 76.7167 138.703 86.5156H142.703C142.703 75.2729 137.612 66.1454 127.705 59.2492L125.42 62.5321ZM138.703 86.5156C138.703 92.7728 137.314 99.0597 134.501 105.391L138.156 107.015C141.175 100.222 142.703 93.3834 142.703 86.5156H138.703ZM134.501 105.391C131.669 111.763 127.874 117.66 123.107 123.086L126.112 125.726C131.137 120.007 135.154 113.769 138.156 107.015L134.501 105.391ZM123.113 123.079C118.321 128.483 112.674 133.571 106.162 138.34L108.525 141.567C115.242 136.648 121.106 131.372 126.106 125.733L123.113 123.079ZM106.17 138.333C99.656 143.053 92.8379 147.076 85.7153 150.407L87.4097 154.03C94.7663 150.59 101.802 146.437 108.517 141.573L106.17 138.333ZM85.7267 150.402C70.311 157.493 55.648 161 41.7188 161V165C56.3311 165 71.564 161.319 87.3983 154.036L85.7267 150.402ZM41.7188 161C38.2462 161 35.4762 160.858 33.3817 160.587C31.212 160.306 30.0223 159.915 29.5018 159.588L27.3732 162.975C28.6756 163.793 30.6109 164.262 32.8683 164.554C35.2009 164.856 38.16 165 41.7188 165V161ZM29.3857 159.52C28.9492 159.285 28.4411 158.893 27.8718 158.28L24.9407 161.002C25.7255 161.847 26.5717 162.548 27.4893 163.042L29.3857 159.52ZM27.968 158.391C27.3338 157.598 26.6925 156.885 26.0844 156.451L23.7594 159.706C23.8804 159.792 24.2287 160.12 24.8445 160.89L27.968 158.391ZM25.9899 156.387C25.9074 156.335 25.4375 155.945 25.4375 154.094H21.4375C21.4375 156.305 21.9572 158.571 23.8539 159.769L25.9899 156.387ZM25.4375 154.094C25.4375 152.141 25.6331 150.432 26.0028 148.954L22.1222 147.984C21.6585 149.838 21.4375 151.88 21.4375 154.094H25.4375ZM25.9882 149.009C26.6939 146.492 28.7151 142.273 32.2185 136.23C35.6907 130.24 40.5277 122.611 46.7401 113.331L43.4162 111.106C37.1806 120.42 32.2911 128.129 28.758 134.223C25.2563 140.264 22.9936 144.873 22.1368 147.929L25.9882 149.009ZM46.7394 113.332C59.2314 94.6985 69.6562 79.6989 78.0177 68.3253L74.7948 65.956C66.3854 77.3949 55.9249 92.4473 43.4169 111.105L46.7394 113.332ZM78.0191 68.3234C77.8067 68.613 77.6353 68.6002 77.9992 68.4601C78.285 68.35 78.7456 68.2204 79.4252 68.0881C80.7764 67.8251 82.7448 67.5974 85.3713 67.4172L85.0974 63.4266C82.4115 63.6109 80.2522 63.852 78.6608 64.1619C77.869 64.316 77.1544 64.499 76.5614 64.7274C76.0463 64.9258 75.2923 65.2776 74.7934 65.9579L78.0191 68.3234ZM85.2344 67.4219C87.4321 67.4219 88.6073 67.5923 89.0634 67.7633L90.4679 64.018C89.2573 63.564 87.4116 63.4219 85.2344 63.4219V67.4219ZM89.0634 67.7633C89.1361 67.7905 89.161 67.8091 89.1565 67.8059C89.1495 67.801 89.1195 67.7775 89.0857 67.731C89.0512 67.6836 89.0302 67.6361 89.0199 67.6014C89.0105 67.5696 89.0156 67.5677 89.0156 67.6094H93.0156C93.0156 66.8469 92.8192 66.064 92.3206 65.3783C91.8293 64.7028 91.1573 64.2765 90.4679 64.018L89.0634 67.7633ZM89.0156 67.6094C89.0156 67.3562 89.0884 67.3162 88.9315 67.672C88.807 67.9546 88.5968 68.3574 88.2781 68.8966C87.6437 69.9704 86.6659 71.4404 85.3242 73.324L88.5821 75.6447C89.9487 73.7263 91.0022 72.1494 91.7219 70.9315C92.0803 70.3249 92.3779 69.7707 92.5919 69.285C92.7736 68.8726 93.0156 68.2531 93.0156 67.6094H89.0156ZM85.3318 73.3134C82.5858 77.1155 73.8519 90.3753 59.1812 113.006L62.5376 115.182C77.2418 92.4997 85.9038 79.3533 88.5745 75.6554L85.3318 73.3134ZM59.1823 113.004C51.8375 124.308 46.3242 132.871 42.6455 138.689C40.8073 141.596 39.4204 143.829 38.4901 145.379C38.0267 146.152 37.6655 146.773 37.4158 147.232C37.2928 147.458 37.1819 147.671 37.0967 147.857C37.055 147.948 37.0052 148.062 36.9619 148.186C36.9416 148.244 36.8281 148.552 36.8281 148.938H40.8281C40.8281 149.147 40.7934 149.303 40.7796 149.361C40.7624 149.434 40.7449 149.486 40.7374 149.507C40.7228 149.549 40.716 149.56 40.7317 149.526C40.7612 149.462 40.8225 149.34 40.9289 149.144C41.1383 148.76 41.4655 148.195 41.9201 147.437C42.8257 145.928 44.1927 143.727 46.0264 140.827C49.6914 135.03 55.1938 126.484 62.5364 115.183L59.1823 113.004ZM36.8281 148.938C36.8281 149.7 37.1995 150.265 37.5546 150.604C37.8796 150.914 38.2417 151.093 38.5005 151.199C39.0244 151.413 39.6544 151.537 40.2766 151.622C41.5615 151.797 43.3906 151.875 45.7031 151.875V147.875C43.4323 147.875 41.824 147.796 40.8171 147.659C40.572 147.626 40.3814 147.591 40.2382 147.559C40.1674 147.542 40.1135 147.528 40.0742 147.516C40.0549 147.51 40.0403 147.506 40.0301 147.502C40.0198 147.499 40.0151 147.497 40.0151 147.497C40.0152 147.497 40.0167 147.497 40.0196 147.499C40.0225 147.5 40.0269 147.502 40.0328 147.505C40.0442 147.51 40.0629 147.52 40.0873 147.534C40.1325 147.561 40.2179 147.616 40.3165 147.711C40.5283 147.913 40.8281 148.332 40.8281 148.938H36.8281ZM45.7031 151.875C50.5939 151.875 56.4689 150.862 63.2858 148.907L62.183 145.062C55.5624 146.961 50.0831 147.875 45.7031 147.875V151.875ZM63.2955 148.904C70.1926 146.888 76.6756 144.259 82.7405 141.013L80.8533 137.487C75.0432 140.596 68.8178 143.122 62.1732 145.065L63.2955 148.904ZM82.7405 141.013C88.7761 137.784 94.5453 134.052 100.048 129.82L97.6087 126.649C92.2777 130.75 86.6927 134.362 80.8533 137.487L82.7405 141.013ZM100.057 129.812C105.555 125.53 110.286 121.149 114.235 116.666L111.234 114.022C107.475 118.288 102.934 122.501 97.5992 126.656L100.057 129.812ZM114.235 116.665C122.784 106.956 127.391 97.9761 127.391 89.7969H123.391C123.391 96.5134 119.56 104.565 111.233 114.022L114.235 116.665ZM127.391 89.7969C127.391 81.6249 123.603 74.744 116.37 69.2228L113.943 72.4022C120.356 77.2977 123.391 83.073 123.391 89.7969H127.391ZM116.376 69.2273C109.143 63.6636 99.3631 61 87.2656 61V65C98.814 65 107.628 67.5447 113.937 72.3977L116.376 69.2273ZM87.2656 61C79.07 61 71.3049 62.3668 63.9853 65.1117L65.3897 68.857C72.2367 66.2894 79.5238 65 87.2656 65V61ZM63.9853 65.1117C56.8879 67.7732 51.7624 70.231 48.8438 72.52L51.3124 75.6675C53.7063 73.7899 58.3204 71.508 65.3897 68.857L63.9853 65.1117ZM48.8438 72.52C47.486 73.5851 46.4002 74.5284 45.6358 75.3377C45.2554 75.7405 44.9081 76.1585 44.6445 76.5824C44.4069 76.9644 44.0938 77.5747 44.0938 78.3125H48.0938C48.0938 78.6857 47.9466 78.8468 48.0411 78.6949C48.1095 78.585 48.2603 78.3845 48.5439 78.0842C49.1076 77.4872 50.014 76.6858 51.3124 75.6675L48.8438 72.52ZM44.0938 78.3125C44.0938 79.1034 44.4381 79.9249 45.2187 80.4454C45.8563 80.8704 46.5597 80.9375 47.0312 80.9375V76.9375C46.8778 76.9375 47.1125 76.9005 47.4375 77.1171C47.6266 77.2432 47.813 77.4351 47.9412 77.6915C48.0653 77.9397 48.0938 78.1655 48.0938 78.3125H44.0938ZM47.3971 80.9038L50.7564 80.2788L50.0248 76.3462L46.6654 76.9712L47.3971 80.9038ZM50.3906 80.3125C50.5389 80.3125 50.3761 80.3384 50.1057 80.2182C49.9471 80.1478 49.6795 79.9945 49.4498 79.6883C49.2016 79.3574 49.0938 78.9749 49.0938 78.625H53.0938C53.0938 78.1709 52.9566 77.6973 52.6498 77.2883C52.3615 76.9039 52.006 76.6856 51.7302 76.563C51.2255 76.3387 50.7111 76.3125 50.3906 76.3125V80.3125ZM49.0938 78.625C49.0938 78.2984 49.1794 78.0457 49.2474 77.8937C49.3156 77.7411 49.3892 77.6381 49.4282 77.5877C49.5012 77.4931 49.5442 77.4664 49.4903 77.5108C49.3894 77.5939 49.1627 77.7531 48.7516 77.9949L50.7797 81.4426C51.254 81.1636 51.6913 80.8801 52.0331 80.5985C52.2006 80.4606 52.4096 80.2712 52.5933 80.0334C52.7403 79.8433 53.0938 79.3431 53.0938 78.625H49.0938ZM48.7516 77.9949C47.73 78.5958 46.8357 79.2877 46.1038 80.0861L49.0524 82.7889C49.4664 82.3373 50.0304 81.8833 50.7797 81.4426L48.7516 77.9949ZM46.0982 80.0922C45.992 80.209 45.6741 80.4894 45.0124 80.9603C44.3835 81.4077 43.5376 81.9623 42.4629 82.6276L44.5683 86.0287C45.6811 85.3398 46.6061 84.7355 47.3314 84.2194C48.0238 83.7267 48.6434 83.2389 49.058 82.7828L46.0982 80.0922ZM42.4927 82.6095C40.4686 83.8143 38.8032 84.362 37.4607 84.441L37.6956 88.434C39.8947 88.3047 42.1876 87.4461 44.5386 86.0467L42.4927 82.6095ZM198.281 148.781L200.057 149.701L200.064 149.688L200.07 149.676L198.281 148.781ZM188.359 159.484L189.624 161.034L189.634 161.026L188.359 159.484ZM166.016 163.156L167.181 161.531L167.17 161.523L167.158 161.514L166.016 163.156ZM165.781 141.906L167.533 142.872L164.218 140.659L165.781 141.906ZM128.281 163.078L126.757 164.373L126.767 164.384L126.776 164.395L128.281 163.078ZM126.562 149.797L128.495 150.312L128.498 150.302L126.562 149.797ZM128.516 143.391L126.652 142.666L126.643 142.688L126.635 142.711L128.516 143.391ZM131.641 136.438L129.859 135.53L129.852 135.543L129.845 135.557L131.641 136.438ZM137.969 124.797L136.248 123.778L136.241 123.789L137.969 124.797ZM143.828 114.562L142.093 113.568L142.088 113.576L142.084 113.584L143.828 114.562ZM149.844 105.109L148.263 103.884L148.259 103.89L149.844 105.109ZM154.531 101.984V103.984H154.566L154.6 103.983L154.531 101.984ZM155 117.375L153.254 116.4L153.25 116.407L155 117.375ZM159.062 134.875L157.589 133.522L159.062 134.875ZM176.328 114.094L178.105 115.013L178.111 115L176.328 114.094ZM180.859 106.359L179.24 105.185L179.23 105.199L179.221 105.212L180.859 106.359ZM184.219 102.531L185.3 104.214L185.31 104.207L184.219 102.531ZM192.891 100.188V98.1875H192.861L192.832 98.1884L192.891 100.188ZM195.938 103.547L197.842 104.159L197.938 103.86V103.547H195.938ZM189.688 115.188L187.963 114.175L187.956 114.186L189.688 115.188ZM183.594 125.891L181.805 124.996L181.799 125.008L181.793 125.02L183.594 125.891ZM176.875 154.016V156.016H177.012L177.148 155.997L176.875 154.016ZM187.812 146.75L186.375 145.359L186.373 145.361L187.812 146.75ZM192.422 141.828L190.963 140.46L190.951 140.473L190.94 140.485L192.422 141.828ZM195.312 138.938L196.475 140.565L196.547 140.514L196.614 140.456L195.312 138.938ZM196.641 140.469C196.628 140.469 196.552 140.465 196.451 140.417C196.348 140.368 196.287 140.305 196.265 140.278C196.25 140.258 196.279 140.289 196.324 140.414C196.369 140.54 196.418 140.731 196.456 141.008L200.419 140.461C200.292 139.539 200.015 138.568 199.399 137.792C198.709 136.922 197.727 136.469 196.641 136.469V140.469ZM196.456 141.008C196.651 142.422 196.75 143.893 196.75 145.422H200.75C200.75 143.721 200.64 142.067 200.419 140.461L196.456 141.008ZM196.75 145.422C196.75 147.031 196.575 147.723 196.492 147.887L200.07 149.676C200.613 148.59 200.75 147.042 200.75 145.422H196.75ZM196.505 147.862C195.19 150.402 192.15 153.757 187.085 157.943L189.634 161.026C194.777 156.775 198.352 152.994 200.057 149.701L196.505 147.862ZM187.095 157.935C182.195 161.935 177.786 163.734 173.828 163.734V167.734C179.037 167.734 184.315 165.367 189.624 161.034L187.095 157.935ZM173.828 163.734C171.455 163.734 169.255 163.019 167.181 161.531L164.85 164.781C167.568 166.731 170.576 167.734 173.828 167.734V163.734ZM167.158 161.514C165.512 160.37 164.422 158.203 164.422 154.328H160.422C160.422 158.891 161.727 162.61 164.873 164.798L167.158 161.514ZM164.422 154.328C164.422 150.48 165.44 146.669 167.533 142.872L164.03 140.941C161.644 145.269 160.422 149.739 160.422 154.328H164.422ZM164.218 140.659C157.804 148.702 152.148 154.649 147.247 158.567C142.294 162.527 138.373 164.203 135.391 164.203V168.203C139.752 168.203 144.568 165.83 149.745 161.691C154.974 157.51 160.842 151.308 167.345 143.153L164.218 140.659ZM135.391 164.203C133.016 164.203 131.207 163.385 129.786 161.761L126.776 164.395C129.001 166.938 131.932 168.203 135.391 168.203V164.203ZM129.805 161.783C128.262 159.968 127.625 158.275 127.625 156.672H123.625C123.625 159.443 124.758 162.022 126.757 164.373L129.805 161.783ZM127.625 156.672C127.625 154.62 127.911 152.502 128.495 150.312L124.63 149.282C123.964 151.78 123.625 154.245 123.625 156.672H127.625ZM128.498 150.302C129.111 147.951 129.745 145.876 130.397 144.07L126.635 142.711C125.933 144.655 125.264 146.851 124.627 149.292L128.498 150.302ZM130.38 144.116C131.081 142.313 132.095 140.051 133.436 137.318L129.845 135.557C128.477 138.344 127.409 140.718 126.652 142.666L130.38 144.116ZM133.423 137.345C134.828 134.587 135.86 132.601 136.524 131.374L133.007 129.469C132.317 130.743 131.266 132.767 129.859 135.53L133.423 137.345ZM136.524 131.374C137.186 130.153 138.24 128.301 139.696 125.805L136.241 123.789C134.781 126.293 133.7 128.19 133.007 129.469L136.524 131.374ZM139.69 125.816C141.212 123.244 143.173 119.818 145.572 115.541L142.084 113.584C139.691 117.849 137.747 121.245 136.248 123.778L139.69 125.816ZM145.563 115.557C147.999 111.307 149.951 108.25 151.429 106.329L148.259 103.89C146.612 106.031 144.553 109.276 142.093 113.568L145.563 115.557ZM151.425 106.335C152.933 104.389 153.978 103.984 154.531 103.984V99.9844C152.064 99.9844 149.984 101.663 148.263 103.884L151.425 106.335ZM154.6 103.983C155.451 103.954 156.237 104.255 157.041 105.133L159.99 102.43C158.503 100.808 156.633 99.9107 154.462 99.9856L154.6 103.983ZM157.041 105.133C157.553 105.691 157.877 106.133 158.063 106.463C158.257 106.808 158.234 106.911 158.234 106.828H162.234C162.234 105.964 161.925 105.169 161.547 104.498C161.16 103.812 160.624 103.121 159.99 102.43L157.041 105.133ZM158.234 106.828C158.234 106.626 158.277 106.539 158.236 106.678C158.206 106.777 158.15 106.938 158.054 107.174C157.863 107.644 157.561 108.302 157.134 109.162C156.283 110.876 154.993 113.284 153.254 116.4L156.746 118.35C158.496 115.216 159.823 112.741 160.717 110.94C161.163 110.042 161.515 109.283 161.76 108.679C161.883 108.378 161.99 108.087 162.069 107.82C162.137 107.593 162.234 107.225 162.234 106.828H158.234ZM153.25 116.407C148.086 125.743 144.196 133.161 141.592 138.646C140.291 141.386 139.296 143.674 138.622 145.494C137.98 147.231 137.531 148.789 137.531 149.953H141.531C141.531 149.581 141.727 148.629 142.374 146.883C142.989 145.22 143.928 143.051 145.205 140.362C147.757 134.987 151.601 127.653 156.75 118.343L153.25 116.407ZM137.531 149.953C137.531 150.529 137.626 151.323 138.133 152.015C138.725 152.822 139.599 153.125 140.391 153.125V149.125C140.473 149.125 140.64 149.139 140.842 149.231C141.055 149.328 141.233 149.478 141.359 149.649C141.579 149.95 141.531 150.158 141.531 149.953H137.531ZM140.391 153.125C141.613 153.125 142.882 152.514 144.019 151.808C145.238 151.052 146.652 149.959 148.247 148.571C151.442 145.79 155.544 141.664 160.536 136.228L157.589 133.522C152.633 138.919 148.649 142.918 145.621 145.554C144.103 146.874 142.871 147.813 141.909 148.41C141.429 148.708 141.052 148.899 140.768 149.011C140.472 149.128 140.362 149.125 140.391 149.125V153.125ZM160.536 136.228C165.52 130.8 169.471 126.332 172.378 122.833C175.245 119.382 177.21 116.741 178.105 115.013L174.552 113.175C173.883 114.467 172.19 116.8 169.302 120.277C166.454 123.704 162.553 128.117 157.589 133.522L160.536 136.228ZM178.111 115C179.645 111.984 181.108 109.491 182.498 107.506L179.221 105.212C177.694 107.394 176.136 110.058 174.545 113.187L178.111 115ZM182.479 107.533C183.214 106.519 183.831 105.733 184.335 105.159C184.866 104.554 185.179 104.292 185.3 104.214L183.137 100.849C182.53 101.24 181.918 101.849 181.329 102.521C180.713 103.222 180.015 104.116 179.24 105.185L182.479 107.533ZM185.31 104.207C187.157 103.005 189.659 102.283 192.949 102.187L192.832 98.1884C189.039 98.2999 185.76 99.1411 183.127 100.855L185.31 104.207ZM192.891 102.188C193.426 102.188 193.74 102.213 193.89 102.238L194.548 98.2928C194.073 98.2137 193.501 98.1875 192.891 98.1875V102.188ZM193.89 102.238C193.577 102.186 193.372 102.058 193.283 101.993C193.193 101.927 193.162 101.883 193.183 101.908C193.2 101.929 193.241 101.984 193.304 102.086C193.366 102.187 193.439 102.319 193.524 102.488L197.101 100.699C196.862 100.22 196.589 99.7518 196.27 99.3653C196.003 99.041 195.438 98.4413 194.548 98.2928L193.89 102.238ZM193.524 102.488C193.701 102.844 193.812 103.117 193.876 103.317C193.944 103.527 193.938 103.591 193.938 103.547H197.938C197.938 102.59 197.546 101.588 197.101 100.699L193.524 102.488ZM194.033 102.935C193.864 103.463 193.315 104.642 192.261 106.605C191.237 108.513 189.806 111.034 187.963 114.175L191.412 116.2C193.267 113.039 194.727 110.469 195.786 108.497C196.815 106.579 197.543 105.089 197.842 104.159L194.033 102.935ZM187.956 114.186C184.334 120.448 182.257 124.092 181.805 124.996L185.383 126.785C185.764 126.022 187.75 122.531 191.419 116.189L187.956 114.186ZM181.793 125.02C178.707 131.402 176.372 136.713 174.805 140.937C173.265 145.087 172.375 148.417 172.375 150.734H176.375C176.375 149.198 177.022 146.46 178.555 142.329C180.06 138.272 182.335 133.088 185.394 126.761L181.793 125.02ZM172.375 150.734C172.375 152.025 172.611 153.36 173.409 154.407C174.286 155.558 175.565 156.016 176.875 156.016V152.016C176.675 152.016 176.593 151.983 176.583 151.978C176.578 151.976 176.582 151.977 176.589 151.983C176.596 151.989 176.597 151.991 176.591 151.983C176.556 151.937 176.375 151.631 176.375 150.734H172.375ZM177.148 155.997C180.883 155.482 184.935 152.613 189.252 148.139L186.373 145.361C182.148 149.741 178.909 151.716 176.602 152.034L177.148 155.997ZM189.25 148.141C190.827 146.511 192.379 144.854 193.904 143.171L190.94 140.485C189.444 142.136 187.923 143.76 186.375 145.359L189.25 148.141ZM193.881 143.196C194.656 142.369 195.271 141.73 195.731 141.27C195.961 141.039 196.143 140.863 196.282 140.735C196.435 140.594 196.489 140.555 196.475 140.565L194.15 137.31C193.81 137.553 193.363 137.981 192.902 138.441C192.399 138.945 191.75 139.62 190.963 140.46L193.881 143.196ZM196.614 140.456C196.615 140.455 196.612 140.458 196.605 140.462C196.597 140.466 196.59 140.47 196.584 140.472C196.578 140.474 196.577 140.473 196.585 140.472C196.593 140.471 196.611 140.469 196.641 140.469V136.469C195.686 136.469 194.77 136.769 194.011 137.419L196.614 140.456ZM293.516 52.375L291.792 51.361L291.787 51.369L291.782 51.3771L293.516 52.375ZM286.562 63.7812L288.259 64.8413L288.263 64.8345L286.562 63.7812ZM278.047 77.5312L279.75 78.5792L279.755 78.572L278.047 77.5312ZM248.125 151.984L247.034 150.308L247.025 150.314L247.016 150.32L248.125 151.984ZM258.984 142.141L257.529 140.769L257.528 140.77L258.984 142.141ZM265.234 140.188L263.284 140.631L263.286 140.641L263.289 140.651L265.234 140.188ZM265.156 148.781L266.932 149.701L266.939 149.688L266.945 149.676L265.156 148.781ZM255.156 159.484L256.421 161.034L256.423 161.032L255.156 159.484ZM233.594 139.641L235.405 140.489L232.01 138.419L233.594 139.641ZM220.703 153.625L222.017 155.133L222.025 155.126L220.703 153.625ZM192.109 160.734L190.445 161.844L190.454 161.856L190.462 161.869L192.109 160.734ZM207.734 118.234L209.119 119.678L209.119 119.677L207.734 118.234ZM224.844 105.891L225.773 107.661L225.785 107.655L224.844 105.891ZM247.969 103.938L246.625 105.419L248.39 107.02L249.661 105.004L247.969 103.938ZM256.328 89.5625L254.608 88.5421L254.597 88.5601L254.587 88.5784L256.328 89.5625ZM281.641 50.1875L283.151 51.4986L283.192 51.4512L283.23 51.4013L281.641 50.1875ZM243.203 111.281L244.845 112.424L247.773 108.217L242.769 109.329L243.203 111.281ZM207.734 138.469L209.48 139.444L209.484 139.437L207.734 138.469ZM227.188 131.359L225.696 130.026L225.689 130.034L227.188 131.359ZM291.875 47.8906C292.407 47.8906 292.615 48.0379 292.744 48.1796L295.693 45.4767C294.677 44.3684 293.323 43.8906 291.875 43.8906V47.8906ZM292.744 48.1796C293.068 48.5326 293.078 48.7221 293.078 48.7812H297.078C297.078 47.4862 296.515 46.3736 295.693 45.4767L292.744 48.1796ZM293.078 48.7812C293.078 48.6552 293.098 48.7887 292.853 49.351C292.638 49.8461 292.292 50.5108 291.792 51.361L295.239 53.389C295.781 52.4684 296.216 51.6487 296.522 50.9459C296.798 50.3103 297.078 49.5323 297.078 48.7812H293.078ZM291.782 51.3771C290.812 53.0623 288.513 56.835 284.862 62.728L288.263 64.8345C291.904 58.9567 294.24 55.1252 295.249 53.3729L291.782 51.3771ZM284.867 62.7213C281.219 68.557 278.376 73.1477 276.339 76.4905L279.755 78.572C281.78 75.2482 284.614 70.6722 288.258 64.8412L284.867 62.7213ZM276.343 76.4833C264.505 95.7279 255.203 112.029 248.45 125.378L252.019 127.184C258.704 113.971 267.943 97.7721 279.75 78.5792L276.343 76.4833ZM248.45 125.378C245.082 132.036 242.538 137.411 240.831 141.485C239.978 143.521 239.323 145.261 238.877 146.692C238.446 148.075 238.156 149.335 238.156 150.344H242.156C242.156 149.972 242.287 149.195 242.696 147.882C243.09 146.618 243.694 145.005 244.521 143.03C246.173 139.084 248.668 133.807 252.019 127.184L248.45 125.378ZM238.156 150.344V150.969H242.156V150.344H238.156ZM238.156 150.969C238.156 152.221 238.375 153.523 239.128 154.552C239.967 155.698 241.212 156.172 242.5 156.172V152.172C242.336 152.172 242.287 152.144 242.304 152.152C242.312 152.155 242.325 152.163 242.34 152.175C242.354 152.187 242.359 152.194 242.356 152.19C242.328 152.152 242.156 151.852 242.156 150.969H238.156ZM242.5 156.172C244.644 156.172 246.919 155.192 249.234 153.648L247.016 150.32C244.956 151.693 243.481 152.172 242.5 152.172V156.172ZM249.216 153.66C251.557 152.136 253.622 150.488 255.399 148.711L252.57 145.883C251.014 147.439 249.172 148.916 247.034 150.308L249.216 153.66ZM255.399 148.711C257.08 147.03 258.761 145.296 260.441 143.511L257.528 140.77C255.875 142.526 254.222 144.231 252.57 145.883L255.399 148.711ZM260.44 143.513C262.198 141.648 263.148 140.681 263.411 140.456L260.808 137.419C260.341 137.819 259.208 138.988 257.529 140.769L260.44 143.513ZM263.411 140.456C263.403 140.463 263.393 140.47 263.383 140.476C263.373 140.481 263.366 140.483 263.367 140.483C263.368 140.483 263.411 140.469 263.516 140.469V136.469C262.562 136.469 261.602 136.738 260.808 137.419L263.411 140.456ZM263.516 140.469C263.519 140.469 263.469 140.469 263.39 140.438C263.307 140.405 263.24 140.357 263.195 140.313C263.155 140.273 263.157 140.259 263.181 140.308C263.205 140.359 263.245 140.46 263.284 140.631L267.185 139.744C267.006 138.96 266.671 138.132 266.024 137.484C265.325 136.786 264.435 136.469 263.516 136.469V140.469ZM263.289 140.651C263.495 141.517 263.625 142.896 263.625 144.875H267.625C267.625 142.791 267.494 141.045 267.18 139.724L263.289 140.651ZM263.625 144.875C263.625 145.821 263.587 146.555 263.522 147.098C263.452 147.684 263.366 147.889 263.367 147.887L266.945 149.676C267.259 149.049 267.408 148.29 267.494 147.574C267.585 146.815 267.625 145.909 267.625 144.875H263.625ZM263.38 147.862C262.068 150.396 259.008 153.749 253.89 157.936L256.423 161.032C261.617 156.782 265.224 153 266.932 149.701L263.38 147.862ZM253.891 157.935C248.992 161.935 244.583 163.734 240.625 163.734V167.734C245.834 167.734 251.112 165.367 256.421 161.034L253.891 157.935ZM240.625 163.734C236.953 163.734 234.572 162.95 233.128 161.728C231.748 160.559 230.906 158.716 230.906 155.812H226.906C226.906 159.523 228.018 162.642 230.544 164.78C233.006 166.865 236.484 167.734 240.625 167.734V163.734ZM230.906 155.812C230.906 152.139 232.321 147.068 235.405 140.489L231.783 138.792C228.617 145.546 226.906 151.257 226.906 155.812H230.906ZM232.01 138.419C227.856 143.805 223.645 148.368 219.381 152.124L222.025 155.126C226.512 151.173 230.894 146.414 235.177 140.862L232.01 138.419ZM219.389 152.117C211.367 159.111 204.778 162.25 199.531 162.25V166.25C206.264 166.25 213.789 162.306 222.017 155.133L219.389 152.117ZM199.531 162.25C196.726 162.25 194.93 161.303 193.756 159.6L190.462 161.869C192.518 164.853 195.67 166.25 199.531 166.25V162.25ZM193.773 159.625C192.52 157.745 191.766 154.839 191.766 150.656H187.766C187.766 155.224 188.574 159.036 190.445 161.844L193.773 159.625ZM191.766 150.656C191.766 146.716 193.308 141.78 196.667 135.773L193.176 133.821C189.661 140.106 187.766 145.742 187.766 150.656H191.766ZM196.667 135.773C200.008 129.801 204.157 124.437 209.119 119.678L206.35 116.791C201.104 121.823 196.711 127.501 193.176 133.821L196.667 135.773ZM209.119 119.677C214.142 114.858 219.692 110.854 225.773 107.661L223.914 104.12C217.496 107.489 211.64 111.715 206.35 116.791L209.119 119.677ZM225.785 107.655C231.841 104.425 237.271 102.891 242.109 102.891V98.8906C236.427 98.8906 230.346 100.689 223.903 104.126L225.785 107.655ZM242.109 102.891C243.008 102.891 244.485 103.478 246.625 105.419L249.312 102.456C246.974 100.335 244.544 98.8906 242.109 98.8906V102.891ZM249.661 105.004C251.201 102.561 254.01 97.728 258.069 90.5466L254.587 88.5784C250.521 95.772 247.758 100.522 246.277 102.871L249.661 105.004ZM258.048 90.5829C270.843 69.0145 279.181 56.0715 283.151 51.4986L280.13 48.8764C275.871 53.7826 267.334 67.0897 254.608 88.5421L258.048 90.5829ZM283.23 51.4013C284.935 49.1691 287.668 47.8906 291.875 47.8906V43.8906C286.811 43.8906 282.722 45.4767 280.051 48.9737L283.23 51.4013ZM242.769 109.329C234.936 111.07 227.674 114.711 220.995 120.205L223.536 123.295C229.773 118.164 236.471 114.826 243.637 113.234L242.769 109.329ZM220.995 120.205C214.39 125.639 209.362 131.398 205.985 137.5L209.484 139.437C212.565 133.873 217.225 128.486 223.536 123.295L220.995 120.205ZM205.988 137.493C204.358 140.412 203.11 142.862 202.265 144.826C201.458 146.699 200.891 148.406 200.891 149.719H204.891C204.891 149.313 205.13 148.285 205.939 146.408C206.707 144.622 207.882 142.307 209.48 139.444L205.988 137.493ZM200.891 149.719C200.891 150.659 200.981 151.628 201.323 152.433C201.503 152.857 201.793 153.333 202.27 153.708C202.777 154.107 203.377 154.297 203.984 154.297V150.297C204.227 150.297 204.508 150.38 204.742 150.563C204.844 150.644 204.911 150.723 204.951 150.78C204.99 150.835 205.005 150.87 205.005 150.871C205.006 150.873 204.996 150.85 204.983 150.796C204.969 150.743 204.954 150.668 204.939 150.567C204.91 150.361 204.891 150.082 204.891 149.719H200.891ZM203.984 154.297C205.382 154.297 206.872 153.571 208.274 152.671C209.761 151.715 211.497 150.327 213.469 148.547C217.419 144.983 222.496 139.683 228.686 132.684L225.689 130.034C219.535 136.994 214.573 142.163 210.789 145.578C208.894 147.288 207.339 148.517 206.111 149.306C204.798 150.15 204.149 150.297 203.984 150.297V154.297ZM228.679 132.692C234.87 125.766 240.26 119.01 244.845 112.424L241.562 110.139C237.083 116.573 231.797 123.202 225.696 130.026L228.679 132.692ZM319.844 117.688L318.114 116.683L318.11 116.69L319.844 117.688ZM312.5 132.375L310.678 131.551L310.674 131.558L312.5 132.375ZM307.344 147.609L309.259 148.184L309.291 148.08L309.31 147.974L307.344 147.609ZM315 151.906L316.128 153.558L316.142 153.549L316.155 153.539L315 151.906ZM320.703 147.141L322.117 148.555L322.128 148.544L322.139 148.533L320.703 147.141ZM325.547 141.906L324.069 140.559L324.058 140.571L324.047 140.583L325.547 141.906ZM331.484 148.781L333.267 149.688L333.273 149.676L331.484 148.781ZM321.484 159.484L320.227 157.929L320.22 157.935L321.484 159.484ZM296.875 145.266L298.703 146.078L295.289 144.047L296.875 145.266ZM281.953 159.562L280.812 157.92L280.805 157.925L281.953 159.562ZM259.609 162.219L260.99 160.771L260.979 160.762L260.969 160.752L259.609 162.219ZM258.438 136.984L256.611 136.17L256.607 136.18L258.438 136.984ZM266.797 123.938L268.298 125.259L268.307 125.249L266.797 123.938ZM278.125 113.156L276.892 111.582L276.89 111.583L278.125 113.156ZM312.266 107.922L310.368 108.554L311.661 112.434L313.93 109.031L312.266 107.922ZM315.391 104.406L316.371 106.149L316.388 106.14L316.405 106.13L315.391 104.406ZM308.906 112.297L310.524 113.473L312.834 110.297H308.906V112.297ZM281.25 127.141L279.809 125.753L279.804 125.759L281.25 127.141ZM271.875 139.875L270.144 138.873L270.14 138.88L270.136 138.887L271.875 139.875ZM281.406 144.172L282.71 145.689L282.717 145.683L281.406 144.172ZM294.688 131.438L296.243 132.694L296.249 132.687L296.254 132.68L294.688 131.438ZM319.297 105.625C321.11 105.625 322.117 105.946 322.621 106.291C322.988 106.543 323.234 106.894 323.234 107.688H327.234C327.234 105.773 326.491 104.093 324.879 102.99C323.404 101.981 321.442 101.625 319.297 101.625V105.625ZM323.234 107.688C323.234 108.888 322.95 109.331 322.805 109.476L325.633 112.305C326.842 111.096 327.234 109.404 327.234 107.688H323.234ZM322.805 109.476C322.292 109.989 321.65 110.905 320.935 112.015C320.183 113.185 319.241 114.744 318.114 116.683L321.573 118.692C322.686 116.777 323.593 115.276 324.299 114.18C325.042 113.025 325.469 112.469 325.633 112.305L322.805 109.476ZM318.11 116.69C315.879 120.569 313.401 125.528 310.678 131.551L314.322 133.199C317.016 127.243 319.434 122.41 321.577 118.685L318.11 116.69ZM310.674 131.558C307.983 137.574 306.198 142.813 305.377 147.245L309.31 147.974C310.052 143.969 311.705 139.051 314.326 133.192L310.674 131.558ZM305.428 147.035C305.19 147.829 305.109 148.784 305.109 149.797H309.109C309.109 148.935 309.185 148.431 309.259 148.184L305.428 147.035ZM305.109 149.797C305.109 151.346 305.309 152.822 305.94 153.977C306.271 154.585 306.741 155.138 307.385 155.532C308.033 155.928 308.746 156.094 309.453 156.094V152.094C309.379 152.094 309.408 152.08 309.471 152.119C309.529 152.154 309.51 152.17 309.451 152.062C309.3 151.785 309.109 151.113 309.109 149.797H305.109ZM309.453 156.094C311.604 156.094 313.857 155.109 316.128 153.558L313.872 150.255C311.872 151.62 310.427 152.094 309.453 152.094V156.094ZM316.155 153.539C318.373 151.97 320.362 150.31 322.117 148.555L319.289 145.726C317.71 147.305 315.898 148.821 313.845 150.273L316.155 153.539ZM322.139 148.533C323.827 146.792 325.463 145.024 327.047 143.229L324.047 140.583C322.506 142.33 320.912 144.052 319.267 145.748L322.139 148.533ZM327.025 143.254C327.828 142.372 328.463 141.687 328.931 141.193C329.166 140.946 329.353 140.753 329.495 140.611C329.566 140.539 329.622 140.485 329.664 140.446C329.709 140.403 329.724 140.391 329.718 140.396L327.157 137.323C326.71 137.695 325.627 138.85 324.069 140.559L327.025 143.254ZM329.718 140.396C329.618 140.479 329.545 140.497 329.559 140.493C329.566 140.491 329.592 140.485 329.641 140.479C329.689 140.473 329.756 140.469 329.844 140.469V136.469C328.99 136.469 327.978 136.639 327.157 137.323L329.718 140.396ZM329.844 140.469C329.831 140.469 329.756 140.465 329.654 140.417C329.551 140.368 329.49 140.305 329.468 140.278C329.453 140.258 329.482 140.289 329.527 140.414C329.572 140.54 329.621 140.731 329.659 141.008L333.622 140.461C333.495 139.539 333.218 138.568 332.602 137.792C331.912 136.922 330.93 136.469 329.844 136.469V140.469ZM329.659 141.008C329.855 142.422 329.953 143.893 329.953 145.422H333.953C333.953 143.721 333.843 142.067 333.622 140.461L329.659 141.008ZM329.953 145.422C329.953 147.031 329.778 147.723 329.696 147.887L333.273 149.676C333.816 148.59 333.953 147.042 333.953 145.422H329.953ZM329.702 147.874C328.392 150.449 325.339 153.798 320.227 157.929L322.741 161.04C327.942 156.837 331.556 153.051 333.267 149.688L329.702 147.874ZM320.22 157.935C315.283 161.965 311.061 163.734 307.5 163.734V167.734C312.376 167.734 317.477 165.337 322.749 161.034L320.22 157.935ZM307.5 163.734C303.756 163.734 301.356 162.608 299.862 160.681L296.701 163.132C299.164 166.309 302.911 167.734 307.5 167.734V163.734ZM299.862 160.681C298.14 158.46 297.312 156.074 297.312 153.469H293.312C293.312 157.009 294.465 160.248 296.701 163.132L299.862 160.681ZM297.312 153.469C297.312 150.564 297.797 148.116 298.703 146.078L295.047 144.453C293.87 147.102 293.312 150.124 293.312 153.469H297.312ZM295.289 144.047C291.087 149.514 286.262 154.135 280.812 157.92L283.094 161.205C288.894 157.177 294.017 152.267 298.461 146.484L295.289 144.047ZM280.805 157.925C275.306 161.779 271.179 163.422 268.281 163.422V167.422C272.467 167.422 277.454 165.158 283.101 161.2L280.805 157.925ZM268.281 163.422C265.173 163.422 262.803 162.5 260.99 160.771L258.229 163.666C260.895 166.208 264.306 167.422 268.281 167.422V163.422ZM260.969 160.752C258.594 158.549 257.312 155.455 257.312 151.203H253.312C253.312 156.327 254.896 160.576 258.249 163.685L260.969 160.752ZM257.312 151.203C257.312 146.765 258.286 142.299 260.268 137.789L256.607 136.18C254.422 141.149 253.312 146.162 253.312 151.203H257.312ZM260.264 137.798C262.318 133.19 264.995 129.012 268.298 125.259L265.295 122.616C261.723 126.675 258.828 131.196 256.611 136.17L260.264 137.798ZM268.307 125.249C271.661 121.386 275.345 117.88 279.36 114.73L276.89 111.583C272.676 114.891 268.807 118.572 265.287 122.626L268.307 125.249ZM279.358 114.731C287.822 108.103 295.363 105 302.031 105V101C294.116 101 285.72 104.668 276.892 111.582L279.358 114.731ZM302.031 105C304.642 105 306.581 105.438 307.97 106.174L309.842 102.639C307.69 101.499 305.046 101 302.031 101V105ZM307.97 106.174C309.45 106.957 310.112 107.787 310.368 108.554L314.163 107.289C313.481 105.244 311.904 103.73 309.842 102.639L307.97 106.174ZM313.93 109.031C315.181 107.154 315.996 106.36 316.371 106.149L314.41 102.663C313.118 103.39 311.85 104.94 310.602 106.812L313.93 109.031ZM316.405 106.13C316.84 105.874 317.722 105.625 319.297 105.625V101.625C317.434 101.625 315.712 101.897 314.377 102.682L316.405 106.13ZM308.906 110.297C299.223 110.297 289.517 115.675 279.809 125.753L282.691 128.528C292.046 118.815 300.777 114.297 308.906 114.297V110.297ZM279.804 125.759C276.293 129.432 273.075 133.81 270.144 138.873L273.606 140.877C276.404 136.044 279.437 131.932 282.696 128.523L279.804 125.759ZM270.136 138.887C268.709 141.398 267.611 143.56 266.864 145.358C266.141 147.098 265.656 148.705 265.656 150.031H269.656C269.656 149.534 269.874 148.538 270.558 146.892C271.217 145.305 272.229 143.3 273.614 140.863L270.136 138.887ZM265.656 150.031C265.656 151.068 265.793 152.169 266.31 153.074C266.923 154.147 267.973 154.766 269.219 154.766V150.766C269.258 150.766 269.388 150.777 269.543 150.867C269.697 150.957 269.768 151.062 269.783 151.09C269.792 151.105 269.755 151.044 269.719 150.853C269.683 150.666 269.656 150.398 269.656 150.031H265.656ZM269.219 154.766C270.102 154.766 271 154.378 271.722 154.004C272.525 153.587 273.46 152.993 274.512 152.252C276.62 150.765 279.359 148.569 282.71 145.689L280.103 142.655C276.787 145.504 274.161 147.605 272.207 148.983C271.227 149.674 270.457 150.154 269.88 150.453C269.221 150.795 269.065 150.766 269.219 150.766V154.766ZM282.717 145.683C289.378 139.906 293.931 135.557 296.243 132.694L293.132 130.181C291.069 132.735 286.768 136.875 280.096 142.661L282.717 145.683ZM296.254 132.68C298.681 129.621 303.445 123.206 310.524 113.473L307.289 111.121C300.201 120.867 295.486 127.212 293.121 130.195L296.254 132.68ZM375.391 60.7344L373.85 62.0095L373.863 62.025L373.876 62.0403L375.391 60.7344ZM374.688 73.8594L373.092 72.6537L373.083 72.6651L373.075 72.6766L374.688 73.8594ZM366.875 81.2812L368.067 82.8871L368.071 82.8841L366.875 81.2812ZM355.703 84.1719L354.289 85.5861L354.317 85.6144L354.347 85.6415L355.703 84.1719ZM354.219 83.0781L354.768 81.1551L354.219 83.0781ZM357.422 75.9688L355.785 74.8195L355.78 74.8266L357.422 75.9688ZM360.469 71.125L362.326 71.8678L362.833 70.5999L361.837 69.6659L360.469 71.125ZM362.188 61.5938L360.755 60.1975L360.746 60.2068L360.738 60.2163L362.188 61.5938ZM369.375 60.4688C371.793 60.4688 373.116 61.1233 373.85 62.0095L376.931 59.4592C375.165 57.3246 372.477 56.4688 369.375 56.4688V60.4688ZM373.876 62.0403C374.798 63.1101 375.344 64.5899 375.344 66.6719H379.344C379.344 63.858 378.587 61.3795 376.905 59.4285L373.876 62.0403ZM375.344 66.6719C375.344 68.6028 374.654 70.5857 373.092 72.6537L376.283 75.065C378.262 72.4456 379.344 69.6368 379.344 66.6719H375.344ZM373.075 72.6766C371.516 74.8021 369.08 77.14 365.679 79.6784L368.071 82.8841C371.649 80.2142 374.421 77.6041 376.3 75.0421L373.075 72.6766ZM365.683 79.6754C364.016 80.9127 362.622 81.7966 361.488 82.3635C360.319 82.9484 359.594 83.1094 359.219 83.1094V87.1094C360.51 87.1094 361.895 86.6323 363.277 85.9412C364.696 85.2321 366.296 84.2019 368.067 82.8871L365.683 79.6754ZM359.219 83.1094C357.689 83.1094 357.166 82.8002 357.06 82.7023L354.347 85.6415C355.595 86.7936 357.416 87.1094 359.219 87.1094V83.1094ZM357.117 82.7577C356.762 82.4021 356.404 82.0809 356.05 81.8196C355.714 81.5725 355.278 81.3007 354.768 81.1551L353.669 85.0012C353.585 84.977 353.546 84.9537 353.559 84.9609C353.57 84.9668 353.609 84.9894 353.677 85.0398C353.817 85.1431 354.019 85.3166 354.289 85.5861L357.117 82.7577ZM354.768 81.1551C355.011 81.2243 355.227 81.3553 355.394 81.5223C355.551 81.6794 355.626 81.8293 355.658 81.9065C355.709 82.0316 355.672 82.0238 355.672 81.75H351.672C351.672 82.2574 351.725 82.8616 351.959 83.4295C352.216 84.0537 352.748 84.738 353.669 85.0012L354.768 81.1551ZM355.672 81.75C355.672 81.6235 355.68 81.5308 355.689 81.4669C355.699 81.4029 355.708 81.3768 355.708 81.3788C355.707 81.3819 355.693 81.4167 355.657 81.4678C355.62 81.5208 355.566 81.5791 355.497 81.6312L353.097 78.4313C351.935 79.3029 351.672 80.6682 351.672 81.75H355.672ZM355.497 81.6312C355.779 81.42 356.036 81.1419 356.232 80.9186C356.452 80.6665 356.702 80.3568 356.976 80.0007C357.525 79.2868 358.223 78.3195 359.064 77.1109L355.78 74.8266C354.954 76.0138 354.298 76.9216 353.805 77.5618C353.558 77.8828 353.365 78.12 353.221 78.2846C353.052 78.4779 353.024 78.4863 353.097 78.4313L355.497 81.6312ZM359.059 77.118C360.738 74.7267 361.909 72.9094 362.326 71.8678L358.612 70.3822C358.403 70.9031 357.544 72.3149 355.785 74.8195L359.059 77.118ZM361.837 69.6659C361.572 69.4182 361.219 68.8191 361.219 67.375H357.219C357.219 69.3684 357.698 71.2693 359.101 72.5841L361.837 69.6659ZM361.219 67.375C361.219 66.3557 361.803 64.9026 363.637 62.9712L360.738 60.2163C358.614 62.4515 357.219 64.8526 357.219 67.375H361.219ZM363.62 62.99C365.297 61.2694 367.185 60.4688 369.375 60.4688V56.4688C366.044 56.4688 363.14 57.7514 360.755 60.1975L363.62 62.99ZM357.344 147.375L359.34 147.5L359.344 147.437V147.375H357.344ZM357.266 148.625L355.27 148.5L355.266 148.563V148.625H357.266ZM378.047 150.578L377.325 148.713L377.318 148.716L378.047 150.578ZM382.656 142.688L381.923 144.548L381.957 144.562L381.991 144.573L382.656 142.688ZM373.828 140.266L373.36 142.21L373.375 142.214L373.389 142.217L373.828 140.266ZM364.844 138L364.259 139.913L364.284 139.92L364.308 139.927L364.844 138ZM357.031 134.484L358.208 132.867L358.194 132.857L358.181 132.848L357.031 134.484ZM357.109 116.672L355.512 115.468L355.509 115.472L357.109 116.672ZM366.641 108L365.574 106.308L366.641 108ZM378.906 101.672L378.139 99.8251L378.137 99.8257L378.906 101.672ZM411.406 100.031L413.216 99.1797L413.192 99.1284L413.165 99.0787L411.406 100.031ZM410.234 110.031L408.647 108.814L408.634 108.831L408.622 108.849L410.234 110.031ZM404.688 114.25L403.808 112.454L403.8 112.457L403.793 112.461L404.688 114.25ZM395.859 115.812L394.867 117.549L394.915 117.577L394.965 117.601L395.859 115.812ZM394.922 115.031L393.294 116.194L393.338 116.254L393.385 116.312L394.922 115.031ZM393.906 114.25L393.118 116.088L393.161 116.106L393.204 116.123L393.906 114.25ZM394.141 111.203L395.677 112.483L395.702 112.453L395.726 112.423L394.141 111.203ZM395.234 109.094L397.157 109.643L397.921 106.97L395.144 107.096L395.234 109.094ZM384.453 111.516L385.155 113.388L385.167 113.384L385.178 113.38L384.453 111.516ZM374.766 116.281L373.671 114.607L373.664 114.612L373.656 114.617L374.766 116.281ZM369.062 126.75L369.451 124.788L369.447 124.787L369.062 126.75ZM385.469 159.719L384.603 157.916L384.595 157.919L384.588 157.923L385.469 159.719ZM350.625 163L351.879 161.442L351.874 161.438L350.625 163ZM349.062 149.094L347.351 148.059L347.344 148.071L349.062 149.094ZM355.348 147.25L355.27 148.5L359.262 148.75L359.34 147.5L355.348 147.25ZM355.266 148.625C355.266 150.505 356.007 152.141 357.375 153.436L360.125 150.532C359.514 149.953 359.266 149.35 359.266 148.625H355.266ZM357.375 153.436C358.512 154.514 359.898 155.391 361.484 155.391V151.391C361.404 151.391 360.967 151.33 360.125 150.532L357.375 153.436ZM361.484 155.391C367.932 155.391 373.708 154.424 378.776 152.441L377.318 148.716C372.803 150.483 367.537 151.391 361.484 151.391V155.391ZM378.769 152.443C381.264 151.477 383.287 150.457 384.72 149.347C386.112 148.269 387.312 146.816 387.312 144.953H383.312C383.312 144.966 383.302 145.387 382.272 146.184C381.283 146.949 379.673 147.804 377.325 148.713L378.769 152.443ZM387.312 144.953C387.312 143.754 386.685 142.831 385.946 142.201C385.238 141.597 384.314 141.152 383.322 140.802L381.991 144.573C382.769 144.848 383.174 145.094 383.351 145.244C383.497 145.369 383.312 145.267 383.312 144.953H387.312ZM383.389 140.827C381.514 140.088 378.439 139.253 374.267 138.314L373.389 142.217C377.551 143.153 380.361 143.933 381.923 144.548L383.389 140.827ZM374.296 138.321C370.184 137.332 367.218 136.584 365.379 136.073L364.308 139.927C366.219 140.458 369.243 141.22 373.36 142.21L374.296 138.321ZM365.428 136.087C363.584 135.524 362.177 135.027 361.178 134.599L359.603 138.276C360.792 138.785 362.353 139.33 364.259 139.913L365.428 136.087ZM361.178 134.599C360.245 134.199 359.255 133.628 358.208 132.867L355.855 136.102C357.099 137.007 358.349 137.738 359.603 138.276L361.178 134.599ZM358.181 132.848C356.342 131.557 355.359 129.661 355.359 126.828H351.359C351.359 130.766 352.824 133.974 355.882 136.121L358.181 132.848ZM355.359 126.828C355.359 123.909 356.413 120.934 358.709 117.872L355.509 115.472C352.806 119.076 351.359 122.872 351.359 126.828H355.359ZM358.706 117.876C361.104 114.695 364.097 111.967 367.707 109.692L365.574 106.308C361.58 108.825 358.219 111.878 355.512 115.468L358.706 117.876ZM367.707 109.692C371.409 107.359 375.398 105.3 379.675 103.518L378.137 99.8257C373.664 101.689 369.476 103.849 365.574 106.308L367.707 109.692ZM379.674 103.519C388.204 99.9732 395.191 98.2812 400.703 98.2812V94.2812C394.445 94.2812 386.901 96.183 378.139 99.8251L379.674 103.519ZM400.703 98.2812C403.475 98.2812 405.564 98.5842 407.054 99.1063C408.526 99.6221 409.276 100.299 409.648 100.984L413.165 99.0787C412.182 97.264 410.472 96.0654 408.376 95.3312C406.298 94.6033 403.713 94.2812 400.703 94.2812V98.2812ZM409.597 100.883C409.874 101.472 410.031 102.166 410.031 103H414.031C414.031 101.647 413.772 100.361 413.216 99.1797L409.597 100.883ZM410.031 103V103.547H414.031V103H410.031ZM410.031 103.547C410.031 106.04 409.488 107.717 408.647 108.814L411.822 111.248C413.376 109.22 414.031 106.574 414.031 103.547H410.031ZM408.622 108.849C407.735 110.057 406.195 111.285 403.808 112.454L405.567 116.046C408.284 114.715 410.442 113.13 411.847 111.214L408.622 108.849ZM403.793 112.461C401.373 113.671 399.708 114.125 398.672 114.125V118.125C400.657 118.125 403.002 117.329 405.582 116.039L403.793 112.461ZM398.672 114.125C397.981 114.125 397.463 114.1 397.096 114.059C396.913 114.039 396.792 114.017 396.719 114C396.637 113.981 396.666 113.98 396.754 114.024L394.965 117.601C395.506 117.872 396.141 117.978 396.654 118.035C397.224 118.098 397.904 118.125 398.672 118.125V114.125ZM396.852 114.076C396.687 113.982 396.561 113.874 396.458 113.751L393.385 116.312C393.804 116.813 394.302 117.226 394.867 117.549L396.852 114.076ZM396.549 113.869C396.06 113.183 395.4 112.674 394.608 112.377L393.204 116.123C393.246 116.138 393.263 116.15 393.294 116.194L396.549 113.869ZM394.694 112.412C394.831 112.47 394.965 112.558 395.081 112.675C395.195 112.789 395.267 112.905 395.308 112.994C395.384 113.155 395.359 113.22 395.359 113.078H391.359C391.359 113.986 391.638 115.454 393.118 116.088L394.694 112.412ZM395.359 113.078C395.359 113.047 395.364 112.859 395.677 112.483L392.604 109.923C391.876 110.797 391.359 111.86 391.359 113.078H395.359ZM395.726 112.423C396.381 111.571 396.872 110.644 397.157 109.643L393.311 108.544C393.181 109.002 392.942 109.481 392.555 109.984L395.726 112.423ZM395.144 107.096C391.456 107.263 387.647 108.128 383.728 109.652L385.178 113.38C388.759 111.987 392.138 111.237 395.325 111.092L395.144 107.096ZM383.751 109.643C379.894 111.089 376.527 112.74 373.671 114.607L375.86 117.955C378.42 116.281 381.512 114.755 385.155 113.388L383.751 109.643ZM373.656 114.617C370.942 116.427 368.643 118.181 366.777 119.881L369.473 122.837C371.149 121.309 373.277 119.677 375.875 117.945L373.656 114.617ZM366.777 119.881C365.846 120.73 365.077 121.533 364.524 122.28C364.025 122.956 363.469 123.892 363.469 124.953H367.469C367.469 125.233 367.356 125.179 367.741 124.658C368.074 124.207 368.633 123.603 369.473 122.837L366.777 119.881ZM363.469 124.953C363.469 126.555 364.773 127.388 365.473 127.738C366.315 128.159 367.423 128.467 368.678 128.713L369.447 124.787C368.306 124.564 367.618 124.338 367.262 124.16C367.085 124.072 367.1 124.049 367.178 124.136C367.282 124.25 367.469 124.535 367.469 124.953H363.469ZM368.674 128.712C379.493 130.855 386.34 132.666 389.474 134.113L391.151 130.481C387.514 128.803 380.195 126.916 369.451 124.788L368.674 128.712ZM389.474 134.113C392.699 135.601 394.662 137.172 395.673 138.709L399.015 136.51C397.421 134.088 394.697 132.118 391.151 130.481L389.474 134.113ZM395.673 138.709C396.855 140.506 397.297 141.919 397.297 143H401.297C401.297 140.852 400.437 138.672 399.015 136.51L395.673 138.709ZM397.297 143C397.297 145.749 396.218 148.442 393.822 151.12L396.803 153.787C399.72 150.527 401.297 146.918 401.297 143H397.297ZM393.822 151.12C391.356 153.876 388.293 156.145 384.603 157.916L386.334 161.522C390.457 159.543 393.956 156.968 396.803 153.787L393.822 151.12ZM384.588 157.923C376.352 161.964 369.347 163.891 363.516 163.891V167.891C370.184 167.891 377.814 165.702 386.35 161.514L384.588 157.923ZM363.516 163.891C357.385 163.891 353.703 162.909 351.879 161.442L349.371 164.558C352.339 166.945 357.251 167.891 363.516 167.891V163.891ZM351.874 161.438C349.924 159.878 349.109 158.181 349.109 156.281H345.109C345.109 159.59 346.639 162.372 349.376 164.562L351.874 161.438ZM349.109 156.281C349.109 154.029 349.668 151.987 350.781 150.117L347.344 148.071C345.853 150.575 345.109 153.326 345.109 156.281H349.109ZM350.774 150.129C351.873 148.311 353.02 147.734 354.219 147.734V143.734C351.251 143.734 348.96 145.397 347.351 148.059L350.774 150.129ZM354.219 147.734C354.658 147.734 354.993 147.764 355.241 147.807C355.494 147.851 355.607 147.902 355.633 147.915C355.649 147.924 355.553 147.876 355.46 147.729C355.362 147.575 355.344 147.432 355.344 147.375H359.344C359.344 146.771 359.195 146.15 358.837 145.585C358.483 145.028 357.997 144.639 357.492 144.374C356.541 143.875 355.37 143.734 354.219 143.734V147.734Z" fill="#E79D0F"/>
<defs>
<filter id="filter0_i_66_406" x="23.4375" y="45.8906" width="388.594" height="124.312" filterUnits="userSpaceOnUse" color-interpolation-filters="sRGB">
<feFlood flood-opacity="0" result="BackgroundImageFix"/>
<feBlend mode="normal" in="SourceGraphic" in2="BackgroundImageFix" result="shape"/>
<feColorMatrix in="SourceAlpha" type="matrix" values="0 0 0 0 0 0 0 0 0 0 0 0 0 0 0 0 0 0 127 0" result="hardAlpha"/>
<feOffset dy="4"/>
<feGaussianBlur stdDeviation="2"/>
<feComposite in2="hardAlpha" operator="arithmetic" k2="-1" k3="1"/>
<feColorMatrix type="matrix" values="0 0 0 0 0 0 0 0 0 0 0 0 0 0 0 0 0 0 0.25 0"/>
<feBlend mode="normal" in2="shape" result="effect1_innerShadow_66_406"/>
</filter>
</defs>
</svg>
