<svg width="584" height="150" viewBox="0 0 584 150" fill="none" xmlns="http://www.w3.org/2000/svg">
<g filter="url(#filter0_i_56_404)">
<path d="M74.4375 41.1875L79 40.1875C80.1667 40.1875 81.1042 40.4375 81.8125 40.9375C82.5208 41.4375 82.875 41.9167 82.875 42.375C82.875 42.7917 82.7708 43.4167 82.5625 44.25C82.3542 45.0833 80.6667 53.2083 77.5 68.625C74.3333 84.0417 72.0208 95.5417 70.5625 103.125C77.6458 93.5 85.9167 81.6458 95.375 67.5625C104.833 53.4792 110.354 44.125 111.938 39.5C112.438 38.0417 113.083 36.9167 113.875 36.125C114.667 35.3333 115.375 34.875 116 34.75C116.625 34.5833 117.583 34.5 118.875 34.5C120.167 34.5 121.688 34.7917 123.438 35.375C125.229 35.9167 126.125 36.8333 126.125 38.125C126.125 40.5833 122.479 47.6667 115.188 59.375C107.896 71.0833 99.5625 83.5208 90.1875 96.6875C80.8542 109.854 73.0417 120.271 66.75 127.938C65.625 129.312 64.25 130 62.625 130C61.0417 130 59.3542 129.729 57.5625 129.188C55.8125 128.604 54.9375 127.604 54.9375 126.188C54.9375 121.604 58.9583 99.5833 67 60.125C60.125 69.0417 51.7708 81.4583 41.9375 97.375C31.6875 113.833 25.8958 124.042 24.5625 128C23.8125 130.375 22.9583 131.75 22 132.125C21.3333 132.417 20.625 132.562 19.875 132.562L14.9375 133.125C13.9792 133.125 13.1042 132.854 12.3125 132.312C11.4792 131.771 11.0625 131.208 11.0625 130.625C11.0625 128.958 13.3542 123.979 17.9375 115.688C22.5625 107.396 27.9375 98.3958 34.0625 88.6875C40.2292 78.9375 46.6667 69.4583 53.375 60.25C60.0833 51.0417 65.2708 44.8542 68.9375 41.6875C69.6875 41.0208 70.5417 40.6875 71.5 40.6875L74.4375 41.1875ZM142.5 82.375C143.75 82.375 145.021 82.9375 146.312 84.0625C147.646 85.1875 148.312 86.9167 148.312 89.25C148.312 91.5417 147.5 94.5417 145.875 98.25C144.25 101.917 142.021 105.667 139.188 109.5C136.354 113.292 133.229 116.875 129.812 120.25C126.438 123.583 122.771 126.333 118.812 128.5C114.896 130.625 111.333 131.688 108.125 131.688C104.917 131.688 102.333 130.688 100.375 128.688C98.4583 126.646 97.5 123.833 97.5 120.25C97.5 116.625 98.375 112.625 100.125 108.25C101.917 103.875 104.208 100.021 107 96.6875C109.792 93.3125 112.812 90.2917 116.062 87.625C122.854 82.1667 128.812 79.4375 133.938 79.4375C136.229 79.4375 137.958 80 139.125 81.125C139.542 81.5 139.75 81.8333 139.75 82.125V82.5C140.333 82.4167 141.25 82.375 142.5 82.375ZM136.188 90.6875H135.75C134.292 90.6875 133.562 89.625 133.562 87.5C130.521 88.5 127.333 90.25 124 92.75C120.667 95.25 117.688 98.2083 115.062 101.625C109.729 108.458 107.021 114.229 106.938 118.938C106.938 121.271 107.792 122.438 109.5 122.438C111.208 122.438 113.75 121.312 117.125 119.062C120.5 116.812 123.833 113.604 127.125 109.438C130.458 105.271 132.938 101.667 134.562 98.625C136.229 95.5417 137.062 93.4583 137.062 92.375C137.062 91.25 136.771 90.6875 136.188 90.6875ZM153.812 117.5L153.75 118.5C153.75 119.542 154.146 120.438 154.938 121.188C155.729 121.938 156.458 122.312 157.125 122.312C162.125 122.312 166.542 121.562 170.375 120.062C174.25 118.562 176.188 117.062 176.188 115.562C176.188 114.854 175.479 114.25 174.062 113.75C172.688 113.208 170.333 112.562 167 111.812C163.708 111.021 161.312 110.417 159.812 110C158.312 109.542 157.125 109.125 156.25 108.75C155.375 108.375 154.479 107.854 153.562 107.188C151.604 105.812 150.625 103.771 150.625 101.062C150.625 98.3125 151.625 95.6042 153.625 92.9375C155.667 90.2292 158.208 87.9167 161.25 86C164.292 84.0833 167.562 82.3958 171.062 80.9375C177.979 78.0625 183.792 76.625 188.5 76.625C193.125 76.625 195.979 77.625 197.062 79.625C197.396 80.3333 197.562 81.125 197.562 82V82.4375C197.562 84.6458 197.083 86.375 196.125 87.625C195.208 88.875 193.729 90 191.688 91C189.688 92 188.083 92.5 186.875 92.5C185.708 92.5 184.958 92.4167 184.625 92.25C184.333 92.0833 184.083 91.875 183.875 91.625C183.667 91.3333 183.396 91.125 183.062 91C182.771 90.875 182.625 90.5625 182.625 90.0625C182.625 89.5625 182.833 89.0625 183.25 88.5625C183.667 88.0208 183.958 87.4583 184.125 86.875C181.375 87 178.5 87.6458 175.5 88.8125C172.5 89.9375 169.917 91.2083 167.75 92.625C165.625 94.0417 163.854 95.3958 162.438 96.6875C161.021 97.9792 160.312 98.9375 160.312 99.5625C160.312 100.146 161.271 100.625 163.188 101C171.812 102.708 177.479 104.188 180.188 105.438C182.896 106.688 184.771 108.104 185.812 109.688C186.854 111.271 187.375 112.708 187.375 114C187.375 116.667 186.312 119.188 184.188 121.562C182.062 123.938 179.438 125.875 176.312 127.375C169.604 130.667 163.75 132.312 158.75 132.312C153.792 132.312 150.354 131.542 148.438 130C146.562 128.5 145.625 126.708 145.625 124.625C145.625 122.542 146.146 120.625 147.188 118.875C148.271 117.083 149.646 116.188 151.312 116.188C152.979 116.188 153.812 116.625 153.812 117.5ZM200.938 117.5L200.875 118.5C200.875 119.542 201.271 120.438 202.062 121.188C202.854 121.938 203.583 122.312 204.25 122.312C209.25 122.312 213.667 121.562 217.5 120.062C221.375 118.562 223.312 117.062 223.312 115.562C223.312 114.854 222.604 114.25 221.188 113.75C219.812 113.208 217.458 112.562 214.125 111.812C210.833 111.021 208.438 110.417 206.938 110C205.438 109.542 204.25 109.125 203.375 108.75C202.5 108.375 201.604 107.854 200.688 107.188C198.729 105.812 197.75 103.771 197.75 101.062C197.75 98.3125 198.75 95.6042 200.75 92.9375C202.792 90.2292 205.333 87.9167 208.375 86C211.417 84.0833 214.688 82.3958 218.188 80.9375C225.104 78.0625 230.917 76.625 235.625 76.625C240.25 76.625 243.104 77.625 244.188 79.625C244.521 80.3333 244.688 81.125 244.688 82V82.4375C244.688 84.6458 244.208 86.375 243.25 87.625C242.333 88.875 240.854 90 238.812 91C236.812 92 235.208 92.5 234 92.5C232.833 92.5 232.083 92.4167 231.75 92.25C231.458 92.0833 231.208 91.875 231 91.625C230.792 91.3333 230.521 91.125 230.188 91C229.896 90.875 229.75 90.5625 229.75 90.0625C229.75 89.5625 229.958 89.0625 230.375 88.5625C230.792 88.0208 231.083 87.4583 231.25 86.875C228.5 87 225.625 87.6458 222.625 88.8125C219.625 89.9375 217.042 91.2083 214.875 92.625C212.75 94.0417 210.979 95.3958 209.562 96.6875C208.146 97.9792 207.438 98.9375 207.438 99.5625C207.438 100.146 208.396 100.625 210.312 101C218.938 102.708 224.604 104.188 227.312 105.438C230.021 106.688 231.896 108.104 232.938 109.688C233.979 111.271 234.5 112.708 234.5 114C234.5 116.667 233.438 119.188 231.312 121.562C229.188 123.938 226.562 125.875 223.438 127.375C216.729 130.667 210.875 132.312 205.875 132.312C200.917 132.312 197.479 131.542 195.562 130C193.688 128.5 192.75 126.708 192.75 124.625C192.75 122.542 193.271 120.625 194.312 118.875C195.396 117.083 196.771 116.188 198.438 116.188C200.104 116.188 200.938 116.625 200.938 117.5ZM283.625 82.375C284.875 82.375 286.146 82.9375 287.438 84.0625C288.771 85.1875 289.438 86.9167 289.438 89.25C289.438 91.5417 288.625 94.5417 287 98.25C285.375 101.917 283.146 105.667 280.312 109.5C277.479 113.292 274.354 116.875 270.938 120.25C267.562 123.583 263.896 126.333 259.938 128.5C256.021 130.625 252.458 131.688 249.25 131.688C246.042 131.688 243.458 130.688 241.5 128.688C239.583 126.646 238.625 123.833 238.625 120.25C238.625 116.625 239.5 112.625 241.25 108.25C243.042 103.875 245.333 100.021 248.125 96.6875C250.917 93.3125 253.938 90.2917 257.188 87.625C263.979 82.1667 269.938 79.4375 275.062 79.4375C277.354 79.4375 279.083 80 280.25 81.125C280.667 81.5 280.875 81.8333 280.875 82.125V82.5C281.458 82.4167 282.375 82.375 283.625 82.375ZM277.312 90.6875H276.875C275.417 90.6875 274.688 89.625 274.688 87.5C271.646 88.5 268.458 90.25 265.125 92.75C261.792 95.25 258.812 98.2083 256.188 101.625C250.854 108.458 248.146 114.229 248.062 118.938C248.062 121.271 248.917 122.438 250.625 122.438C252.333 122.438 254.875 121.312 258.25 119.062C261.625 116.812 264.958 113.604 268.25 109.438C271.583 105.271 274.062 101.667 275.688 98.625C277.354 95.5417 278.188 93.4583 278.188 92.375C278.188 91.25 277.896 90.6875 277.312 90.6875ZM410.312 106.938L410.812 109.312C410.812 110.312 410.292 111.5 409.25 112.875C406.5 116.458 402.083 120.583 396 125.25C389.958 129.875 385.5 132.188 382.625 132.188C379.75 132.188 377.5 131.354 375.875 129.688C374.25 127.979 373.438 126.042 373.438 123.875C373.438 121.292 376.146 115.583 381.562 106.75C389.688 93.625 400.062 78.2917 412.688 60.75C410.021 63.5 402.938 70.9167 391.438 83C365.979 109.667 351.104 124.771 346.812 128.312C346.104 128.896 345.062 129.188 343.688 129.188C342.354 129.188 340.938 128.646 339.438 127.562C337.938 126.438 337.188 125.188 337.188 123.812V123.5C337.354 121.75 341.375 113.188 349.25 97.8125C357.125 82.4375 363.729 70.2083 369.062 61.125C361.188 69.7917 353.229 79.4583 345.188 90.125C329.896 110.375 318.708 127.625 311.625 141.875C311 143.208 310.229 143.875 309.312 143.875C308.396 143.875 307.062 143.646 305.312 143.188C301.646 142.188 299.812 140.438 299.812 137.938C299.812 136.438 302.875 131.083 309 121.875C315.125 112.625 322.229 102.542 330.312 91.625C338.396 80.6667 346.771 70.125 355.438 60C367.396 46 375.083 39 378.5 39C379.042 39 379.562 39.1458 380.062 39.4375C380.562 39.6875 380.875 39.8125 381 39.8125C381.125 39.8125 381.25 39.75 381.375 39.625C381.917 38.9583 382.979 38.625 384.562 38.625C386.188 38.625 387.75 38.9375 389.25 39.5625C390.792 40.1875 391.562 40.8958 391.562 41.6875C391.562 42.1875 389.479 46.1667 385.312 53.625C371.354 78.375 361.979 95.375 357.188 104.625C361.771 99.0833 368.312 91.7292 376.812 82.5625C385.354 73.3958 394.312 64.25 403.688 55.125C415.896 43.2917 423.188 37.375 425.562 37.375C426.521 37.375 427.729 37.5833 429.188 38C431.771 38.75 434.25 39.125 436.625 39.125C437.292 39.25 437.854 39.5417 438.312 40C438.812 40.4167 439.062 40.8542 439.062 41.3125C439.062 41.7708 438.938 42.1458 438.688 42.4375C425.146 60.4375 413.729 76.3125 404.438 90.0625C395.146 103.812 389.417 113.104 387.25 117.938C391.625 117.021 398.146 111.792 406.812 102.25C407.188 101.75 407.458 101.417 407.625 101.25C407.792 101.083 407.938 100.917 408.062 100.75C408.771 99.9167 409.312 100.438 409.688 102.312C409.854 103.396 409.958 104.167 410 104.625C410.083 105.042 410.146 105.5 410.188 106C410.271 106.458 410.312 106.771 410.312 106.938ZM456.562 83.25C456.562 86 455.438 88.4167 453.188 90.5C450.979 92.5833 448.458 93.625 445.625 93.625C444.708 93.625 444.104 93.4167 443.812 93C443.521 92.5417 443.375 91.9583 443.375 91.25C443.375 90.5417 443.458 89.8542 443.625 89.1875C442.125 89.6875 440.458 90.4583 438.625 91.5C436.792 92.5417 434.542 94.0833 431.875 96.125C429.208 98.1667 427.875 99.6875 427.875 100.688C427.875 101.021 428.354 101.188 429.312 101.188C430.312 101.188 431.833 100.854 433.875 100.188C435.917 99.4792 437.333 99.125 438.125 99.125C438.958 99.125 439.5 99.1667 439.75 99.25C440.292 99.5417 440.875 100.188 441.5 101.188C442.125 102.146 442.438 102.917 442.438 103.5C442.438 104.042 441.896 104.771 440.812 105.688C439.729 106.604 438.5 107.312 437.125 107.812C435.75 108.271 434.833 108.625 434.375 108.875C425.583 113.792 421.188 117.167 421.188 119C421.188 122.25 423.958 123.875 429.5 123.875C433.042 123.875 436.604 122.75 440.188 120.5C443.229 118.583 445.958 116.646 448.375 114.688C450.833 112.688 452.375 111.458 453 111C453.667 110.542 454.167 110.312 454.5 110.312C455.583 110.312 456.125 111.521 456.125 113.938C456.125 116.354 455.979 117.958 455.688 118.75C455.396 119.5 454.562 120.438 453.188 121.562C444.271 128.812 435.833 132.438 427.875 132.438C423.625 132.438 420.229 131.854 417.688 130.688C413.021 128.562 410.688 125.312 410.688 120.938C410.688 115.188 414.667 110.833 422.625 107.875C421.042 107.167 420.021 106.271 419.562 105.188C419.104 104.062 418.875 102.292 418.875 99.875C418.875 97.4167 420 94.8333 422.25 92.125C424.542 89.375 427.333 87.125 430.625 85.375C437.958 81.4167 444.5 79.4375 450.25 79.4375C451.625 79.4375 453.021 79.7708 454.438 80.4375C455.854 81.1042 456.562 82.0417 456.562 83.25ZM486.812 120.375C486.812 122.208 488.062 123.125 490.562 123.125C491.896 123.125 493.562 122.458 495.562 121.125C497.604 119.792 499.438 118.333 501.062 116.75C505.396 112.458 507.854 110.312 508.438 110.312C509.521 110.312 510.062 111.875 510.062 115C510.062 118.125 509.083 120.271 507.125 121.438C501.167 126.812 496.562 130.083 493.312 131.25C491.479 131.875 489.458 132.167 487.25 132.125C485.042 132.083 482.854 131.125 480.688 129.25C478.521 127.375 477.438 125.104 477.438 122.438C477.438 119.729 478.146 116.667 479.562 113.25C480.979 109.833 482.417 106.917 483.875 104.5C485.375 102.042 487.208 99.2083 489.375 96C491.542 92.75 492.688 90.7292 492.812 89.9375L492.688 89.8125C491.312 89.9375 487.896 92.6458 482.438 97.9375C477.021 103.229 472.542 107.833 469 111.75C465.458 115.667 461.229 120.896 456.312 127.438C454.938 129.229 453.812 130.125 452.938 130.125C452.062 130.125 450.896 129.854 449.438 129.312C447.938 128.729 447.021 128.312 446.688 128.062C446.354 127.812 446.188 127.438 446.188 126.938C446.188 126.438 446.333 125.833 446.625 125.125C446.917 124.375 447.208 123.771 447.5 123.312C447.75 122.812 448.188 122.062 448.812 121.062C449.438 120.062 450.667 117.958 452.5 114.75C454.375 111.5 457.229 106.667 461.062 100.25C464.896 93.8333 467.188 89.9583 467.938 88.625C469.521 85.875 470.812 83.875 471.812 82.625C473.688 80.25 476.854 79.0625 481.312 79.0625C482.312 79.0625 482.812 79.6875 482.812 80.9375C482.812 82.8958 481 86.5833 477.375 92L474.75 95.9375C481.958 87.9375 488.042 82.875 493 80.75C495.417 79.7083 497.583 79.1875 499.5 79.1875C501.458 79.1875 503 79.7083 504.125 80.75C505.292 81.7917 505.875 82.9583 505.875 84.25C505.875 85.5 505.438 87.0208 504.562 88.8125C503.688 90.5625 502.792 92.1458 501.875 93.5625C501 94.9375 499.833 96.6875 498.375 98.8125C496.917 100.938 496.125 102.104 496 102.312C495.875 102.479 495.542 102.979 495 103.812C494.5 104.604 494.125 105.188 493.875 105.562C493.625 105.938 493.208 106.604 492.625 107.562C492.042 108.479 491.562 109.25 491.188 109.875C490.854 110.5 490.417 111.271 489.875 112.188C489.375 113.104 488.958 113.896 488.625 114.562C488.333 115.229 488.021 115.958 487.688 116.75C487.104 118.208 486.812 119.417 486.812 120.375ZM557.125 110.375C557.917 110.375 558.396 110.979 558.562 112.188C558.729 113.396 558.812 114.646 558.812 115.938C558.812 117.229 558.688 118.125 558.438 118.625C557.229 120.958 554.583 123.812 550.5 127.188C546.417 130.521 542.542 132.188 538.875 132.188C536.625 132.188 534.542 131.5 532.625 130.125C530.708 128.792 529.75 126.438 529.75 123.062C529.75 119.688 530.646 116.375 532.438 113.125C522.104 126.083 514 132.562 508.125 132.562C505.792 132.562 503.896 131.729 502.438 130.062C501.021 128.396 500.312 126.688 500.312 124.938C500.312 123.146 500.562 121.312 501.062 119.438C501.562 117.521 502.083 115.812 502.625 114.312C503.208 112.812 504.042 110.958 505.125 108.75C506.25 106.542 507.083 104.938 507.625 103.938C508.167 102.938 509.021 101.438 510.188 99.4375C511.396 97.3958 512.958 94.6667 514.875 91.25C516.833 87.8333 518.438 85.3125 519.688 83.6875C520.979 82.0208 522.229 81.1875 523.438 81.1875C524.646 81.1458 525.708 81.625 526.625 82.625C527.542 83.625 528 84.4375 528 85.0625C528 85.6875 526.604 88.5 523.812 93.5C515.562 108.417 511.438 117.104 511.438 119.562C511.438 120.188 511.667 120.5 512.125 120.5C514.125 120.5 519.104 116.167 527.062 107.5C535.021 98.8333 539.625 93.2917 540.875 90.875C542.125 88.4167 543.333 86.3542 544.5 84.6875C545.708 83.0208 546.604 82 547.188 81.625C548.979 80.4583 551.292 79.8333 554.125 79.75C554.583 79.75 554.938 79.7708 555.188 79.8125C555.438 79.8542 555.729 80.2083 556.062 80.875C556.396 81.5417 556.562 82.0625 556.562 82.4375C556.188 83.6042 554.521 86.7083 551.562 91.75C548.646 96.7917 547.021 99.6458 546.688 100.312C541.771 110.479 539.312 117.104 539.312 120.188C539.312 121.938 539.979 122.812 541.312 122.812C543.729 122.479 546.646 120.542 550.062 117C551.312 115.708 552.542 114.396 553.75 113.062C555 111.729 555.771 110.958 556.062 110.75C556.354 110.5 556.708 110.375 557.125 110.375Z" fill="#841416"/>
</g>
<defs>
<filter id="filter0_i_56_404" x="11.0625" y="34.5" width="547.75" height="113.375" filterUnits="userSpaceOnUse" color-interpolation-filters="sRGB">
<feFlood flood-opacity="0" result="BackgroundImageFix"/>
<feBlend mode="normal" in="SourceGraphic" in2="BackgroundImageFix" result="shape"/>
<feColorMatrix in="SourceAlpha" type="matrix" values="0 0 0 0 0 0 0 0 0 0 0 0 0 0 0 0 0 0 127 0" result="hardAlpha"/>
<feOffset dy="4"/>
<feGaussianBlur stdDeviation="2"/>
<feComposite in2="hardAlpha" operator="arithmetic" k2="-1" k3="1"/>
<feColorMatrix type="matrix" values="0 0 0 0 0 0 0 0 0 0 0 0 0 0 0 0 0 0 0.25 0"/>
<feBlend mode="normal" in2="shape" result="effect1_innerShadow_56_404"/>
</filter>
</defs>
</svg>
