<svg width="348" height="88" viewBox="0 0 348 88" fill="none" xmlns="http://www.w3.org/2000/svg">
<g filter="url(#filter0_i_669_412)">
<path d="M27 78.9062C21.8125 78.9062 17.3229 77.7917 13.5312 75.5625C9.76042 73.3333 6.88542 70.2708 4.90625 66.375C2.94792 62.4792 1.96875 58.0312 1.96875 53.0312C1.96875 47.8438 2.94792 43.3229 4.90625 39.4688C6.86458 35.5938 9.71875 32.6042 13.4688 30.5C17.2396 28.375 21.75 27.3125 27 27.3125C32.2292 27.3125 36.7292 28.3646 40.5 30.4688C44.25 32.5938 47.1042 35.5938 49.0625 39.4688C51.0417 43.3438 52.0312 47.8646 52.0312 53.0312C52.0312 58.0312 51.0521 62.4792 49.0938 66.375C47.1354 70.2708 44.2604 73.3333 40.4688 75.5625C36.6979 77.7917 32.2083 78.9062 27 78.9062ZM27 67.8125C29.25 67.8125 30.9688 66.4479 32.1562 63.7188C33.3646 60.9896 33.9688 57.3438 33.9688 52.7812C33.9688 48.3438 33.3854 44.8333 32.2188 42.25C31.0729 39.6667 29.3333 38.375 27 38.375C24.6458 38.375 22.8958 39.6667 21.75 42.25C20.6042 44.8333 20.0312 48.3438 20.0312 52.7812C20.0312 57.3438 20.625 60.9896 21.8125 63.7188C23 66.4479 24.7292 67.8125 27 67.8125ZM86.5938 67V78H58.625V67H64.6562V39.2812H58.625V28.2812H99.6562V48.375H90.625L88.6562 39.2812H80.6562V48.6875H87.625V56.6875H80.6562V67H86.5938ZM145.406 56.8125V78H103.438V67H109.469V39.2812H103.438V28.2812H145.406V48.0625H137.406L134.406 39.2812H125.469V47.4062H133.469V55.5938H125.469V67H134.406L137.406 56.8125H145.406ZM175.75 78H149.781V67H154.781V39.2812H149.781V28.2812H181.719C186.885 28.2812 190.677 29.3229 193.094 31.4062C195.531 33.4896 196.75 36.9479 196.75 41.7812C196.75 45.0104 195.844 47.5 194.031 49.25C192.219 51 189.646 52.1771 186.312 52.7812C189.312 53.2604 191.469 54.3854 192.781 56.1562C194.115 57.9271 194.781 60.1354 194.781 62.7812V66.8125H201.75V78H191.688C189.542 78 187.812 77.9271 186.5 77.7812C185.188 77.6146 184.146 77.2396 183.375 76.6562C182.625 76.0521 182 75.1146 181.5 73.8438C180.75 71.9271 180.375 68.7292 180.375 64.25C180.375 61.6875 179.958 59.7917 179.125 58.5625C178.292 57.3125 176.771 56.6875 174.562 56.6875H170.781V67H175.75V78ZM170.781 39.2812V49.5938H175.062C177.333 49.5938 179.021 49.1875 180.125 48.375C181.229 47.5625 181.781 46.1354 181.781 44.0938C181.781 42.5938 181.208 41.4167 180.062 40.5625C178.938 39.7083 177.479 39.2812 175.688 39.2812H170.781ZM239.281 66.75V78H211.438V66.75H216.562V39.2812H212.156L210.812 47.8438H202.031V28.2812H248.812V47.8438H240.062L238.719 39.2812H234.156V66.75H239.281ZM270.25 67V78H248.312V67H253.25L261.812 39.2812H255.281V28.2812H286.25L297.344 67H302.25V78H274.281V67H278.344L277 61.6875H265.719L264.312 67H270.25ZM275.5 54.125L271.875 38.9062L267.312 54.125H275.5ZM328.094 78.9062C326.385 78.9062 324.927 78.7812 323.719 78.5312C322.51 78.2812 321.385 77.875 320.344 77.3125C319.323 76.75 318.229 76.0208 317.062 75.125L315.969 78H305.875V62.7812H315.906C316.552 64.5312 317.542 65.7708 318.875 66.5C320.229 67.2083 321.885 67.5625 323.844 67.5625C325.052 67.5625 326.083 67.3229 326.938 66.8438C327.792 66.3438 328.219 65.6875 328.219 64.875C328.219 63.8542 327.781 63.0938 326.906 62.5938C326.031 62.0729 324.802 61.5938 323.219 61.1562C321.198 60.6146 319.365 60.0417 317.719 59.4375C316.094 58.8333 314.635 58.2083 313.344 57.5625C310.76 56.2708 308.677 54.4375 307.094 52.0625C305.51 49.6875 304.719 46.5312 304.719 42.5938C304.719 39.5729 305.375 36.9062 306.688 34.5938C307.979 32.3021 309.833 30.5208 312.25 29.25C314.688 27.9583 317.552 27.3125 320.844 27.3125C324.865 27.3125 328.042 28.5938 330.375 31.1562L331.969 28.2188H340.938V43.125H331.344C330.448 41.25 329.458 39.9479 328.375 39.2188C327.292 38.4896 325.802 38.125 323.906 38.125C322.469 38.125 321.354 38.3854 320.562 38.9062C319.771 39.4062 319.375 40.1042 319.375 41C319.375 42 319.948 42.7604 321.094 43.2812C322.219 43.8229 323.823 44.3229 325.906 44.7812C329.552 45.6146 332.698 46.6667 335.344 47.9375C337.927 49.2083 339.99 51.0104 341.531 53.3438C343.094 55.6562 343.875 58.6458 343.875 62.3125C343.875 65.4167 343.229 68.2292 341.938 70.75C340.625 73.2708 338.76 75.2604 336.344 76.7188C333.948 78.1771 331.198 78.9062 328.094 78.9062Z" fill="#E79D0F"/>
</g>
<path d="M13.5312 75.5625L12.0046 78.145L12.0108 78.1487L13.5312 75.5625ZM4.90625 66.375L2.22582 67.7224L2.23161 67.7338L4.90625 66.375ZM4.90625 39.4688L7.58081 40.8277L7.58375 40.8219L4.90625 39.4688ZM13.4688 30.5L14.9368 33.1163L14.9416 33.1136L13.4688 30.5ZM40.5 30.4688L41.979 27.8587L41.9705 27.8538L41.9618 27.849L40.5 30.4688ZM49.0625 39.4688L46.385 40.8219L46.3908 40.8333L49.0625 39.4688ZM40.4688 75.5625L38.9483 72.9763L38.9421 72.98L40.4688 75.5625ZM32.1562 63.7188L29.4131 62.5042L29.4092 62.513L29.4054 62.5218L32.1562 63.7188ZM32.2188 42.25L29.4764 43.4664L29.4805 43.4756L29.4846 43.4848L32.2188 42.25ZM21.8125 63.7188L19.0616 64.9157L21.8125 63.7188ZM27 75.9062C22.2505 75.9062 18.3057 74.8894 15.0517 72.9763L12.0108 78.1487C16.3401 80.6939 21.3745 81.9062 27 81.9062V75.9062ZM15.0579 72.98C11.7771 71.0405 9.30091 68.4019 7.58089 65.0162L2.23161 67.7338C4.46992 72.1397 7.74377 75.6262 12.0046 78.145L15.0579 72.98ZM7.58666 65.0276C5.86737 61.6073 4.96875 57.6323 4.96875 53.0312H-1.03125C-1.03125 58.4302 0.0284609 63.351 2.22584 67.7224L7.58666 65.0276ZM4.96875 53.0312C4.96875 48.2225 5.87511 44.1847 7.5808 40.8277L2.2317 38.1098C0.0207244 42.4612 -1.03125 47.465 -1.03125 53.0312H4.96875ZM7.58375 40.8219C9.2761 37.4732 11.7118 34.9259 14.9368 33.1163L12.0007 27.8837C7.72572 30.2825 4.45307 33.7143 2.22875 38.1156L7.58375 40.8219ZM14.9416 33.1136C18.1763 31.2907 22.1566 30.3125 27 30.3125V24.3125C21.3434 24.3125 16.3028 25.4593 11.9959 27.8864L14.9416 33.1136ZM27 30.3125C31.8249 30.3125 35.7995 31.2813 39.0382 33.0885L41.9618 27.849C37.6589 25.4479 32.6335 24.3125 27 24.3125V30.3125ZM39.021 33.0788C42.2523 34.9099 44.6914 37.4708 46.385 40.8219L51.74 38.1156C49.5169 33.7167 46.2477 30.2776 41.979 27.8587L39.021 33.0788ZM46.3908 40.8333C48.1173 44.2135 49.0312 48.2506 49.0312 53.0312H55.0312C55.0312 47.4786 53.9661 42.474 51.7342 38.1042L46.3908 40.8333ZM49.0312 53.0312C49.0312 57.6323 48.1326 61.6073 46.4133 65.0276L51.7742 67.7224C53.9715 63.351 55.0312 58.4302 55.0312 53.0312H49.0312ZM46.4133 65.0276C44.7168 68.4027 42.2468 71.0371 38.9483 72.9763L41.9892 78.1487C46.2741 75.6295 49.5541 72.1389 51.7742 67.7224L46.4133 65.0276ZM38.9421 72.98C35.7142 74.8882 31.7734 75.9062 27 75.9062V81.9062C32.6433 81.9062 37.6816 80.6951 41.9954 78.145L38.9421 72.98ZM27 70.8125C28.7839 70.8125 30.4377 70.2535 31.842 69.1386C33.1991 68.0611 34.1839 66.5779 34.9071 64.9157L29.4054 62.5218C28.9411 63.5888 28.4728 64.1524 28.1112 64.4395C27.7967 64.6892 27.4661 64.8125 27 64.8125V70.8125ZM34.8994 64.9333C36.3426 61.6737 36.9688 57.5626 36.9688 52.7812H30.9688C30.9688 57.1249 30.3866 60.3054 29.4131 62.5042L34.8994 64.9333ZM36.9688 52.7812C36.9688 48.1333 36.3658 44.144 34.9529 41.0152L29.4846 43.4848C30.405 45.5227 30.9688 48.5542 30.9688 52.7812H36.9688ZM34.9611 41.0336C34.2405 39.4089 33.2361 37.9694 31.8431 36.9351C30.4155 35.8751 28.7583 35.375 27 35.375V41.375C27.575 41.375 27.9543 41.5207 28.2662 41.7524C28.6128 42.0097 29.0512 42.5078 29.4764 43.4664L34.9611 41.0336ZM27 35.375C25.2375 35.375 23.5745 35.8715 22.1403 36.93C20.7395 37.964 19.73 39.405 19.0077 41.0336L24.4923 43.4664C24.9158 42.5117 25.3543 42.0152 25.7034 41.7575C26.0193 41.5243 26.4083 41.375 27 41.375V35.375ZM19.0077 41.0336C17.6227 44.156 17.0312 48.138 17.0312 52.7812H23.0312C23.0312 48.5495 23.5856 45.5107 24.4923 43.4664L19.0077 41.0336ZM17.0312 52.7812C17.0312 57.5581 17.646 61.6622 19.0616 64.9157L24.5634 62.5218C23.604 60.317 23.0312 57.1294 23.0312 52.7812H17.0312ZM19.0616 64.9157C19.7865 66.5816 20.7762 68.0666 22.1415 69.1441C23.5529 70.2579 25.2127 70.8125 27 70.8125V64.8125C26.5164 64.8125 26.1762 64.6848 25.8585 64.4341C25.4947 64.1469 25.026 63.5851 24.5634 62.5218L19.0616 64.9157ZM86.5938 67H89.5938V64H86.5938V67ZM86.5938 78V81H89.5938V78H86.5938ZM58.625 78H55.625V81H58.625V78ZM58.625 67V64H55.625V67H58.625ZM64.6562 67V70H67.6562V67H64.6562ZM64.6562 39.2812H67.6562V36.2812H64.6562V39.2812ZM58.625 39.2812H55.625V42.2812H58.625V39.2812ZM58.625 28.2812V25.2812H55.625V28.2812H58.625ZM99.6562 28.2812H102.656V25.2812H99.6562V28.2812ZM99.6562 48.375V51.375H102.656V48.375H99.6562ZM90.625 48.375L87.6929 49.0098L88.205 51.375H90.625V48.375ZM88.6562 39.2812L91.5883 38.6465L91.0763 36.2812H88.6562V39.2812ZM80.6562 39.2812V36.2812H77.6562V39.2812H80.6562ZM80.6562 48.6875H77.6562V51.6875H80.6562V48.6875ZM87.625 48.6875H90.625V45.6875H87.625V48.6875ZM87.625 56.6875V59.6875H90.625V56.6875H87.625ZM80.6562 56.6875V53.6875H77.6562V56.6875H80.6562ZM80.6562 67H77.6562V70H80.6562V67ZM83.5938 67V78H89.5938V67H83.5938ZM86.5938 75H58.625V81H86.5938V75ZM61.625 78V67H55.625V78H61.625ZM58.625 70H64.6562V64H58.625V70ZM67.6562 67V39.2812H61.6562V67H67.6562ZM64.6562 36.2812H58.625V42.2812H64.6562V36.2812ZM61.625 39.2812V28.2812H55.625V39.2812H61.625ZM58.625 31.2812H99.6562V25.2812H58.625V31.2812ZM96.6562 28.2812V48.375H102.656V28.2812H96.6562ZM99.6562 45.375H90.625V51.375H99.6562V45.375ZM93.5571 47.7402L91.5883 38.6465L85.7242 39.916L87.6929 49.0098L93.5571 47.7402ZM88.6562 36.2812H80.6562V42.2812H88.6562V36.2812ZM77.6562 39.2812V48.6875H83.6562V39.2812H77.6562ZM80.6562 51.6875H87.625V45.6875H80.6562V51.6875ZM84.625 48.6875V56.6875H90.625V48.6875H84.625ZM87.625 53.6875H80.6562V59.6875H87.625V53.6875ZM77.6562 56.6875V67H83.6562V56.6875H77.6562ZM80.6562 70H86.5938V64H80.6562V70ZM145.406 56.8125H148.406V53.8125H145.406V56.8125ZM145.406 78V81H148.406V78H145.406ZM103.438 78H100.438V81H103.438V78ZM103.438 67V64H100.438V67H103.438ZM109.469 67V70H112.469V67H109.469ZM109.469 39.2812H112.469V36.2812H109.469V39.2812ZM103.438 39.2812H100.438V42.2812H103.438V39.2812ZM103.438 28.2812V25.2812H100.438V28.2812H103.438ZM145.406 28.2812H148.406V25.2812H145.406V28.2812ZM145.406 48.0625V51.0625H148.406V48.0625H145.406ZM137.406 48.0625L134.567 49.0324L135.261 51.0625H137.406V48.0625ZM134.406 39.2812L137.245 38.3114L136.552 36.2812H134.406V39.2812ZM125.469 39.2812V36.2812H122.469V39.2812H125.469ZM125.469 47.4062H122.469V50.4062H125.469V47.4062ZM133.469 47.4062H136.469V44.4062H133.469V47.4062ZM133.469 55.5938V58.5938H136.469V55.5938H133.469ZM125.469 55.5938V52.5938H122.469V55.5938H125.469ZM125.469 67H122.469V70H125.469V67ZM134.406 67V70H136.65L137.284 67.8475L134.406 67ZM137.406 56.8125V53.8125H135.162L134.528 55.965L137.406 56.8125ZM142.406 56.8125V78H148.406V56.8125H142.406ZM145.406 75H103.438V81H145.406V75ZM106.438 78V67H100.438V78H106.438ZM103.438 70H109.469V64H103.438V70ZM112.469 67V39.2812H106.469V67H112.469ZM109.469 36.2812H103.438V42.2812H109.469V36.2812ZM106.438 39.2812V28.2812H100.438V39.2812H106.438ZM103.438 31.2812H145.406V25.2812H103.438V31.2812ZM142.406 28.2812V48.0625H148.406V28.2812H142.406ZM145.406 45.0625H137.406V51.0625H145.406V45.0625ZM140.245 47.0926L137.245 38.3114L131.567 40.2511L134.567 49.0324L140.245 47.0926ZM134.406 36.2812H125.469V42.2812H134.406V36.2812ZM122.469 39.2812V47.4062H128.469V39.2812H122.469ZM125.469 50.4062H133.469V44.4062H125.469V50.4062ZM130.469 47.4062V55.5938H136.469V47.4062H130.469ZM133.469 52.5938H125.469V58.5938H133.469V52.5938ZM122.469 55.5938V67H128.469V55.5938H122.469ZM125.469 70H134.406V64H125.469V70ZM137.284 67.8475L140.284 57.66L134.528 55.965L131.528 66.1525L137.284 67.8475ZM137.406 59.8125H145.406V53.8125H137.406V59.8125ZM175.75 78V81H178.75V78H175.75ZM149.781 78H146.781V81H149.781V78ZM149.781 67V64H146.781V67H149.781ZM154.781 67V70H157.781V67H154.781ZM154.781 39.2812H157.781V36.2812H154.781V39.2812ZM149.781 39.2812H146.781V42.2812H149.781V39.2812ZM149.781 28.2812V25.2812H146.781V28.2812H149.781ZM193.094 31.4062L191.135 33.6785L191.145 33.6868L193.094 31.4062ZM186.312 52.7812L185.777 49.8293L185.839 55.7437L186.312 52.7812ZM192.781 56.1562L190.371 57.9426L190.378 57.9517L190.385 57.9608L192.781 56.1562ZM194.781 66.8125H191.781V69.8125H194.781V66.8125ZM201.75 66.8125H204.75V63.8125H201.75V66.8125ZM201.75 78V81H204.75V78H201.75ZM186.5 77.7812L186.122 80.7574L186.145 80.7603L186.169 80.7629L186.5 77.7812ZM183.375 76.6562L181.493 78.9925L181.528 79.021L181.565 79.0485L183.375 76.6562ZM181.5 73.8438L178.706 74.9369L178.708 74.9421L181.5 73.8438ZM179.125 58.5625L176.629 60.2266L176.635 60.2363L176.642 60.246L179.125 58.5625ZM170.781 56.6875V53.6875H167.781V56.6875H170.781ZM170.781 67H167.781V70H170.781V67ZM175.75 67H178.75V64H175.75V67ZM170.781 39.2812V36.2812H167.781V39.2812H170.781ZM170.781 49.5938H167.781V52.5938H170.781V49.5938ZM180.062 40.5625L178.248 42.9518L178.259 42.9598L178.27 42.9677L180.062 40.5625ZM175.75 75H149.781V81H175.75V75ZM152.781 78V67H146.781V78H152.781ZM149.781 70H154.781V64H149.781V70ZM157.781 67V39.2812H151.781V67H157.781ZM154.781 36.2812H149.781V42.2812H154.781V36.2812ZM152.781 39.2812V28.2812H146.781V39.2812H152.781ZM149.781 31.2812H181.719V25.2812H149.781V31.2812ZM181.719 31.2812C186.584 31.2812 189.512 32.2797 191.135 33.6785L195.053 29.134C191.842 26.3661 187.187 25.2812 181.719 25.2812V31.2812ZM191.145 33.6868C192.636 34.9613 193.75 37.375 193.75 41.7812H199.75C199.75 36.5208 198.427 32.0179 195.043 29.1257L191.145 33.6868ZM193.75 41.7812C193.75 44.438 193.021 46.0554 191.947 47.0918L196.115 51.4082C198.667 48.9446 199.75 45.5828 199.75 41.7812H193.75ZM191.947 47.0918C190.685 48.3103 188.724 49.2953 185.777 49.8293L186.848 55.7332C190.568 55.0589 193.752 53.6897 196.115 51.4082L191.947 47.0918ZM185.839 55.7437C188.363 56.1468 189.679 57.0088 190.371 57.9426L195.191 54.3699C193.259 51.762 190.262 50.3741 186.786 49.8188L185.839 55.7437ZM190.385 57.9608C191.255 59.1165 191.781 60.6565 191.781 62.7812H197.781C197.781 59.6143 196.974 56.7377 195.178 54.3517L190.385 57.9608ZM191.781 62.7812V66.8125H197.781V62.7812H191.781ZM194.781 69.8125H201.75V63.8125H194.781V69.8125ZM198.75 66.8125V78H204.75V66.8125H198.75ZM201.75 75H191.688V81H201.75V75ZM191.688 75C189.593 75 187.988 74.9281 186.831 74.7996L186.169 80.7629C187.637 80.9261 189.49 81 191.688 81V75ZM186.878 74.8051C185.902 74.6812 185.412 74.4353 185.185 74.264L181.565 79.0485C182.88 80.0439 184.473 80.5479 186.122 80.7574L186.878 74.8051ZM185.257 74.32C185.047 74.151 184.676 73.723 184.292 72.7454L178.708 74.9421C179.324 76.5062 180.203 77.9532 181.493 78.9925L185.257 74.32ZM184.294 72.7506C183.764 71.3976 183.375 68.6913 183.375 64.25H177.375C177.375 68.767 177.736 72.4566 178.706 74.9369L184.294 72.7506ZM183.375 64.25C183.375 61.4734 182.944 58.8496 181.608 56.879L176.642 60.246C176.973 60.7337 177.375 61.9016 177.375 64.25H183.375ZM181.621 56.8984C180.001 54.4677 177.271 53.6875 174.562 53.6875V59.6875C176.271 59.6875 176.583 60.1573 176.629 60.2266L181.621 56.8984ZM174.562 53.6875H170.781V59.6875H174.562V53.6875ZM167.781 56.6875V67H173.781V56.6875H167.781ZM170.781 70H175.75V64H170.781V70ZM172.75 67V78H178.75V67H172.75ZM167.781 39.2812V49.5938H173.781V39.2812H167.781ZM170.781 52.5938H175.062V46.5938H170.781V52.5938ZM175.062 52.5938C177.591 52.5938 180.043 52.1599 181.903 50.7913L178.347 45.9587C177.998 46.2151 177.076 46.5938 175.062 46.5938V52.5938ZM181.903 50.7913C184.098 49.1764 184.781 46.6025 184.781 44.0938H178.781C178.781 45.6684 178.361 45.9486 178.347 45.9587L181.903 50.7913ZM184.781 44.0938C184.781 41.7014 183.804 39.6097 181.855 38.1573L178.27 42.9677C178.613 43.2236 178.781 43.4861 178.781 44.0938H184.781ZM181.877 38.1732C180.104 36.8272 177.956 36.2812 175.688 36.2812V42.2812C177.002 42.2812 177.771 42.5894 178.248 42.9518L181.877 38.1732ZM175.688 36.2812H170.781V42.2812H175.688V36.2812ZM239.281 66.75H242.281V63.75H239.281V66.75ZM239.281 78V81H242.281V78H239.281ZM211.438 78H208.438V81H211.438V78ZM211.438 66.75V63.75H208.438V66.75H211.438ZM216.562 66.75V69.75H219.562V66.75H216.562ZM216.562 39.2812H219.562V36.2812H216.562V39.2812ZM212.156 39.2812V36.2812H209.59L209.193 38.8161L212.156 39.2812ZM210.812 47.8438V50.8438H213.378L213.776 48.3089L210.812 47.8438ZM202.031 47.8438H199.031V50.8438H202.031V47.8438ZM202.031 28.2812V25.2812H199.031V28.2812H202.031ZM248.812 28.2812H251.812V25.2812H248.812V28.2812ZM248.812 47.8438V50.8438H251.812V47.8438H248.812ZM240.062 47.8438L237.099 48.3089L237.497 50.8438H240.062V47.8438ZM238.719 39.2812L241.682 38.8161L241.285 36.2812H238.719V39.2812ZM234.156 39.2812V36.2812H231.156V39.2812H234.156ZM234.156 66.75H231.156V69.75H234.156V66.75ZM236.281 66.75V78H242.281V66.75H236.281ZM239.281 75H211.438V81H239.281V75ZM214.438 78V66.75H208.438V78H214.438ZM211.438 69.75H216.562V63.75H211.438V69.75ZM219.562 66.75V39.2812H213.562V66.75H219.562ZM216.562 36.2812H212.156V42.2812H216.562V36.2812ZM209.193 38.8161L207.849 47.3786L213.776 48.3089L215.12 39.7464L209.193 38.8161ZM210.812 44.8438H202.031V50.8438H210.812V44.8438ZM205.031 47.8438V28.2812H199.031V47.8438H205.031ZM202.031 31.2812H248.812V25.2812H202.031V31.2812ZM245.812 28.2812V47.8438H251.812V28.2812H245.812ZM248.812 44.8438H240.062V50.8438H248.812V44.8438ZM243.026 47.3786L241.682 38.8161L235.755 39.7464L237.099 48.3089L243.026 47.3786ZM238.719 36.2812H234.156V42.2812H238.719V36.2812ZM231.156 39.2812V66.75H237.156V39.2812H231.156ZM234.156 69.75H239.281V63.75H234.156V69.75ZM270.25 67H273.25V64H270.25V67ZM270.25 78V81H273.25V78H270.25ZM248.312 78H245.312V81H248.312V78ZM248.312 67V64H245.312V67H248.312ZM253.25 67V70H255.463L256.116 67.8854L253.25 67ZM261.812 39.2812L264.679 40.1667L265.879 36.2812H261.812V39.2812ZM255.281 39.2812H252.281V42.2812H255.281V39.2812ZM255.281 28.2812V25.2812H252.281V28.2812H255.281ZM286.25 28.2812L289.134 27.4549L288.511 25.2812H286.25V28.2812ZM297.344 67L294.46 67.8263L295.083 70H297.344V67ZM302.25 67H305.25V64H302.25V67ZM302.25 78V81H305.25V78H302.25ZM274.281 78H271.281V81H274.281V78ZM274.281 67V64H271.281V67H274.281ZM278.344 67V70H282.197L281.252 66.2643L278.344 67ZM277 61.6875L279.908 60.9518L279.336 58.6875H277V61.6875ZM265.719 61.6875V58.6875H263.41L262.819 60.9198L265.719 61.6875ZM264.312 67L261.412 66.2323L260.415 70H264.312V67ZM275.5 54.125V57.125H279.299L278.418 53.4299L275.5 54.125ZM271.875 38.9062L274.793 38.2111L272.207 27.3524L269.001 38.0447L271.875 38.9062ZM267.312 54.125L264.439 53.2635L263.281 57.125H267.312V54.125ZM267.25 67V78H273.25V67H267.25ZM270.25 75H248.312V81H270.25V75ZM251.312 78V67H245.312V78H251.312ZM248.312 70H253.25V64H248.312V70ZM256.116 67.8854L264.679 40.1667L258.946 38.3958L250.384 66.1146L256.116 67.8854ZM261.812 36.2812H255.281V42.2812H261.812V36.2812ZM258.281 39.2812V28.2812H252.281V39.2812H258.281ZM255.281 31.2812H286.25V25.2812H255.281V31.2812ZM283.366 29.1076L294.46 67.8263L300.228 66.1737L289.134 27.4549L283.366 29.1076ZM297.344 70H302.25V64H297.344V70ZM299.25 67V78H305.25V67H299.25ZM302.25 75H274.281V81H302.25V75ZM277.281 78V67H271.281V78H277.281ZM274.281 70H278.344V64H274.281V70ZM281.252 66.2643L279.908 60.9518L274.092 62.4232L275.435 67.7357L281.252 66.2643ZM277 58.6875H265.719V64.6875H277V58.6875ZM262.819 60.9198L261.412 66.2323L267.213 67.7677L268.619 62.4552L262.819 60.9198ZM264.312 70H270.25V64H264.312V70ZM278.418 53.4299L274.793 38.2111L268.957 39.6014L272.582 54.8201L278.418 53.4299ZM269.001 38.0447L264.439 53.2635L270.186 54.9865L274.749 39.7678L269.001 38.0447ZM267.312 57.125H275.5V51.125H267.312V57.125ZM320.344 77.3125L318.896 79.94L318.907 79.9462L318.918 79.9522L320.344 77.3125ZM317.062 75.125L318.89 72.7455L315.692 70.2903L314.259 74.0583L317.062 75.125ZM315.969 78V81H318.037L318.773 79.0667L315.969 78ZM305.875 78H302.875V81H305.875V78ZM305.875 62.7812V59.7812H302.875V62.7812H305.875ZM315.906 62.7812L318.721 61.7426L317.997 59.7812H315.906V62.7812ZM318.875 66.5L317.436 69.1321L317.46 69.1454L317.485 69.1583L318.875 66.5ZM326.938 66.8438L328.405 69.4602L328.429 69.4467L328.453 69.4328L326.938 66.8438ZM326.906 62.5938L325.372 65.1716L325.395 65.1853L325.418 65.1985L326.906 62.5938ZM323.219 61.1562L324.018 58.2646L324.007 58.2615L323.995 58.2585L323.219 61.1562ZM317.719 59.4375L316.673 62.2495L316.685 62.2537L317.719 59.4375ZM313.344 57.5625L312.002 60.2458L313.344 57.5625ZM306.688 34.5938L309.297 36.0746L309.301 36.0668L306.688 34.5938ZM312.25 29.25L313.646 31.9053L313.655 31.9008L312.25 29.25ZM330.375 31.1562L328.157 33.1761L330.999 36.2972L333.012 32.5869L330.375 31.1562ZM331.969 28.2188V25.2188H330.183L329.332 26.7881L331.969 28.2188ZM340.938 28.2188H343.938V25.2188H340.938V28.2188ZM340.938 43.125V46.125H343.938V43.125H340.938ZM331.344 43.125L328.637 44.4183L329.452 46.125H331.344V43.125ZM320.562 38.9062L322.164 41.4427L322.188 41.4278L322.211 41.4125L320.562 38.9062ZM321.094 43.2812L322.395 40.5782L322.365 40.5639L322.335 40.5502L321.094 43.2812ZM325.906 44.7812L326.575 41.8567L326.563 41.8539L326.551 41.8513L325.906 44.7812ZM335.344 47.9375L336.668 45.2456L336.655 45.2394L336.643 45.2333L335.344 47.9375ZM341.531 53.3438L339.028 54.9975L339.037 55.0105L339.045 55.0233L341.531 53.3438ZM341.938 70.75L344.598 72.1354L344.603 72.1268L344.607 72.1181L341.938 70.75ZM336.344 76.7188L334.794 74.1502L334.784 74.1562L336.344 76.7188ZM328.094 75.9062C326.518 75.9062 325.275 75.7897 324.327 75.5935L323.111 81.469C324.579 81.7728 326.253 81.9062 328.094 81.9062V75.9062ZM324.327 75.5935C323.392 75.4 322.544 75.0909 321.769 74.6728L318.918 79.9522C320.227 80.6591 321.629 81.1625 323.111 81.469L324.327 75.5935ZM321.792 74.685C320.932 74.2115 319.966 73.5719 318.89 72.7455L315.235 77.5045C316.493 78.4697 317.714 79.2885 318.896 79.94L321.792 74.685ZM314.259 74.0583L313.165 76.9333L318.773 79.0667L319.866 76.1917L314.259 74.0583ZM315.969 75H305.875V81H315.969V75ZM308.875 78V62.7812H302.875V78H308.875ZM305.875 65.7812H315.906V59.7812H305.875V65.7812ZM313.092 63.8199C313.929 66.0887 315.331 67.9809 317.436 69.1321L320.314 63.8679C319.753 63.5607 319.175 62.9738 318.721 61.7426L313.092 63.8199ZM317.485 69.1583C319.372 70.1454 321.534 70.5625 323.844 70.5625V64.5625C322.237 64.5625 321.087 64.2713 320.265 63.8417L317.485 69.1583ZM323.844 70.5625C325.447 70.5625 327.009 70.2432 328.405 69.4602L325.47 64.2273C325.157 64.4026 324.657 64.5625 323.844 64.5625V70.5625ZM328.453 69.4328C329.992 68.5322 331.219 66.9997 331.219 64.875H325.219C325.219 64.8123 325.227 64.7225 325.258 64.6174C325.289 64.5115 325.334 64.417 325.384 64.3402C325.483 64.188 325.55 64.1797 325.422 64.2547L328.453 69.4328ZM331.219 64.875C331.219 62.7949 330.219 61.0317 328.395 59.989L325.418 65.1985C325.445 65.2142 325.434 65.2116 325.403 65.1814C325.369 65.1496 325.328 65.1002 325.29 65.0351C325.253 64.9702 325.233 64.9122 325.223 64.8738C325.214 64.8376 325.219 64.8341 325.219 64.875H331.219ZM328.441 60.0159C327.239 59.3006 325.722 58.7355 324.018 58.2646L322.42 64.0479C323.882 64.452 324.823 64.8452 325.372 65.1716L328.441 60.0159ZM323.995 58.2585C322.045 57.7359 320.3 57.1892 318.753 56.6213L316.685 62.2537C318.429 62.8941 320.35 63.4933 322.442 64.054L323.995 58.2585ZM318.764 56.6256C317.221 56.0518 315.864 55.4685 314.685 54.8792L312.002 60.2458C313.407 60.9482 314.967 61.6149 316.673 62.2494L318.764 56.6256ZM314.685 54.8792C312.563 53.8181 310.88 52.3336 309.59 50.3984L304.598 53.7266C306.474 56.5414 308.958 58.7235 312.002 60.2458L314.685 54.8792ZM309.59 50.3984C308.438 48.6705 307.719 46.1566 307.719 42.5938H301.719C301.719 46.9059 302.583 50.7045 304.598 53.7266L309.59 50.3984ZM307.719 42.5938C307.719 40.0202 308.274 37.877 309.297 36.0746L304.078 33.1129C302.476 35.9355 301.719 39.1256 301.719 42.5938H307.719ZM309.301 36.0668C310.298 34.2979 311.72 32.9181 313.646 31.9053L310.854 26.5947C307.946 28.1236 305.66 30.3063 304.074 33.1207L309.301 36.0668ZM313.655 31.9008C315.583 30.8788 317.948 30.3125 320.844 30.3125V24.3125C317.157 24.3125 313.792 25.0378 310.845 26.5992L313.655 31.9008ZM320.844 30.3125C324.169 30.3125 326.485 31.3399 328.157 33.1761L332.593 29.1364C329.598 25.8476 325.56 24.3125 320.844 24.3125V30.3125ZM333.012 32.5869L334.606 29.6494L329.332 26.7881L327.738 29.7256L333.012 32.5869ZM331.969 31.2188H340.938V25.2188H331.969V31.2188ZM337.938 28.2188V43.125H343.938V28.2188H337.938ZM340.938 40.125H331.344V46.125H340.938V40.125ZM334.051 41.8317C333.048 39.7321 331.767 37.8858 330.05 36.73L326.7 41.7075C327.149 42.01 327.848 42.7679 328.637 44.4183L334.051 41.8317ZM330.05 36.73C328.295 35.5485 326.142 35.125 323.906 35.125V41.125C325.462 41.125 326.289 41.4306 326.7 41.7075L330.05 36.73ZM323.906 35.125C322.165 35.125 320.387 35.4306 318.914 36.4L322.211 41.4125C322.321 41.3402 322.772 41.125 323.906 41.125V35.125ZM318.961 36.3698C317.346 37.3894 316.375 39.0198 316.375 41H322.375C322.375 40.9979 322.375 41.0307 322.361 41.0884C322.346 41.1478 322.32 41.2163 322.281 41.2847C322.198 41.4321 322.116 41.4731 322.164 41.4427L318.961 36.3698ZM316.375 41C316.375 42.1163 316.71 43.1978 317.409 44.1256C318.078 45.0142 318.965 45.609 319.852 46.0123L322.335 40.5502C322.077 40.4327 322.104 40.3868 322.201 40.5151C322.251 40.5823 322.301 40.6722 322.335 40.7767C322.369 40.8796 322.375 40.96 322.375 41H316.375ZM319.792 45.9843C321.223 46.6731 323.087 47.2327 325.262 47.7112L326.551 41.8513C324.559 41.4131 323.215 40.9728 322.395 40.5782L319.792 45.9843ZM325.238 47.7058C328.722 48.5022 331.646 49.4897 334.045 50.6417L336.643 45.2333C333.749 43.8436 330.382 42.7269 326.575 41.8567L325.238 47.7058ZM334.02 50.6294C336.139 51.6723 337.789 53.1223 339.028 54.9975L344.034 51.69C342.19 48.8985 339.715 46.7444 336.668 45.2456L334.02 50.6294ZM339.045 55.0233C340.182 56.7058 340.875 59.0591 340.875 62.3125H346.875C346.875 58.2325 346.005 54.6067 344.017 51.6642L339.045 55.0233ZM340.875 62.3125C340.875 64.9874 340.322 67.324 339.268 69.3819L344.607 72.1181C346.136 69.1343 346.875 65.8459 346.875 62.3125H340.875ZM339.277 69.3646C338.217 71.4 336.735 72.9787 334.794 74.1502L337.894 79.2873C340.786 77.5421 343.033 75.1417 344.598 72.1354L339.277 69.3646ZM334.784 74.1562C332.907 75.2985 330.708 75.9062 328.094 75.9062V81.9062C331.688 81.9062 334.989 81.0557 337.904 79.2813L334.784 74.1562Z" fill="#841416"/>
<defs>
<filter id="filter0_i_669_412" x="1.96875" y="27.3125" width="341.906" height="55.5938" filterUnits="userSpaceOnUse" color-interpolation-filters="sRGB">
<feFlood flood-opacity="0" result="BackgroundImageFix"/>
<feBlend mode="normal" in="SourceGraphic" in2="BackgroundImageFix" result="shape"/>
<feColorMatrix in="SourceAlpha" type="matrix" values="0 0 0 0 0 0 0 0 0 0 0 0 0 0 0 0 0 0 127 0" result="hardAlpha"/>
<feOffset dy="4"/>
<feGaussianBlur stdDeviation="2"/>
<feComposite in2="hardAlpha" operator="arithmetic" k2="-1" k3="1"/>
<feColorMatrix type="matrix" values="0 0 0 0 0 0 0 0 0 0 0 0 0 0 0 0 0 0 0.25 0"/>
<feBlend mode="normal" in2="shape" result="effect1_innerShadow_669_412"/>
</filter>
</defs>
</svg>
