<svg width="358" height="159" viewBox="0 0 358 159" fill="none" xmlns="http://www.w3.org/2000/svg">
<g filter="url(#filter0_i_669_412)">
<path d="M106.914 41.812C108.898 41.812 110.807 42.6356 112.642 44.2827C114.513 45.9299 115.449 47.7642 115.449 49.7856C115.449 51.8071 114.944 54.4463 113.933 57.7031C112.922 60.9225 111.5 64.3665 109.666 68.0352C107.869 71.6663 105.66 75.4473 103.04 79.3779C100.457 83.2712 97.6302 87.0708 94.5605 90.7769C91.5283 94.4455 88.1779 97.9456 84.5093 101.277C80.8781 104.572 77.1908 107.454 73.4473 109.925C65.2865 115.315 57.3128 118.011 49.5264 118.011C46.8311 118.011 44.4352 117.299 42.3389 115.877C40.2425 114.454 38.6141 113.051 37.4536 111.666C34.7957 108.484 33.4668 104.085 33.4668 98.4697C33.4668 92.8171 35.3198 86.1911 39.0259 78.5918C42.7694 70.9925 47.8605 63.8237 54.2993 57.0854C60.7756 50.3097 68.0192 44.7694 76.0303 40.4644C84.0413 36.1219 91.6593 33.9507 98.8843 33.9507C100.307 33.9507 101.654 34.2689 102.927 34.9053C104.2 35.5417 104.836 36.2904 104.836 37.1514C104.836 37.9749 104.631 38.6675 104.219 39.229C103.807 39.7531 103.414 40.3333 103.04 40.9697C102.665 41.5687 102.347 41.9992 102.085 42.2612C103.32 41.9618 104.93 41.812 106.914 41.812ZM85.9692 67.7544C85.9692 68.5031 85.7072 68.8774 85.1831 68.8774C84.659 68.8774 83.5734 67.979 81.9263 66.1821C80.2791 64.3478 79.4556 62.813 79.4556 61.5776C79.4556 58.6951 81.3835 55.4196 85.2393 51.751C89.1325 48.0824 93.4562 45.2935 98.2104 43.3843C92.9696 43.6838 86.8864 45.9111 79.9609 50.0664C73.0355 54.2217 66.971 59.238 61.7676 65.1152C56.5641 70.9551 52.3527 77.057 49.1333 83.4209C45.9513 89.7848 44.3604 94.9508 44.3604 98.9189C44.3604 101.352 44.9032 103.449 45.9888 105.208C47.0744 106.93 48.9087 107.791 51.4917 107.791C54.1121 107.791 57.2567 106.893 60.9253 105.096C64.5939 103.299 68.1689 100.94 71.6504 98.0205C83.6296 87.8757 92.9883 76.6077 99.7266 64.2168C102.459 59.1257 103.826 55.6068 103.826 53.6602C103.826 52.874 103.564 52.481 103.04 52.481C101.505 52.481 99.3335 53.473 96.5259 55.457C93.7183 57.4036 91.2288 59.5562 89.0576 61.9146C86.8864 64.2729 85.8008 65.9762 85.8008 67.0244L85.9692 67.7544ZM97.5928 98.9189L97.1436 97.3467C97.1436 97.0472 97.2933 96.8039 97.5928 96.6167C97.8923 96.3921 98.2666 95.9616 98.7158 95.3252C99.2025 94.6888 99.5394 94.277 99.7266 94.0898C99.9512 93.9027 100.251 93.6406 100.625 93.3037C101.037 92.9294 101.374 92.6299 101.636 92.4053C102.384 91.7689 102.909 91.4132 103.208 91.3384C103.507 91.2261 104.032 91.0576 104.78 90.833C107.101 90.0843 109.067 89.5602 110.676 89.2607C120.222 73.3135 127.878 60.8477 133.643 51.8633C139.445 42.8415 142.739 37.8626 143.525 36.9268C144.349 35.9535 145.79 35.0924 147.849 34.3438C149.908 33.5951 151.405 33.2394 152.341 33.2769C153.315 33.2769 153.801 33.6886 153.801 34.5122C153.801 34.8491 153.67 35.2983 153.408 35.8599C153.184 36.4214 151.143 39.7344 147.288 45.7988C133.025 68.1475 123.891 82.6348 119.885 89.2607L121.289 89.7661C129.974 88.1564 134.485 87.3516 134.822 87.3516C135.196 87.3516 136.095 87.6136 137.517 88.1377C138.977 88.6243 139.932 88.9051 140.381 88.98C141.242 89.1297 141.672 89.841 141.672 91.1138C141.672 92.3491 141.279 93.0417 140.493 93.1914C139.857 93.3037 138.322 93.6781 135.889 94.3145C133.493 94.9134 131.565 95.3813 130.105 95.7183C132.089 98.0767 133.081 100.585 133.081 103.243C133.081 105.901 131.902 109.419 129.543 113.799C127.185 118.142 124.172 122.447 120.503 126.714C116.834 130.982 112.979 135.006 108.936 138.787C104.93 142.568 101.074 145.619 97.3682 147.94C93.6621 150.298 90.9294 151.478 89.1699 151.478C87.373 151.478 85.7821 150.991 84.397 150.018C82.9744 149.082 82.2632 147.678 82.2632 145.806C82.2632 143.934 82.6562 141.744 83.4424 139.236C84.1911 136.766 85.0146 134.482 85.9131 132.386C86.8115 130.327 88.3464 127.351 90.5176 123.458C92.8385 119.265 97.0312 112.096 103.096 101.951C102.048 102.138 101.243 102.232 100.681 102.232C100.12 102.232 99.5955 102.101 99.1089 101.839C98.6222 101.577 98.2853 101.24 98.0981 100.828C97.7612 100.079 97.5928 99.443 97.5928 98.9189ZM113.372 123.121C116.179 119.864 118.538 116.457 120.447 112.901C122.356 109.307 123.311 106.387 123.311 104.141C123.311 101.858 122.206 99.8548 119.998 98.1328L113.765 99.5366C113.128 100.585 112.136 102.251 110.789 104.534C109.478 106.78 108.393 108.615 107.532 110.037C106.708 111.46 105.641 113.294 104.331 115.54C103.021 117.786 101.917 119.677 101.018 121.211C100.157 122.746 99.1838 124.468 98.0981 126.377C97.05 128.324 96.189 129.971 95.5151 131.319C94.8039 132.704 94.13 134.07 93.4937 135.418C92.2583 138.038 91.6406 139.742 91.6406 140.528C91.6406 141.314 91.8465 141.707 92.2583 141.707C93.007 141.707 94.5605 140.846 96.9189 139.124C99.2399 137.439 101.86 135.156 104.78 132.273C107.738 129.428 110.601 126.377 113.372 123.121ZM180.811 74.998C180.811 77.4688 179.8 79.64 177.778 81.5117C175.794 83.3835 173.529 84.3193 170.984 84.3193C170.16 84.3193 169.618 84.1322 169.355 83.7578C169.093 83.346 168.962 82.8219 168.962 82.1855C168.962 81.5492 169.037 80.9315 169.187 80.3325C167.839 80.7817 166.342 81.4743 164.695 82.4102C163.048 83.346 161.026 84.7311 158.63 86.5654C156.235 88.3997 155.037 89.7661 155.037 90.6646C155.037 90.964 155.467 91.1138 156.328 91.1138C157.227 91.1138 158.593 90.8143 160.427 90.2153C162.262 89.5789 163.534 89.2607 164.246 89.2607C164.994 89.2607 165.481 89.2982 165.706 89.373C166.192 89.6351 166.716 90.2153 167.278 91.1138C167.839 91.9748 168.12 92.6673 168.12 93.1914C168.12 93.6781 167.633 94.3332 166.66 95.1567C165.687 95.9803 164.583 96.6167 163.347 97.0659C162.112 97.4777 161.288 97.7959 160.876 98.0205C152.978 102.438 149.028 105.47 149.028 107.117C149.028 110.037 151.518 111.497 156.497 111.497C159.679 111.497 162.879 110.486 166.099 108.465C168.831 106.743 171.283 105.002 173.455 103.243C175.663 101.446 177.048 100.341 177.61 99.9297C178.209 99.5179 178.658 99.312 178.958 99.312C179.931 99.312 180.417 100.398 180.417 102.569C180.417 104.74 180.286 106.181 180.024 106.893C179.762 107.566 179.014 108.409 177.778 109.419C169.767 115.933 162.187 119.19 155.037 119.19C151.218 119.19 148.167 118.666 145.884 117.618C141.691 115.708 139.595 112.789 139.595 108.858C139.595 103.692 143.17 99.7799 150.32 97.1221C148.897 96.4857 147.98 95.6808 147.568 94.7075C147.157 93.6968 146.951 92.1058 146.951 89.9346C146.951 87.7259 147.961 85.4049 149.983 82.9717C152.042 80.501 154.55 78.4795 157.507 76.9072C164.096 73.3509 169.973 71.5728 175.139 71.5728C176.375 71.5728 177.629 71.8722 178.901 72.4712C180.174 73.0701 180.811 73.9124 180.811 74.998ZM197.039 86.397C205.873 76.3644 213.398 71.3481 219.612 71.3481C221.147 71.3481 222.401 71.8161 223.374 72.752C224.385 73.6504 224.89 74.8296 224.89 76.2896C224.89 77.7495 223.842 80.2015 221.746 83.6455C219.687 87.0521 217.778 89.9346 216.018 92.293C215.082 93.4909 214.015 94.0898 212.817 94.0898C211.657 94.0898 210.74 93.6593 210.066 92.7983C209.43 91.9373 209.111 90.9266 209.111 89.7661C209.111 87.1831 210.496 84.2632 213.267 81.0063L213.154 80.894C211.919 81.0063 208.849 83.4396 203.945 88.1938C199.079 92.9481 194.924 97.2157 191.479 100.997C188.073 104.74 184.367 109.307 180.361 114.698C179.201 116.307 178.209 117.112 177.385 117.112C176.599 117.112 175.551 116.869 174.241 116.382C172.893 115.858 172.088 115.484 171.826 115.259C171.527 115.035 171.377 114.66 171.377 114.136C171.377 113.612 171.527 113.013 171.826 112.339C172.126 111.628 172.687 110.636 173.511 109.363C174.297 108.09 175.495 106.032 177.104 103.187C178.752 100.341 181.297 96.0365 184.741 90.2715C188.185 84.5065 190.244 81.0251 190.918 79.8271C192.34 77.3564 193.501 75.5596 194.399 74.4365C196.084 72.3027 198.929 71.2358 202.935 71.2358C203.833 71.2358 204.282 71.7974 204.282 72.9204C204.282 74.6799 202.654 77.9928 199.397 82.8594L197.039 86.397ZM257.515 44.6758L259.817 45.2373C260.154 45.2373 260.453 45.4058 260.715 45.7427C260.977 46.0796 261.108 46.3978 261.108 46.6973C261.108 46.9967 260.715 47.8016 259.929 49.1118C259.143 50.422 258.207 51.9194 257.122 53.604C256.073 55.2511 255.512 56.1496 255.437 56.2993C258.357 56.0747 260.416 55.9624 261.614 55.9624C262.849 55.9624 263.691 56.056 264.141 56.2432C264.59 56.3929 265.095 56.8608 265.657 57.647C266.256 58.3957 266.799 58.9759 267.285 59.3877C267.772 59.762 268.015 60.3423 268.015 61.1284C268.015 61.9146 267.528 62.5884 266.555 63.1499C265.619 63.674 264.609 63.9922 263.523 64.1045C254.838 64.9655 250.046 65.4147 249.148 65.4521C246.116 70.0941 241.867 77.3377 236.401 87.1831C230.973 96.991 228.091 103.13 227.754 105.601C227.604 106.724 227.529 107.641 227.529 108.353C227.529 109.812 228.297 110.542 229.832 110.542C231.366 110.542 233.07 109.962 234.941 108.802C236.813 107.604 238.535 106.312 240.107 104.927C244.3 101.184 246.546 99.312 246.846 99.312C247.819 99.312 248.306 100.997 248.306 104.366C248.306 106.2 247.463 107.847 245.779 109.307C241.998 112.564 238.816 115.016 236.233 116.663C233.65 118.31 231.067 119.134 228.484 119.134C227.922 119.134 227.398 119.078 226.912 118.965C223.917 118.404 221.708 117.318 220.286 115.708C218.901 114.061 218.208 111.853 218.208 109.083C218.245 106.312 219.069 102.962 220.679 99.0312C222.326 95.0632 224.385 90.8517 226.855 86.397C230.898 79.1346 234.941 72.3215 238.984 65.9575L236.851 66.2383C232.508 66.7249 229.981 66.9683 229.27 66.9683H228.765C227.679 66.9683 226.631 66.7624 225.62 66.3506C224.609 65.9014 224.104 65.3586 224.104 64.7222C224.104 64.0858 224.366 63.4681 224.89 62.8691C225.452 62.2702 225.789 61.8022 225.901 61.4653C226.163 60.6418 227.136 59.7246 228.821 58.7139C230.543 57.7031 231.834 57.179 232.695 57.1416C233.556 57.0667 234.38 57.0106 235.166 56.9731C235.99 56.9357 236.888 56.8983 237.861 56.8608C238.872 56.8234 239.639 56.786 240.164 56.7485L245.217 56.5239C248.362 51.8071 250.514 48.7749 251.675 47.4272C252.873 46.0796 253.565 45.3496 253.752 45.2373C253.94 45.0876 254.314 45.0127 254.875 45.0127L257.515 44.6758ZM286.433 74.3242C289.278 74.3242 290.701 75.2975 290.701 77.2441C290.701 78.2923 290.457 79.0597 289.971 79.5464C289.484 80.033 288.436 81.6615 286.826 84.4316C285.254 87.1644 283.494 90.6833 281.548 94.9883C279.639 99.2559 278.403 102.906 277.842 105.938C277.729 106.312 277.673 106.836 277.673 107.51C277.673 109.569 278.235 110.599 279.358 110.599C280.481 110.599 281.81 110.075 283.345 109.026C284.88 107.941 286.246 106.799 287.444 105.601C288.642 104.366 289.802 103.112 290.925 101.839C292.086 100.566 292.778 99.8361 293.003 99.6489C293.228 99.4618 293.564 99.3682 294.014 99.3682C294.725 99.3682 295.155 99.911 295.305 100.997C295.455 102.082 295.53 103.205 295.53 104.366C295.53 105.526 295.417 106.331 295.193 106.78C294.107 108.914 291.711 111.478 288.005 114.473C284.337 117.468 280.986 118.965 277.954 118.965C274.959 118.965 272.751 118.048 271.328 116.214C269.906 114.38 269.194 112.358 269.194 110.149C269.194 107.903 269.569 105.938 270.317 104.253C267.21 108.296 263.635 111.722 259.592 114.529C255.587 117.337 252.311 118.741 249.766 118.741C247.22 118.741 245.142 117.973 243.533 116.438C241.474 114.529 240.444 111.89 240.444 108.521C240.444 105.114 241.193 101.708 242.69 98.3013C244.225 94.8573 246.228 91.7314 248.699 88.9238C251.169 86.0788 253.883 83.4958 256.841 81.1748C263.055 76.3083 268.783 73.875 274.023 73.875C276.045 73.875 277.692 74.2119 278.965 74.8857C280.238 75.5596 281.042 76.4019 281.379 77.4126C282.278 76.0649 283.027 75.2227 283.625 74.8857C284.262 74.5114 285.198 74.3242 286.433 74.3242ZM278.965 80.5571C272.563 80.5571 265.938 84.1134 259.087 91.2261C256.654 93.7716 254.408 96.8226 252.349 100.379C250.327 103.935 249.316 106.368 249.316 107.679C249.316 108.989 249.691 109.644 250.439 109.644C251.488 109.644 254.408 107.585 259.199 103.467C263.991 99.312 267.173 96.2611 268.745 94.3145C270.467 92.1432 273.874 87.5575 278.965 80.5571ZM296.597 105.77L296.541 106.668C296.541 107.604 296.896 108.409 297.607 109.083C298.319 109.756 298.974 110.093 299.573 110.093C304.065 110.093 308.033 109.419 311.477 108.072C314.958 106.724 316.699 105.376 316.699 104.029C316.699 103.392 316.063 102.85 314.79 102.4C313.555 101.914 311.44 101.333 308.445 100.66C305.487 99.9484 303.335 99.4056 301.987 99.0312C300.64 98.6195 299.573 98.2451 298.787 97.9082C298 97.5713 297.196 97.1034 296.372 96.5044C294.613 95.269 293.733 93.4347 293.733 91.0015C293.733 88.5308 294.631 86.0975 296.428 83.7017C298.263 81.2684 300.546 79.1908 303.279 77.4688C306.012 75.7467 308.95 74.2306 312.095 72.9204C318.309 70.3374 323.531 69.0459 327.761 69.0459C331.917 69.0459 334.481 69.9443 335.454 71.7412C335.754 72.3776 335.903 73.0889 335.903 73.875V74.2681C335.903 76.2521 335.473 77.8057 334.612 78.9287C333.788 80.0518 332.459 81.0625 330.625 81.9609C328.828 82.8594 327.387 83.3086 326.301 83.3086C325.253 83.3086 324.579 83.2337 324.28 83.084C324.018 82.9342 323.793 82.7471 323.606 82.5225C323.419 82.2604 323.175 82.0732 322.876 81.9609C322.614 81.8486 322.483 81.5679 322.483 81.1187C322.483 80.6694 322.67 80.2202 323.044 79.771C323.419 79.2843 323.681 78.779 323.831 78.2549C321.36 78.3672 318.777 78.9474 316.082 79.9956C313.386 81.0063 311.065 82.1481 309.119 83.4209C307.209 84.6937 305.618 85.9103 304.346 87.0708C303.073 88.2313 302.437 89.0923 302.437 89.6538C302.437 90.1779 303.298 90.6084 305.02 90.9453C312.769 92.4801 317.86 93.8091 320.293 94.9321C322.726 96.0552 324.411 97.328 325.347 98.7505C326.283 100.173 326.75 101.465 326.75 102.625C326.75 105.021 325.796 107.286 323.887 109.419C321.978 111.553 319.619 113.294 316.812 114.642C310.785 117.599 305.525 119.078 301.033 119.078C296.578 119.078 293.49 118.385 291.768 117C290.083 115.652 289.241 114.043 289.241 112.171C289.241 110.299 289.709 108.577 290.645 107.005C291.618 105.395 292.853 104.59 294.351 104.59C295.848 104.59 296.597 104.983 296.597 105.77Z" fill="#E79D0F"/>
</g>
<defs>
<filter id="filter0_i_669_412" x="33.4668" y="33.2207" width="302.437" height="122.257" filterUnits="userSpaceOnUse" color-interpolation-filters="sRGB">
<feFlood flood-opacity="0" result="BackgroundImageFix"/>
<feBlend mode="normal" in="SourceGraphic" in2="BackgroundImageFix" result="shape"/>
<feColorMatrix in="SourceAlpha" type="matrix" values="0 0 0 0 0 0 0 0 0 0 0 0 0 0 0 0 0 0 127 0" result="hardAlpha"/>
<feOffset dy="4"/>
<feGaussianBlur stdDeviation="2"/>
<feComposite in2="hardAlpha" operator="arithmetic" k2="-1" k3="1"/>
<feColorMatrix type="matrix" values="0 0 0 0 0 0 0 0 0 0 0 0 0 0 0 0 0 0 0.25 0"/>
<feBlend mode="normal" in2="shape" result="effect1_innerShadow_669_412"/>
</filter>
</defs>
</svg>
