<svg width="568" height="777" viewBox="0 0 568 777" fill="none" xmlns="http://www.w3.org/2000/svg">
<g filter="url(#filter0_if_31_401)">
<path d="M82.0566 761.023L556.524 494.074L388.447 574.046C379.411 578.345 374.893 580.495 372.924 579.776C371.15 579.128 369.893 577.537 369.673 575.661C369.429 573.579 372.565 569.681 378.837 561.884L378.837 561.884L553.786 344.424L553.786 344.423C560.415 336.184 563.729 332.065 563.466 329.961C563.229 328.069 561.936 326.476 560.132 325.855C558.128 325.165 553.415 327.561 543.989 332.354L464.324 372.86C447.544 381.392 439.153 385.658 437.032 384.787C435.133 384.007 433.903 382.145 433.932 380.091C433.964 377.799 441.182 371.758 455.619 359.676L504.822 318.499L504.822 318.499C515.523 309.543 520.874 305.065 520.961 302.851C521.04 300.863 519.933 299.018 518.142 298.152C516.146 297.187 509.678 299.802 496.74 305.032L432.282 331.088L432.281 331.088C418.336 336.725 411.363 339.543 409.356 338.555C407.555 337.668 406.459 335.79 406.573 333.786C406.699 331.551 412.583 326.867 424.351 317.498L461.853 287.638C473.319 278.509 479.052 273.944 479.184 271.717C479.302 269.72 478.218 267.844 476.428 266.95C474.432 265.952 467.616 268.643 453.983 274.024L348.759 315.556C340.629 318.765 336.565 320.369 334.688 319.582C332.996 318.872 331.828 317.291 331.647 315.465C331.446 313.44 334.174 310.026 339.629 303.199L413.896 210.254C419.602 203.114 422.455 199.543 422.236 197.498C422.04 195.655 420.839 194.072 419.118 193.385C417.208 192.623 413 194.405 404.584 197.971L248.248 264.206C234.069 270.213 226.979 273.217 224.951 272.255C223.133 271.392 222.01 269.523 222.1 267.512C222.202 265.27 228.18 260.418 240.136 250.714L240.136 250.713L360.536 152.993C369.812 145.464 374.45 141.7 374.604 139.54C374.743 137.598 373.743 135.753 372.04 134.809C370.146 133.76 364.46 135.591 353.089 139.253L231.589 178.383C217.409 182.95 210.318 185.233 208.389 184.104C206.658 183.092 205.7 181.144 205.954 179.155C206.237 176.937 212.373 172.714 224.644 164.267L224.645 164.267L322.587 96.8498C332.034 90.3471 336.757 87.0958 337.09 84.9705C337.389 83.0599 336.56 81.148 334.96 80.0612C333.181 78.8522 327.58 80.08 316.377 82.5356L140.5 121.087C133.427 122.638 129.89 123.413 128.213 122.447C126.698 121.574 125.749 119.972 125.71 118.223C125.668 116.289 128.047 113.559 132.804 108.099L223.5 4L82.9261 144.717L82.926 144.717C76.4073 151.243 73.1479 154.505 73.1418 156.566C73.1363 158.423 74.1607 160.131 75.8019 161C77.6233 161.964 82.036 160.624 90.8614 157.943L255.441 107.944C268.618 103.941 275.206 101.94 277.106 103.074C278.811 104.092 279.752 106.022 279.503 107.992C279.226 110.188 273.591 114.144 262.32 122.057L111.564 227.904C97.6941 237.642 90.759 242.511 90.5174 244.767C90.301 246.789 91.3304 248.741 93.1212 249.703C95.1196 250.778 103.054 247.803 118.923 241.854L118.923 241.854L298.851 174.402C314.402 168.572 322.177 165.658 324.173 166.726C325.962 167.684 326.994 169.628 326.786 171.647C326.554 173.899 319.785 178.708 306.246 188.327L114.782 324.359C96.9995 336.993 88.1081 343.31 87.9147 345.624C87.7416 347.695 88.8676 349.658 90.743 350.553C92.8389 351.554 102.779 347.064 122.659 338.085L308.873 253.977C333.343 242.925 345.578 237.399 347.693 238.438C349.584 239.367 350.689 241.382 350.458 243.476C350.198 245.818 338.965 253.17 316.5 267.874L316.499 267.874L70.5756 428.831C53.3113 440.13 44.6791 445.78 44.3908 448.074C44.1327 450.127 45.166 452.127 46.9899 453.104C49.0276 454.196 58.6302 450.425 77.8354 442.882L321.618 347.138C342.95 338.761 353.615 334.572 355.663 335.686C357.495 336.683 358.516 338.712 358.224 340.777C357.898 343.086 348.176 349.151 328.733 361.283L4 563.895L433.5 351.615L33.5 624.468L345.459 466.052C358.672 459.343 365.278 455.988 367.36 456.797C369.228 457.522 370.482 459.293 370.547 461.296C370.619 463.528 365.264 468.648 354.553 478.887L354.552 478.887L72.6649 748.348C60.2736 760.193 54.078 766.116 54.1801 768.385C54.2716 770.419 55.5868 772.194 57.5056 772.873C59.647 773.632 67.1168 769.429 82.0566 761.023Z" fill="#F29E38"/>
<path d="M543.539 500.806L81.8114 760.588C74.3364 764.793 68.7468 767.938 64.7576 769.938C62.7619 770.938 61.1852 771.643 59.9836 772.05C59.383 772.254 58.8907 772.378 58.4962 772.431C58.0961 772.485 57.8348 772.459 57.6726 772.402C55.9457 771.79 54.762 770.193 54.6796 768.363C54.6719 768.191 54.7238 767.933 54.8916 767.566C55.057 767.204 55.3193 766.769 55.689 766.254C56.4286 765.223 57.5616 763.92 59.0998 762.302C62.1746 759.068 66.8105 754.636 73.0104 748.71L354.898 479.249L354.898 479.248L354.906 479.241L354.906 479.24L354.912 479.235C360.256 474.127 364.28 470.28 366.958 467.431C368.297 466.007 369.315 464.816 369.996 463.831C370.66 462.87 371.071 462.013 371.047 461.28C370.975 459.076 369.596 457.129 367.541 456.331C366.857 456.065 365.912 456.168 364.786 456.476C363.631 456.792 362.17 457.357 360.381 458.148C356.806 459.73 351.842 462.25 345.25 465.598L345.233 465.606L40.1886 620.511L433.782 352.028L433.278 351.167L12.845 558.965L328.997 361.707L329.007 361.701C338.72 355.641 346.018 351.087 350.928 347.76C353.382 346.097 355.255 344.731 356.538 343.629C357.18 343.078 357.687 342.583 358.048 342.14C358.4 341.709 358.659 341.274 358.719 340.847C359.04 338.576 357.917 336.343 355.902 335.247C355.524 335.041 355.02 334.99 354.464 335.015C353.893 335.041 353.193 335.153 352.369 335.34C350.719 335.713 348.505 336.402 345.707 337.381C340.109 339.339 332.101 342.484 321.445 346.669L321.435 346.673L77.6526 442.417C68.0453 446.19 60.8552 449.014 55.8114 450.759C53.2881 451.632 51.3199 452.228 49.8639 452.54C49.1355 452.695 48.5514 452.776 48.0992 452.788C47.6358 452.801 47.3669 452.739 47.2261 452.664C45.5846 451.784 44.6546 449.984 44.8869 448.136C44.9068 447.977 45.0122 447.723 45.2905 447.352C45.5621 446.99 45.9659 446.56 46.5143 446.056C47.6107 445.049 49.236 443.789 51.408 442.236C55.7496 439.132 62.213 434.902 70.8494 429.249L316.761 268.301L316.761 268.3L316.773 268.292L316.774 268.292L316.783 268.286C328.007 260.94 336.438 255.422 342.093 251.448C344.921 249.462 347.068 247.852 348.529 246.586C349.258 245.954 349.829 245.397 350.23 244.913C350.617 244.446 350.905 243.978 350.954 243.531C351.21 241.227 349.993 239.011 347.913 237.989C347.509 237.791 346.96 237.783 346.359 237.858C345.735 237.936 344.958 238.118 344.033 238.394C342.181 238.946 339.669 239.893 336.475 241.211C330.086 243.847 320.904 247.994 308.679 253.516L308.668 253.521L122.453 337.629C112.509 342.121 105.065 345.483 99.8443 347.598C97.2325 348.656 95.1944 349.395 93.6866 349.807C92.9321 350.014 92.3265 350.134 91.8574 350.175C91.3751 350.217 91.099 350.169 90.9585 350.102C89.2706 349.296 88.2572 347.53 88.413 345.666C88.4259 345.511 88.5239 345.248 88.8035 344.853C89.0755 344.469 89.4847 344.006 90.0435 343.459C91.1604 342.365 92.8266 340.978 95.0579 339.257C99.518 335.817 106.177 331.086 115.072 324.766L306.536 188.735L306.549 188.725C313.307 183.924 318.392 180.311 321.815 177.617C323.527 176.27 324.84 175.14 325.744 174.196C326.196 173.724 326.556 173.288 326.813 172.885C327.068 172.486 327.243 172.088 327.283 171.698C327.512 169.478 326.376 167.339 324.409 166.286C324.063 166.101 323.636 166.023 323.163 166.01C322.684 165.998 322.121 166.052 321.477 166.162C320.189 166.382 318.517 166.837 316.443 167.501C312.294 168.829 306.453 171.018 298.691 173.928L298.675 173.934L118.748 241.386L118.748 241.386C118.743 241.388 118.738 241.39 118.734 241.391L118.72 241.397L118.72 241.397L543.539 500.806ZM543.539 500.806L388.662 574.497L388.638 574.509C384.139 576.649 380.74 578.267 378.219 579.258C376.956 579.755 375.892 580.103 375.007 580.279C374.13 580.453 373.371 580.471 372.752 580.245C370.801 579.533 369.418 577.782 369.176 575.72C369.099 575.065 369.293 574.331 369.665 573.518C370.041 572.698 370.626 571.744 371.401 570.63C372.948 568.406 375.309 565.472 378.432 561.59L378.447 561.571L378.448 561.57L378.464 561.55L378.465 561.549L553.397 344.11L553.397 344.11L543.539 500.806Z" stroke="#F29E38"/>
</g>
<defs>
<filter id="filter0_if_31_401" x="0" y="0" width="567.48" height="776.961" filterUnits="userSpaceOnUse" color-interpolation-filters="sRGB">
<feFlood flood-opacity="0" result="BackgroundImageFix"/>
<feBlend mode="normal" in="SourceGraphic" in2="BackgroundImageFix" result="shape"/>
<feColorMatrix in="SourceAlpha" type="matrix" values="0 0 0 0 0 0 0 0 0 0 0 0 0 0 0 0 0 0 127 0" result="hardAlpha"/>
<feOffset dy="4"/>
<feGaussianBlur stdDeviation="2"/>
<feComposite in2="hardAlpha" operator="arithmetic" k2="-1" k3="1"/>
<feColorMatrix type="matrix" values="0 0 0 0 0 0 0 0 0 0 0 0 0 0 0 0 0 0 0.25 0"/>
<feBlend mode="normal" in2="shape" result="effect1_innerShadow_31_401"/>
<feGaussianBlur stdDeviation="2" result="effect2_foregroundBlur_31_401"/>
</filter>
</defs>
</svg>
