<svg width="568" height="777" viewBox="0 0 568 777" fill="none" xmlns="http://www.w3.org/2000/svg">
<g filter="url(#filter0_f_31_401)">
<path d="M82.0566 761.023L556.524 494.074L388.447 574.046C379.411 578.345 374.893 580.495 372.924 579.776C371.15 579.128 369.893 577.537 369.673 575.661C369.429 573.579 372.565 569.681 378.837 561.884L378.837 561.884L553.786 344.424L553.786 344.423C560.415 336.184 563.729 332.065 563.466 329.961C563.229 328.069 561.936 326.476 560.132 325.855C558.128 325.165 553.415 327.561 543.989 332.354L464.324 372.86C447.544 381.392 439.153 385.658 437.032 384.787C435.133 384.007 433.903 382.145 433.932 380.091C433.964 377.799 441.182 371.758 455.619 359.676L504.822 318.499L504.822 318.499C515.523 309.543 520.874 305.065 520.961 302.851C521.04 300.863 519.933 299.018 518.142 298.152C516.146 297.187 509.678 299.802 496.74 305.032L432.282 331.088L432.281 331.088C418.336 336.725 411.363 339.543 409.356 338.555C407.555 337.668 406.459 335.79 406.573 333.786C406.699 331.551 412.583 326.867 424.351 317.498L461.853 287.638C473.319 278.509 479.052 273.944 479.184 271.717C479.302 269.72 478.218 267.844 476.428 266.95C474.432 265.952 467.616 268.643 453.983 274.024L348.759 315.556C340.629 318.765 336.565 320.369 334.688 319.582C332.996 318.872 331.828 317.291 331.647 315.465C331.446 313.44 334.174 310.026 339.629 303.199L413.896 210.254C419.602 203.114 422.455 199.543 422.236 197.498C422.04 195.655 420.839 194.072 419.118 193.385C417.208 192.623 413 194.405 404.584 197.971L248.248 264.206C234.069 270.213 226.979 273.217 224.951 272.255C223.133 271.392 222.01 269.523 222.1 267.512C222.202 265.27 228.18 260.418 240.136 250.714L240.136 250.713L360.536 152.993C369.812 145.464 374.45 141.7 374.604 139.54C374.743 137.598 373.743 135.753 372.04 134.809C370.146 133.76 364.46 135.591 353.089 139.253L231.589 178.383C217.409 182.95 210.318 185.233 208.389 184.104C206.658 183.092 205.7 181.144 205.954 179.155C206.237 176.937 212.373 172.714 224.644 164.267L224.645 164.267L322.587 96.8498C332.034 90.3471 336.757 87.0958 337.09 84.9705C337.389 83.0599 336.56 81.148 334.96 80.0612C333.181 78.8522 327.58 80.08 316.377 82.5356L140.5 121.087C133.427 122.638 129.89 123.413 128.213 122.447C126.698 121.574 125.749 119.972 125.71 118.223C125.668 116.289 128.047 113.559 132.804 108.099L223.5 4L82.9261 144.717L82.926 144.717C76.4073 151.243 73.1479 154.505 73.1418 156.566C73.1363 158.423 74.1607 160.131 75.8019 161C77.6233 161.964 82.036 160.624 90.8614 157.943L255.441 107.944C268.618 103.941 275.206 101.94 277.106 103.074C278.811 104.092 279.752 106.022 279.503 107.992C279.226 110.188 273.591 114.144 262.32 122.057L111.564 227.904C97.6941 237.642 90.759 242.511 90.5174 244.767C90.301 246.789 91.3304 248.741 93.1212 249.703C95.1196 250.778 103.054 247.803 118.923 241.854L118.923 241.854L298.851 174.402C314.402 168.572 322.177 165.658 324.173 166.726C325.962 167.684 326.994 169.628 326.786 171.647C326.554 173.899 319.785 178.708 306.246 188.327L114.782 324.359C96.9995 336.993 88.1081 343.31 87.9147 345.624C87.7416 347.695 88.8676 349.658 90.743 350.553C92.8389 351.554 102.779 347.064 122.659 338.085L308.873 253.977C333.343 242.925 345.578 237.399 347.693 238.438C349.584 239.367 350.689 241.382 350.458 243.476C350.198 245.818 338.965 253.17 316.5 267.874L316.499 267.874L70.5756 428.831C53.3113 440.13 44.6791 445.78 44.3908 448.074C44.1327 450.127 45.166 452.127 46.9899 453.104C49.0276 454.196 58.6302 450.425 77.8354 442.882L321.618 347.138C342.95 338.761 353.615 334.572 355.663 335.686C357.495 336.683 358.516 338.712 358.224 340.777C357.898 343.086 348.176 349.151 328.733 361.283L4 563.895L433.5 351.615L33.5 624.468L345.459 466.052C358.672 459.343 365.278 455.988 367.36 456.797C369.228 457.522 370.482 459.293 370.547 461.296C370.619 463.528 365.264 468.648 354.553 478.887L354.552 478.887L72.6649 748.348C60.2736 760.193 54.078 766.116 54.1801 768.385C54.2716 770.419 55.5868 772.194 57.5056 772.873C59.647 773.632 67.1168 769.429 82.0566 761.023Z" fill="#F29E38"/>
</g>
<defs>
<filter id="filter0_f_31_401" x="0" y="0" width="567.48" height="776.961" filterUnits="userSpaceOnUse" color-interpolation-filters="sRGB">
<feFlood flood-opacity="0" result="BackgroundImageFix"/>
<feBlend mode="normal" in="SourceGraphic" in2="BackgroundImageFix" result="shape"/>
<feGaussianBlur stdDeviation="2" result="effect1_foregroundBlur_31_401"/>
</filter>
</defs>
</svg>
