<svg width="93" height="93" viewBox="0 0 93 93" fill="none" xmlns="http://www.w3.org/2000/svg">
<path d="M92.179 84.53V7.649C92.179 3.42457 88.7544 0 84.53 0L7.64896 0C3.42453 0 -4.57764e-05 3.42457 -4.57764e-05 7.649V84.53C-4.57764e-05 88.7544 3.42453 92.179 7.64896 92.179H84.53C88.7544 92.179 92.179 88.7544 92.179 84.53Z" fill="url(#paint0_linear_118_421)"/>
<path d="M60.398 28.717C59.7708 28.7166 59.1577 28.9022 58.636 29.2504C58.1144 29.5986 57.7078 30.0936 57.4676 30.673C57.2275 31.2523 57.1645 31.8898 57.2868 32.5049C57.409 33.12 57.711 33.6851 58.1544 34.1285C58.5979 34.572 59.1629 34.8739 59.778 34.9962C60.3931 35.1184 61.0307 35.0555 61.61 34.8153C62.1893 34.5751 62.6844 34.1685 63.0325 33.6469C63.3807 33.1253 63.5664 32.5121 63.566 31.885C63.566 31.469 63.484 31.057 63.3248 30.6726C63.1656 30.2883 62.9322 29.939 62.6381 29.6449C62.3439 29.3507 61.9947 29.1173 61.6103 28.9581C61.2259 28.7989 60.814 28.717 60.398 28.717Z" fill="white"/>
<path d="M46.311 32.778C43.6787 32.778 41.1055 33.5586 38.9169 35.021C36.7282 36.4834 35.0224 38.562 34.015 40.9939C33.0077 43.4258 32.7442 46.1018 33.2577 48.6835C33.7712 51.2652 35.0388 53.6366 36.9001 55.4979C38.7614 57.3592 41.1328 58.6268 43.7145 59.1403C46.2962 59.6538 48.9722 59.3903 51.4041 58.3829C53.836 57.3756 55.9146 55.6698 57.377 53.4811C58.8394 51.2924 59.62 48.7193 59.62 46.087C59.616 42.5585 58.2125 39.1756 55.7175 36.6805C53.2224 34.1855 49.8395 32.782 46.311 32.778ZM46.311 54.613C44.625 54.6126 42.9771 54.1124 41.5755 53.1755C40.1739 52.2386 39.0815 50.9071 38.4365 49.3495C37.7915 47.7918 37.6229 46.0779 37.9519 44.4244C38.2809 42.7709 39.0927 41.2521 40.2849 40.0599C41.477 38.8678 42.9958 38.0559 44.6493 37.7269C46.3028 37.3979 48.0168 37.5666 49.5744 38.2116C51.1321 38.8566 52.4635 39.9489 53.4004 41.3505C54.3373 42.7522 54.8376 44.4001 54.838 46.086C54.8366 48.3473 53.9379 50.5156 52.3391 52.1148C50.7403 53.7139 48.5722 54.6132 46.311 54.615V54.613Z" fill="white"/>
<path d="M56.877 73.109H35.303C30.9993 73.1048 26.873 71.3934 23.8295 68.3505C20.7861 65.3076 19.074 61.1817 19.069 56.878V35.302C19.0735 30.9979 20.7853 26.8713 23.8288 23.8278C26.8723 20.7843 30.9988 19.0725 35.303 19.068H56.877C61.1809 19.073 65.3072 20.785 68.3506 23.8284C71.394 26.8718 73.1059 30.998 73.111 35.302V56.879C73.1051 61.1824 71.3928 65.3077 68.3495 68.3503C65.3061 71.3929 61.1803 73.1042 56.877 73.109ZM35.303 24.153C32.347 24.1562 29.5131 25.3318 27.4229 27.422C25.3328 29.5121 24.1571 32.3461 24.154 35.302V56.879C24.1571 59.8346 25.3329 62.6683 27.4231 64.758C29.5134 66.8476 32.3473 68.0226 35.303 68.025H56.877C59.8324 68.0218 62.6659 66.8466 64.7559 64.7571C66.846 62.6676 68.022 59.8344 68.026 56.879V35.302C68.0223 32.3462 66.8465 29.5126 64.7564 27.4226C62.6664 25.3325 59.8327 24.1567 56.877 24.153H35.303Z" fill="white"/>
<defs>
<linearGradient id="paint0_linear_118_421" x1="600.638" y1="407.155" x2="481.451" y2="526.342" gradientUnits="userSpaceOnUse">
<stop offset="0.001" stop-color="#FBE18A"/>
<stop offset="0.209" stop-color="#FCBB45"/>
<stop offset="0.376" stop-color="#F75274"/>
<stop offset="0.524" stop-color="#D53692"/>
<stop offset="0.739" stop-color="#8F39CE"/>
<stop offset="1" stop-color="#5B4FE9"/>
</linearGradient>
</defs>
</svg>
